{"glyphs":{"0":{"ha":854,"x_min":83,"x_max":769,"o":"m 426 -17 q 257 43 335 -17 q 131 219 179 103 q 83 504 83 335 q 131 790 83 674 q 257 965 179 906 q 426 1025 335 1025 q 596 965 518 1025 q 722 790 674 906 q 769 504 769 674 q 722 219 769 335 q 596 43 674 103 q 426 -17 518 -17 m 426 44 q 551 103 507 44 q 613 266 594 163 q 631 504 631 369 q 613 742 631 639 q 551 905 594 846 q 426 964 507 964 q 303 905 347 964 q 240 742 258 846 q 222 504 222 638 q 240 267 222 371 q 303 103 258 163 q 426 44 347 44 z "},"1":{"ha":743,"x_min":126,"x_max":604,"o":"m 139 0 q 127 25 126 11 q 139 49 128 39 q 223 61 185 54 q 284 85 261 68 q 307 133 307 101 l 307 851 q 292 910 307 890 q 215 929 276 929 l 156 929 q 144 954 143 940 q 156 978 144 968 q 219 983 182 979 q 293 996 257 988 q 351 1017 329 1004 q 396 1025 367 1025 q 420 1020 410 1025 q 431 1004 431 1015 l 431 133 q 477 70 431 85 q 593 49 524 56 q 604 25 604 39 q 593 0 604 11 l 139 0 z "},"2":{"ha":790,"x_min":65,"x_max":710,"o":"m 89 0 q 65 24 65 0 l 65 67 q 101 146 65 100 q 192 248 136 192 q 311 367 249 304 q 430 499 374 431 q 522 637 486 567 q 557 775 557 707 q 542 871 557 828 q 492 939 528 914 q 393 964 457 964 q 267 929 315 964 q 219 825 219 894 q 225 792 219 806 q 240 763 231 778 q 250 732 250 749 q 229 683 250 701 q 178 664 208 664 q 131 685 150 664 q 103 736 113 706 q 93 796 93 767 q 137 915 93 864 q 252 996 181 967 q 408 1025 324 1025 q 502 1011 453 1025 q 595 967 551 997 q 667 890 639 938 q 694 772 694 842 q 663 655 694 715 q 581 534 632 594 q 472 416 531 474 q 358 307 414 358 q 259 213 301 256 q 200 142 217 171 q 213 111 189 111 l 569 111 q 618 135 607 111 q 640 178 626 150 q 660 215 654 206 q 678 226 665 225 q 700 220 690 226 q 707 203 710 214 l 656 32 q 638 8 650 15 q 611 0 625 0 l 89 0 z "},"3":{"ha":775,"x_min":65,"x_max":696,"o":"m 342 -17 q 140 26 215 -17 q 65 131 65 69 q 82 179 65 158 q 129 200 99 200 q 165 188 150 200 q 194 143 181 175 q 250 78 213 103 q 292 56 269 64 q 342 49 315 49 q 467 85 419 49 q 536 174 514 121 q 558 274 558 226 q 538 383 558 340 q 488 449 518 426 q 428 481 458 472 q 375 490 397 490 q 314 488 349 490 q 268 486 279 486 q 235 525 235 486 q 268 565 235 565 q 307 565 283 565 q 350 564 331 564 q 394 578 365 564 q 454 621 424 592 q 506 694 485 650 q 528 800 528 739 q 478 923 528 882 q 363 964 428 964 q 272 943 315 964 q 208 875 228 922 q 201 834 199 851 q 208 803 204 817 q 211 790 210 796 q 213 778 213 783 q 191 732 213 749 q 146 715 169 715 q 100 736 117 715 q 80 788 83 757 q 83 853 76 819 q 142 948 99 910 q 248 1006 186 986 q 375 1025 310 1025 q 524 993 461 1025 q 621 910 586 961 q 656 797 656 858 q 593 640 656 708 q 439 539 531 571 q 434 533 433 538 q 442 528 435 528 q 570 494 513 528 q 662 402 628 460 q 696 275 696 344 q 645 115 696 181 q 513 17 594 50 q 342 -17 432 -17 z "},"4":{"ha":813,"x_min":51,"x_max":756,"o":"m 311 0 q 297 13 300 0 q 297 37 293 25 q 311 49 301 49 q 410 71 376 56 q 444 133 444 86 l 444 281 l 76 281 q 51 303 51 281 l 51 325 q 54 336 51 332 q 58 346 57 340 q 82 381 58 346 q 144 474 106 417 q 230 601 183 532 q 323 740 276 671 q 408 868 369 810 q 471 963 447 926 q 496 1000 494 999 q 526 1013 503 1013 l 546 1013 q 564 992 564 1013 l 564 346 l 732 346 q 751 330 747 346 q 750 297 756 314 q 729 281 744 281 l 564 281 l 564 133 q 594 71 564 86 q 688 49 624 56 q 700 37 697 49 q 700 13 703 25 q 688 0 697 0 l 311 0 m 169 346 l 444 346 l 444 806 q 439 808 444 817 l 151 374 q 149 355 144 364 q 169 346 154 346 z "},"5":{"ha":794,"x_min":69,"x_max":715,"o":"m 336 -17 q 206 3 267 -17 q 107 56 144 22 q 69 131 69 90 q 85 179 69 158 q 132 200 101 200 q 169 188 154 200 q 197 143 183 176 q 264 68 221 89 q 343 47 307 47 q 421 60 381 47 q 497 103 461 72 q 556 189 533 133 q 578 331 578 244 q 560 460 578 411 q 512 536 542 510 q 447 572 482 563 q 381 582 413 582 q 296 562 346 582 q 211 483 246 542 q 194 475 206 475 l 161 475 q 149 488 149 475 l 149 1000 q 175 1018 149 1022 q 279 1009 215 1013 q 413 1006 343 1006 q 540 1010 482 1007 q 629 1022 599 1014 q 650 1021 644 1026 q 650 1011 651 1019 q 649 1007 649 1008 q 642 985 649 1001 q 628 953 636 969 q 615 929 621 938 q 593 908 607 915 q 556 897 579 901 q 491 892 532 894 q 403 890 450 890 q 311 892 356 890 q 235 897 267 893 q 215 882 215 900 l 215 571 q 219 566 215 567 q 226 568 222 565 q 294 617 251 592 q 404 642 338 642 q 557 607 486 642 q 672 504 628 572 q 715 338 715 436 q 673 165 715 246 q 547 33 631 83 q 336 -17 463 -17 z "},"6":{"ha":829,"x_min":79,"x_max":754,"o":"m 429 -17 q 242 43 321 -17 q 122 209 164 103 q 79 457 79 315 q 104 657 79 557 q 181 840 129 757 q 310 974 232 924 q 492 1025 388 1025 q 586 1010 538 1025 q 672 967 635 994 q 717 901 708 939 q 710 860 722 879 q 679 838 699 840 q 628 844 649 832 q 583 888 607 857 q 517 947 547 932 q 454 963 486 963 q 381 945 424 963 q 299 883 339 928 q 232 756 258 838 q 206 546 206 674 q 210 539 206 540 q 219 543 215 538 q 310 613 251 579 q 446 646 369 646 q 598 610 528 646 q 711 506 668 574 q 754 339 754 438 q 713 156 754 236 q 597 29 671 75 q 429 -17 524 -17 m 418 44 q 515 73 476 44 q 576 146 553 101 q 608 240 599 190 q 618 329 618 289 q 563 522 618 468 q 421 576 508 576 q 361 564 397 576 q 290 523 325 551 q 230 445 254 494 q 206 321 206 396 q 233 182 206 244 q 308 82 260 119 q 418 44 356 44 z "},"7":{"ha":760,"x_min":64,"x_max":706,"o":"m 325 -17 q 269 3 285 -17 q 253 49 253 22 q 281 206 253 118 q 353 390 310 294 q 447 576 397 485 q 538 744 496 668 q 604 867 581 819 q 589 893 618 893 l 204 893 q 154 871 164 893 q 138 831 147 856 q 115 774 128 806 q 98 765 111 765 q 74 771 85 765 q 65 785 64 776 l 125 986 q 140 1003 128 999 q 168 1008 153 1008 l 683 1008 q 706 986 706 1008 l 706 942 q 701 913 706 931 q 678 864 696 896 q 596 709 643 801 q 504 506 549 617 q 430 278 460 396 q 400 47 400 160 q 378 3 400 22 q 325 -17 357 -17 z "},"8":{"ha":833,"x_min":83,"x_max":753,"o":"m 418 -17 q 251 18 328 -17 q 129 115 175 53 q 83 260 83 178 q 111 374 83 319 q 192 468 139 428 q 321 525 246 508 q 220 576 267 542 q 144 660 174 611 q 115 768 115 708 q 159 906 115 849 q 272 994 203 963 q 418 1025 342 1025 q 564 994 494 1025 q 678 906 633 963 q 722 768 722 849 q 694 661 722 710 q 620 578 667 613 q 518 525 574 543 q 647 467 594 508 q 726 372 699 426 q 753 260 753 318 q 707 115 753 178 q 585 18 661 53 q 418 -17 508 -17 m 418 44 q 567 110 518 44 q 615 269 615 175 q 562 433 615 378 q 418 489 508 489 q 275 433 329 489 q 221 269 221 378 q 271 110 221 175 q 418 44 321 44 m 418 558 q 522 589 485 558 q 574 668 560 619 q 589 769 589 717 q 565 885 589 843 q 501 945 540 928 q 418 963 463 963 q 338 945 376 963 q 274 885 299 928 q 249 769 249 843 q 263 667 249 715 q 315 589 278 619 q 418 558 351 558 z "},"9":{"ha":824,"x_min":61,"x_max":733,"o":"m 333 -17 q 209 3 269 -17 q 110 56 149 22 q 72 131 72 90 q 88 179 72 158 q 135 200 104 200 q 173 186 158 200 q 201 142 188 172 q 266 65 228 83 q 340 47 304 47 q 470 93 410 47 q 568 228 531 139 q 606 446 606 317 q 601 453 606 453 q 590 450 596 454 q 503 392 554 421 q 379 361 451 364 q 222 397 294 358 q 106 513 150 436 q 61 699 61 589 q 99 856 61 782 q 208 978 136 931 q 385 1025 281 1025 q 567 965 489 1025 q 690 798 646 906 q 733 546 733 690 q 709 349 733 449 q 635 167 685 250 q 510 34 585 85 q 333 -17 435 -17 m 394 432 q 458 446 422 433 q 528 487 493 458 q 585 565 563 515 q 607 688 607 614 q 581 826 607 764 q 507 926 554 889 q 394 963 460 963 q 273 929 315 963 q 214 837 231 896 q 197 703 197 778 q 225 543 197 604 q 298 456 253 482 q 394 432 343 429 z "}," ":{"ha":389,"x_min":0,"x_max":0,"o":""},"'":{"ha":311,"x_min":83,"x_max":228,"o":"m 174 672 q 154 665 165 664 q 136 674 143 665 q 129 711 135 681 q 116 785 124 742 q 101 874 108 829 q 88 955 93 919 q 83 1004 83 990 q 98 1044 83 1033 q 156 1054 113 1054 q 213 1044 197 1054 q 228 1004 228 1033 q 223 955 228 990 q 210 874 218 919 q 194 785 203 829 q 181 710 186 742 q 174 672 175 679 z "},"(":{"ha":494,"x_min":60,"x_max":451,"o":"m 426 -247 q 242 -83 325 -183 q 109 146 158 17 q 60 425 60 275 q 109 704 60 575 q 242 934 158 833 q 426 1099 325 1035 q 444 1089 438 1097 q 449 1069 451 1081 q 251 794 328 951 q 174 425 174 636 q 251 58 174 215 q 449 -218 328 -99 q 444 -236 451 -228 q 426 -247 438 -244 z "},")":{"ha":494,"x_min":44,"x_max":436,"o":"m 68 -247 q 51 -236 57 -244 q 46 -218 44 -228 q 244 58 167 -99 q 321 425 321 215 q 244 794 321 636 q 46 1069 167 951 q 51 1089 44 1081 q 68 1099 57 1097 q 253 934 169 1035 q 386 704 336 833 q 436 425 436 575 q 386 146 436 275 q 253 -83 336 17 q 68 -247 169 -183 z "},".":{"ha":361,"x_min":78,"x_max":267,"o":"m 172 -10 q 106 18 133 -10 q 78 85 78 46 q 106 152 78 125 q 172 179 133 179 q 240 152 213 179 q 267 85 267 125 q 240 18 267 46 q 172 -10 213 -10 z "},"D":{"ha":1000,"x_min":26,"x_max":933,"o":"m 46 0 q 31 7 36 0 q 26 22 26 14 q 31 39 26 32 q 46 46 36 46 q 140 63 107 46 q 172 131 172 79 l 172 881 q 140 948 172 933 q 46 963 107 963 q 31 969 36 963 q 26 986 26 976 q 31 1001 26 994 q 46 1008 36 1008 q 106 1007 57 1008 q 233 1006 154 1006 q 380 1007 326 1006 q 464 1008 433 1008 q 636 981 553 1008 q 787 894 719 954 q 894 738 854 835 q 933 504 933 642 q 894 275 933 371 q 787 118 854 179 q 636 28 719 57 q 464 0 553 0 q 378 1 433 0 q 232 3 324 3 q 106 1 151 3 q 46 0 61 0 m 325 50 l 471 50 q 584 70 528 50 q 686 141 640 90 q 760 280 732 192 q 788 504 788 368 q 760 733 788 644 q 686 872 732 822 q 584 940 640 921 q 471 958 528 958 l 325 958 q 296 931 296 958 l 296 78 q 325 50 296 50 z "},"E":{"ha":950,"x_min":21,"x_max":890,"o":"m 40 0 q 26 7 31 0 q 21 22 21 14 q 26 39 21 32 q 40 46 31 46 q 137 60 101 46 q 172 131 172 74 l 172 881 q 140 948 172 933 q 46 963 107 963 q 31 969 36 963 q 26 986 26 976 q 31 1001 26 994 q 46 1008 36 1008 q 156 1006 57 1008 q 440 1004 254 1004 q 716 1006 618 1004 q 824 1008 814 1008 q 861 975 860 1008 q 863 935 861 963 q 865 878 864 908 q 868 826 867 849 q 869 797 869 803 q 850 778 869 782 q 825 792 833 775 q 781 864 807 825 q 713 931 756 903 q 601 958 671 958 l 325 958 q 296 931 296 958 l 296 558 q 314 540 296 540 l 419 540 q 510 562 478 540 q 557 613 542 583 q 582 668 572 643 q 606 686 589 686 q 625 667 625 686 q 625 631 625 657 q 624 573 625 604 q 624 514 624 542 q 624 454 624 488 q 625 394 625 421 q 625 356 625 367 q 606 335 625 335 q 581 354 589 335 q 556 410 571 378 q 509 465 540 442 q 419 489 478 489 l 314 489 q 296 471 296 489 l 296 78 q 326 49 296 49 l 582 49 q 696 72 650 49 q 772 128 742 94 q 819 196 801 161 q 846 256 836 231 q 858 269 850 267 q 872 269 865 271 q 890 250 890 268 q 890 217 890 244 q 889 153 889 189 q 888 86 889 117 q 888 43 888 56 q 844 0 885 0 q 796 1 836 0 q 673 2 756 1 q 453 3 590 3 q 248 2 338 3 q 104 1 158 1 q 40 0 50 0 z "},"K":{"ha":996,"x_min":49,"x_max":971,"o":"m 68 0 q 49 22 49 0 q 53 39 49 32 q 68 46 58 46 q 144 60 115 46 q 172 131 172 74 l 172 879 q 147 947 172 932 q 75 963 122 963 q 60 969 65 963 q 56 986 56 976 q 60 1001 56 994 q 75 1008 65 1008 q 112 1007 82 1008 q 177 1005 142 1006 q 233 1004 213 1004 q 291 1005 256 1004 q 356 1007 326 1006 q 393 1008 386 1008 q 408 1001 403 1008 q 413 986 413 994 q 408 969 413 976 q 393 963 403 963 q 321 947 346 963 q 296 879 296 932 l 296 521 q 303 509 296 511 q 315 513 310 507 q 360 558 326 524 q 440 638 394 592 q 530 731 485 683 q 610 815 575 778 q 657 867 644 851 q 670 891 667 878 q 674 917 674 904 q 656 949 674 936 q 601 963 638 963 q 587 969 592 963 q 582 986 582 976 q 587 1001 582 994 q 601 1008 592 1008 q 653 1006 615 1008 q 761 1004 690 1004 q 868 1006 833 1004 q 917 1008 903 1008 q 931 1001 926 1008 q 936 986 936 994 q 931 969 936 976 q 917 963 926 963 q 843 940 885 963 q 758 883 801 918 q 674 808 714 847 q 602 739 651 789 q 489 624 553 689 q 485 596 475 611 q 522 545 493 585 q 590 451 550 506 q 670 341 629 397 q 746 238 711 285 q 799 165 781 190 q 865 83 832 119 q 951 46 897 46 q 965 39 960 46 q 971 22 971 32 q 951 0 971 0 q 902 1 938 0 q 794 3 867 3 q 690 1 735 3 q 631 0 646 0 q 611 22 611 0 q 616 39 611 32 q 631 46 621 46 q 681 51 663 46 q 699 71 699 57 q 672 125 699 88 q 635 177 663 139 q 573 265 608 215 q 502 364 538 314 q 438 453 467 414 q 399 510 410 493 q 372 508 389 525 q 335 471 354 490 q 308 443 315 451 q 296 411 296 431 l 296 131 q 324 60 296 74 q 400 46 353 46 q 415 39 410 46 q 419 22 419 32 q 400 0 419 0 q 360 1 392 0 q 292 2 328 1 q 233 3 256 3 q 176 2 213 3 q 109 1 140 1 q 68 0 78 0 z "},"O":{"ha":1004,"x_min":58,"x_max":938,"o":"m 497 -17 q 328 19 407 -17 q 188 124 249 56 q 93 289 128 193 q 58 503 58 385 q 94 718 58 622 q 192 883 131 814 q 333 988 254 951 q 497 1025 411 1025 q 663 988 583 1025 q 803 883 742 951 q 901 718 865 814 q 938 503 938 622 q 903 289 938 385 q 808 124 868 193 q 667 19 747 56 q 497 -17 588 -17 m 497 32 q 640 76 574 32 q 747 222 706 119 q 788 503 788 325 q 747 784 788 681 q 640 931 706 888 q 497 975 574 975 q 356 931 422 975 q 249 784 290 888 q 208 503 208 681 q 249 222 208 325 q 356 76 290 119 q 497 32 422 32 z "},"a":{"ha":643,"x_min":67,"x_max":647,"o":"m 238 -17 q 153 4 193 -17 q 90 62 114 25 q 67 147 67 99 q 113 267 67 219 q 235 340 158 315 q 403 364 311 364 q 418 378 418 364 l 418 417 q 390 526 418 486 q 308 565 361 565 q 248 554 267 565 q 240 517 229 543 q 235 449 258 478 q 174 421 213 421 q 124 442 143 421 q 106 489 106 463 q 131 548 106 519 q 203 595 156 576 q 315 614 250 614 q 483 564 431 614 q 535 425 535 514 l 535 156 q 547 87 535 108 q 578 65 560 65 q 606 76 594 65 q 636 75 619 90 q 636 47 647 64 q 599 8 622 26 q 538 -10 576 -10 q 476 10 504 -10 q 432 64 449 29 q 411 65 424 81 q 375 31 400 50 q 315 -3 350 11 q 238 -17 281 -17 m 300 58 q 364 79 338 58 q 404 129 390 100 q 418 185 418 158 l 418 301 q 400 321 418 321 q 251 286 307 321 q 196 169 196 251 q 215 97 196 121 q 259 65 235 72 q 300 58 283 58 z "},"b":{"ha":726,"x_min":50,"x_max":682,"o":"m 413 -17 q 304 10 344 -17 q 244 60 264 38 q 229 70 235 71 q 218 63 224 69 q 197 31 213 54 q 174 -3 181 7 q 152 -8 168 -12 q 138 10 136 -4 q 144 74 139 25 q 150 185 150 124 l 150 893 q 144 940 150 928 q 119 953 138 951 q 93 958 110 956 q 68 961 76 960 q 50 983 50 963 q 55 999 50 992 q 69 1006 60 1006 q 96 1006 74 1006 q 147 1007 118 1007 q 201 1008 176 1007 q 233 1008 225 1008 q 264 975 264 1008 l 264 547 q 270 538 264 540 q 283 546 276 536 q 338 589 300 564 q 442 614 375 614 q 522 599 479 614 q 600 550 564 585 q 659 456 636 515 q 682 307 682 397 q 655 153 682 215 q 585 54 628 92 q 496 0 542 17 q 413 -17 450 -17 m 403 31 q 487 56 453 31 q 538 141 521 81 q 556 307 556 201 q 537 468 556 413 q 486 545 518 524 q 414 567 454 567 q 347 547 382 567 q 287 485 311 528 q 263 371 263 442 l 263 244 q 303 81 263 131 q 403 31 343 31 z "},"c":{"ha":642,"x_min":67,"x_max":619,"o":"m 358 -17 q 219 16 286 -17 q 110 116 153 49 q 67 288 67 183 q 106 449 67 375 q 215 569 144 524 q 378 614 285 614 q 474 597 428 614 q 549 549 519 581 q 579 472 579 517 q 556 410 579 439 q 499 381 533 381 q 447 399 469 381 q 424 447 424 417 q 463 514 424 486 q 462 544 479 526 q 386 561 444 561 q 329 548 361 561 q 267 503 297 535 q 219 419 238 472 q 200 288 200 367 q 251 110 200 176 q 381 44 303 44 q 472 67 433 44 q 534 122 510 90 q 568 175 558 153 q 600 186 578 196 q 613 158 619 178 q 572 85 601 126 q 492 14 543 44 q 358 -17 440 -17 z "},"d":{"ha":722,"x_min":67,"x_max":694,"o":"m 315 -17 q 203 14 261 -17 q 106 110 146 44 q 67 285 67 176 q 91 431 67 368 q 153 533 115 493 q 233 594 190 574 q 311 614 275 614 q 413 592 374 614 q 476 546 451 569 q 489 541 485 538 q 493 553 493 544 l 493 893 q 484 936 493 922 q 451 953 475 950 q 422 958 442 956 q 393 961 401 960 q 375 983 375 964 q 381 999 375 992 q 394 1006 386 1006 q 424 1006 399 1006 q 481 1007 449 1007 q 541 1008 514 1007 q 575 1008 568 1008 q 607 975 607 1008 l 607 117 q 613 70 607 82 q 638 54 619 58 q 658 51 646 53 q 676 47 669 50 q 694 25 694 46 q 675 3 694 3 q 650 2 671 3 q 603 1 629 1 q 553 1 576 1 q 524 0 531 0 q 492 29 492 0 l 492 64 q 488 73 492 72 q 476 67 483 74 q 444 34 465 54 q 392 -1 424 14 q 315 -17 361 -17 m 343 36 q 412 60 378 36 q 469 128 446 83 q 493 236 493 174 l 493 392 q 476 473 493 435 q 425 535 458 511 q 344 560 392 560 q 226 482 261 560 q 192 276 192 404 q 206 148 192 196 q 244 76 221 100 q 294 44 268 51 q 343 36 321 36 z "},"e":{"ha":669,"x_min":67,"x_max":622,"o":"m 369 -17 q 210 24 279 -17 q 104 133 142 64 q 67 289 67 201 q 88 408 67 350 q 149 512 110 465 q 243 586 189 558 q 361 614 297 614 q 478 585 429 614 q 558 510 526 556 q 606 416 590 465 q 621 326 621 367 q 596 306 621 306 l 222 306 q 204 301 208 306 q 200 286 200 297 q 225 142 200 194 q 292 67 250 89 q 382 44 333 44 q 469 63 432 44 q 532 104 507 81 q 571 146 557 128 q 604 151 585 165 q 611 121 622 140 q 566 65 597 97 q 486 8 535 32 q 369 -17 438 -17 m 226 360 l 458 360 q 485 383 485 360 q 474 465 485 422 q 435 538 463 508 q 358 568 407 568 q 287 540 317 568 q 238 469 257 513 q 210 378 219 426 q 226 360 206 360 z "},"g":{"ha":725,"x_min":67,"x_max":707,"o":"m 347 -264 q 178 -245 239 -264 q 92 -192 117 -226 q 67 -112 67 -158 q 97 -32 67 -62 q 164 14 126 -1 q 170 22 171 17 q 164 28 169 26 q 103 65 128 43 q 79 124 79 88 q 103 185 79 163 q 153 217 126 207 q 189 229 181 226 q 190 247 206 236 q 125 317 149 275 q 101 407 101 360 q 134 511 101 464 q 223 586 167 558 q 347 614 279 614 q 434 601 393 614 q 507 565 475 589 q 532 567 522 556 q 569 603 543 582 q 635 625 596 625 q 691 603 675 625 q 707 561 707 581 q 693 524 707 543 q 650 504 679 504 q 620 515 631 504 q 601 535 610 525 q 575 544 592 544 q 563 540 567 544 q 556 533 558 536 q 558 517 550 525 q 593 407 593 469 q 560 303 593 350 q 472 228 528 256 q 347 200 417 200 q 281 201 313 200 q 228 203 249 203 q 183 193 201 203 q 165 164 165 183 q 199 132 165 143 q 283 116 233 121 q 381 109 332 111 q 460 103 429 107 q 599 54 546 93 q 651 -60 651 15 q 571 -214 651 -164 q 347 -264 490 -264 m 343 -222 q 519 -185 461 -222 q 576 -106 576 -147 q 546 -48 576 -69 q 468 -15 515 -26 q 372 1 421 -4 q 285 7 322 6 q 252 7 267 8 q 235 4 238 6 q 183 -37 208 -6 q 157 -108 157 -68 q 206 -192 157 -161 q 343 -222 254 -222 m 347 240 q 440 287 407 240 q 472 407 472 333 q 440 528 472 481 q 347 575 407 575 q 255 528 288 575 q 222 407 222 481 q 255 287 222 333 q 347 240 288 240 z "},"h":{"ha":717,"x_min":44,"x_max":681,"o":"m 72 0 q 58 7 63 0 q 53 22 53 14 q 58 39 53 32 q 72 46 63 46 q 133 60 121 46 q 146 114 146 75 l 146 893 q 139 940 146 928 q 114 953 132 951 q 88 956 104 954 q 63 960 71 958 q 44 982 44 963 q 50 999 44 992 q 64 1006 56 1006 q 91 1006 68 1006 q 143 1007 114 1007 q 197 1008 172 1007 q 228 1008 221 1008 q 260 975 260 1008 l 260 515 q 263 510 260 511 q 271 514 267 508 q 345 583 301 551 q 447 614 389 614 q 531 597 492 614 q 594 534 569 581 q 618 400 618 488 l 618 117 q 627 61 618 76 q 661 46 636 46 q 676 39 671 46 q 681 22 681 32 q 676 7 681 14 q 661 0 671 0 q 620 1 647 0 q 561 3 593 3 q 497 1 528 3 q 450 0 465 0 q 436 7 442 0 q 431 22 431 14 q 436 39 431 32 q 450 46 442 46 q 497 60 489 46 q 504 114 504 75 l 504 389 q 479 505 504 469 q 403 540 454 540 q 335 519 368 540 q 281 462 303 497 q 260 382 260 426 l 260 117 q 272 61 260 76 q 317 46 283 46 q 331 39 326 46 q 336 22 336 32 q 331 7 336 14 q 317 0 326 0 q 269 1 303 0 q 203 3 236 3 q 128 1 169 3 q 72 0 88 0 z "},"i":{"ha":400,"x_min":61,"x_max":360,"o":"m 89 0 q 69 22 69 0 q 89 44 69 44 q 150 61 138 44 q 163 115 163 78 l 163 482 q 156 528 163 517 q 131 542 149 540 q 104 546 121 544 q 79 549 88 547 q 61 572 61 553 q 67 588 61 581 q 81 594 72 594 q 108 595 85 594 q 160 596 131 596 q 213 597 189 596 q 244 597 238 597 q 276 564 276 597 l 276 115 q 288 61 276 78 q 340 44 300 44 q 360 22 360 44 q 340 0 360 0 q 289 1 326 0 q 219 3 251 3 q 145 1 186 3 q 89 0 104 0 m 210 796 q 156 819 178 796 q 133 872 133 842 q 156 926 133 904 q 210 949 178 949 q 264 926 242 949 q 286 872 286 904 q 264 819 286 842 q 210 796 242 796 z "},"j":{"ha":397,"x_min":11,"x_max":288,"o":"m 99 -264 q 37 -246 63 -264 q 11 -187 11 -228 q 27 -142 11 -160 q 72 -124 43 -124 q 107 -134 96 -124 q 123 -159 118 -144 q 133 -184 128 -174 q 147 -194 138 -194 q 164 -146 164 -194 l 164 482 q 157 529 164 518 q 132 542 150 540 q 106 547 122 544 q 81 550 89 549 q 63 572 63 551 q 82 594 63 594 q 109 595 86 594 q 161 596 132 596 q 215 597 190 596 q 246 597 239 597 q 278 565 278 597 l 278 4 q 230 -189 278 -114 q 99 -264 182 -264 m 211 796 q 156 819 179 796 q 133 872 133 842 q 156 926 133 904 q 211 949 179 949 q 265 926 243 949 q 288 872 288 904 q 265 819 288 842 q 211 796 243 796 z "},"k":{"ha":700,"x_min":44,"x_max":676,"o":"m 72 0 q 53 22 53 0 q 72 44 53 44 q 131 58 115 44 q 146 106 146 72 l 146 893 q 139 940 146 928 q 114 953 132 951 q 88 957 104 956 q 63 960 71 958 q 44 983 44 964 q 50 999 44 992 q 64 1006 56 1006 q 91 1006 68 1006 q 143 1007 114 1007 q 197 1008 172 1007 q 228 1008 221 1008 q 260 975 260 1008 l 260 333 q 263 327 260 329 q 271 331 267 325 q 381 431 346 399 q 426 472 417 463 q 436 481 436 481 q 460 528 461 504 q 422 551 458 551 q 408 558 414 551 q 403 575 403 565 q 408 590 403 583 q 422 597 414 597 q 469 596 438 597 q 533 594 500 594 q 592 596 565 594 q 633 597 619 597 q 648 590 643 597 q 653 575 653 583 q 648 558 653 565 q 633 551 643 551 q 559 527 603 551 q 474 464 515 503 q 449 441 468 458 q 404 400 429 424 q 401 381 394 392 q 444 318 417 360 q 501 232 471 276 q 553 153 531 188 q 579 113 575 119 q 615 64 599 83 q 657 44 632 44 q 676 22 676 44 q 657 0 676 0 q 616 1 643 0 q 556 3 589 3 q 491 1 522 3 q 446 0 460 0 q 426 22 426 0 q 446 44 426 44 q 472 56 469 44 q 465 82 475 68 q 449 106 463 85 q 415 158 435 128 q 374 219 394 189 q 338 274 353 250 q 317 306 322 299 q 301 307 313 315 q 295 301 301 307 q 268 276 289 296 q 261 263 263 271 q 260 249 260 256 l 260 107 q 274 56 260 67 q 317 44 289 44 q 336 22 336 44 q 317 0 336 0 q 269 1 303 0 q 203 3 236 3 q 128 1 169 3 q 72 0 88 0 z "},"l":{"ha":400,"x_min":61,"x_max":367,"o":"m 89 0 q 69 22 69 0 q 89 44 69 44 q 150 60 138 44 q 163 114 163 75 l 163 893 q 156 940 163 928 q 131 953 149 951 q 104 957 121 956 q 79 960 88 958 q 61 983 61 964 q 67 999 61 992 q 81 1006 72 1006 q 108 1006 85 1006 q 160 1007 131 1007 q 213 1008 189 1007 q 244 1008 238 1008 q 276 975 276 1008 l 276 117 q 290 60 276 76 q 347 44 303 44 q 367 22 367 44 q 347 0 367 0 q 292 1 333 0 q 219 3 251 3 q 145 1 186 3 q 89 0 104 0 z "},"m":{"ha":1033,"x_min":54,"x_max":999,"o":"m 75 0 q 56 22 56 0 q 75 44 56 44 q 129 60 117 44 q 142 114 142 75 l 142 485 q 138 524 142 511 q 117 542 133 538 q 94 546 107 544 q 72 549 81 547 q 54 571 54 553 q 59 588 54 581 q 74 594 64 594 q 97 595 78 594 q 142 596 117 596 q 188 597 167 596 q 218 597 210 597 q 249 564 249 597 l 249 518 q 253 513 249 514 q 261 517 257 511 q 324 583 285 551 q 425 614 364 614 q 517 590 474 614 q 582 507 560 567 q 589 500 585 500 q 596 506 593 500 q 631 553 608 528 q 688 596 653 578 q 771 614 722 614 q 888 572 842 614 q 935 421 935 529 l 935 117 q 945 60 935 76 q 981 44 956 44 q 999 22 999 44 q 981 0 999 0 q 939 1 967 0 q 878 3 911 3 q 813 1 844 3 q 767 0 781 0 q 747 22 747 0 q 767 44 747 44 q 810 60 800 44 q 821 114 821 75 l 821 400 q 797 503 821 474 q 726 532 774 532 q 660 508 690 532 q 613 444 631 483 q 594 356 594 404 l 594 117 q 607 60 594 76 q 650 44 619 44 q 669 22 669 44 q 650 0 669 0 q 603 1 636 0 q 536 3 569 3 q 469 1 504 3 q 418 0 433 0 q 399 22 399 0 q 418 44 399 44 q 470 60 460 44 q 481 114 481 75 l 481 400 q 454 503 481 471 q 381 535 428 535 q 291 490 326 535 q 256 381 256 446 l 256 117 q 268 60 256 76 q 315 44 281 44 q 333 22 333 44 q 315 0 333 0 q 267 1 301 0 q 199 3 232 3 q 128 1 165 3 q 75 0 90 0 z "},"n":{"ha":718,"x_min":58,"x_max":690,"o":"m 79 0 q 60 22 60 0 q 79 44 60 44 q 133 60 121 44 q 146 114 146 75 l 146 485 q 143 523 146 508 q 121 542 140 538 q 98 547 111 544 q 76 550 85 549 q 58 572 58 551 q 63 588 58 581 q 78 594 68 594 q 102 595 82 594 q 148 596 122 596 q 196 597 174 596 q 225 597 218 597 q 257 564 257 597 l 257 514 q 260 509 257 510 q 269 514 264 508 q 340 582 296 550 q 442 614 385 614 q 526 598 486 614 q 592 540 567 582 q 618 421 618 499 l 618 117 q 629 60 618 76 q 671 44 640 44 q 690 22 690 44 q 671 0 690 0 q 625 1 657 0 q 561 3 593 3 q 497 1 528 3 q 450 0 465 0 q 431 22 431 0 q 450 44 431 44 q 497 60 489 44 q 504 114 504 75 l 504 404 q 478 505 504 475 q 404 535 453 535 q 335 513 368 535 q 281 453 301 490 q 260 372 260 417 l 260 117 q 269 60 260 76 q 308 44 279 44 q 328 22 328 44 q 308 0 328 0 q 265 1 294 0 q 203 3 236 3 q 131 1 169 3 q 79 0 93 0 z "},"o":{"ha":682,"x_min":63,"x_max":642,"o":"m 351 -17 q 206 26 272 -17 q 101 141 140 69 q 63 299 63 213 q 101 456 63 385 q 206 571 140 528 q 351 614 272 614 q 498 571 432 614 q 603 456 564 528 q 642 299 642 385 q 603 141 642 213 q 498 26 564 69 q 351 -17 432 -17 m 351 26 q 468 101 429 26 q 507 299 507 176 q 468 496 507 421 q 351 571 429 571 q 235 496 275 571 q 196 299 196 421 q 235 101 196 176 q 351 26 275 26 z "},"p":{"ha":717,"x_min":53,"x_max":676,"o":"m 72 -262 q 53 -240 53 -262 q 72 -218 53 -218 q 133 -201 121 -218 q 146 -147 146 -185 l 146 482 q 140 526 146 515 q 115 542 133 538 q 95 547 107 544 q 76 550 83 549 q 58 572 58 551 q 63 588 58 581 q 78 594 68 594 q 102 595 82 594 q 149 596 122 596 q 197 597 175 596 q 226 597 219 597 q 258 568 258 597 l 258 528 q 263 518 258 519 q 274 524 268 517 q 305 559 285 538 q 357 597 325 581 q 432 614 389 614 q 547 583 490 614 q 640 485 603 553 q 676 310 676 418 q 638 126 676 199 q 543 18 599 53 q 435 -17 488 -17 q 339 6 375 -17 q 278 51 303 28 q 264 56 268 60 q 260 46 260 53 l 260 -150 q 277 -203 260 -189 q 342 -218 294 -218 q 361 -240 361 -218 q 342 -262 361 -262 q 308 -262 332 -262 q 254 -260 283 -261 q 203 -260 225 -260 q 128 -261 169 -260 q 72 -262 88 -262 m 400 36 q 518 113 485 36 q 551 318 551 190 q 529 476 551 425 q 474 544 507 528 q 410 561 442 561 q 342 537 376 561 q 283 467 307 513 q 260 360 260 422 l 260 193 q 277 122 260 158 q 326 60 294 85 q 400 36 357 36 z "},"q":{"ha":697,"x_min":67,"x_max":697,"o":"m 410 -264 q 395 -257 400 -264 q 390 -240 390 -250 q 410 -218 390 -218 q 470 -201 457 -218 q 483 -147 483 -185 l 483 49 q 478 59 483 58 q 467 53 474 60 q 413 9 451 35 q 307 -17 375 -17 q 228 -2 269 -17 q 149 48 186 13 q 90 143 113 83 q 67 292 67 203 q 94 441 67 379 q 165 541 122 503 q 253 597 207 579 q 338 614 300 614 q 415 600 383 614 q 469 567 447 586 q 503 533 490 549 q 528 531 518 514 q 549 563 533 538 q 569 597 564 588 q 592 603 576 607 q 606 583 607 599 q 601 518 604 569 q 597 371 597 467 l 597 -150 q 614 -203 597 -189 q 678 -218 631 -218 q 697 -240 697 -218 q 692 -257 697 -250 q 678 -264 688 -264 q 644 -262 669 -264 q 590 -260 619 -261 q 539 -260 561 -260 q 491 -260 518 -260 q 442 -262 464 -261 q 410 -264 419 -264 m 336 31 q 403 51 368 31 q 461 116 438 72 q 485 231 485 160 l 485 353 q 446 516 485 465 q 347 567 407 567 q 231 506 271 567 q 192 292 192 444 q 211 130 192 186 q 263 52 231 74 q 336 31 296 31 z "},"r":{"ha":622,"x_min":42,"x_max":607,"o":"m 68 0 q 50 22 50 0 q 68 44 50 44 q 142 60 121 44 q 163 114 163 75 l 163 482 q 157 525 163 510 q 135 542 151 540 q 97 546 124 543 q 60 550 69 549 q 42 572 42 551 q 61 596 42 593 q 90 596 65 596 q 147 597 115 596 q 204 597 178 597 q 239 597 231 597 q 269 565 269 597 l 269 493 q 274 488 269 489 q 282 492 278 486 q 333 547 304 519 q 397 594 361 575 q 476 614 433 614 q 574 586 542 614 q 607 514 607 558 q 588 463 607 489 q 532 438 569 438 q 474 460 489 438 q 458 497 458 482 q 458 510 458 501 q 455 545 458 533 q 431 557 451 557 q 377 535 404 557 q 327 477 350 513 q 290 400 304 442 q 276 319 276 358 l 276 117 q 302 60 276 76 q 374 44 328 44 q 393 22 393 44 q 374 0 393 0 q 324 1 360 0 q 219 3 289 3 q 122 1 161 3 q 68 0 83 0 z "},"s":{"ha":656,"x_min":90,"x_max":606,"o":"m 367 -17 q 278 -5 321 -17 q 204 22 236 7 q 154 22 174 36 q 142 11 149 18 q 129 -1 135 4 q 103 -9 117 -14 q 90 14 90 -4 l 90 179 q 105 199 90 196 q 128 189 119 201 q 233 77 175 113 q 369 42 290 42 q 473 68 431 42 q 515 144 515 94 q 485 201 515 182 q 408 232 456 221 q 309 255 361 243 q 210 287 257 267 q 133 344 163 307 q 103 443 103 381 q 124 525 103 486 q 192 589 146 564 q 311 614 239 614 q 391 604 354 614 q 458 582 428 594 q 508 578 496 568 q 522 588 514 582 q 535 600 529 594 q 556 606 546 608 q 565 586 565 603 l 565 440 q 550 420 565 424 q 529 431 535 417 q 444 534 499 506 q 331 563 389 563 q 230 533 264 563 q 196 467 196 503 q 226 414 196 432 q 302 385 256 396 q 401 365 349 375 q 499 334 453 354 q 576 276 546 314 q 606 174 606 239 q 542 39 606 94 q 367 -17 479 -17 z "},"t":{"ha":494,"x_min":46,"x_max":481,"o":"m 285 -17 q 223 -6 254 -17 q 171 31 192 6 q 150 103 150 57 l 150 533 q 139 544 150 544 l 65 544 q 46 564 46 544 l 46 572 q 65 592 46 588 q 162 666 131 611 q 203 810 193 721 q 222 829 203 829 l 243 829 q 264 810 264 829 l 264 608 q 275 597 264 597 l 414 597 q 428 591 422 597 q 433 578 433 585 l 433 564 q 414 544 433 544 l 275 544 q 264 533 264 544 l 264 144 q 336 69 264 69 q 393 92 369 69 q 431 142 417 115 q 446 153 438 153 q 464 147 454 153 q 471 117 481 138 q 435 56 458 86 q 376 4 413 25 q 285 -17 340 -17 z "},"u":{"ha":714,"x_min":51,"x_max":697,"o":"m 319 -17 q 190 32 239 -17 q 142 174 142 81 l 142 482 q 136 525 142 510 q 111 543 131 540 q 89 546 100 544 q 69 549 78 547 q 51 572 51 553 q 56 588 51 581 q 71 594 61 594 q 96 595 75 594 q 144 596 117 596 q 194 597 171 596 q 224 597 217 597 q 256 564 256 597 l 256 194 q 288 98 256 129 q 375 67 321 67 q 474 110 442 67 q 506 210 506 153 l 506 482 q 500 525 506 510 q 475 543 494 540 q 453 546 464 544 q 433 549 442 547 q 415 572 415 553 q 420 588 415 581 q 435 594 425 594 q 460 595 439 594 q 508 596 481 596 q 558 597 535 596 q 588 597 581 597 q 619 564 619 597 l 619 113 q 626 70 619 81 q 650 54 632 60 q 665 51 657 53 q 679 47 672 50 q 697 25 697 43 q 678 1 697 4 q 643 1 672 1 q 583 1 614 1 q 542 0 553 0 q 511 29 511 0 q 509 51 510 36 q 508 74 508 65 q 492 76 506 93 q 460 42 482 64 q 405 1 439 19 q 319 -17 371 -17 z "},"v":{"ha":671,"x_min":36,"x_max":653,"o":"m 343 -17 q 312 -9 321 -17 q 299 13 303 -1 q 283 59 296 24 q 252 144 269 94 q 215 248 235 193 q 177 353 194 303 q 147 438 160 403 q 131 482 135 472 q 100 535 117 518 q 56 551 83 551 q 41 558 46 551 q 36 575 36 565 q 41 590 36 583 q 56 597 46 597 q 97 595 69 597 q 158 593 125 593 q 227 595 190 593 q 278 597 264 597 q 292 590 288 597 q 297 575 297 583 q 292 558 297 565 q 278 551 288 551 q 245 540 253 551 q 243 510 238 528 q 260 461 246 500 q 292 370 274 422 q 327 267 310 318 q 357 180 344 215 q 371 139 369 144 q 380 131 374 131 q 388 138 386 132 q 403 181 392 149 q 431 257 415 214 q 460 343 446 300 q 487 419 475 386 q 501 461 499 451 q 492 531 517 510 q 439 551 468 551 q 424 558 429 551 q 419 575 419 565 q 424 590 419 583 q 439 597 429 597 q 476 595 453 597 q 533 593 500 593 q 593 595 567 593 q 633 597 619 597 q 648 590 643 597 q 653 575 653 583 q 648 558 653 565 q 633 551 643 551 q 586 528 611 551 q 539 444 561 506 q 522 394 536 436 q 486 295 507 353 q 444 178 465 238 q 407 72 424 118 q 385 11 390 26 q 343 -17 376 -17 z "},"w":{"ha":931,"x_min":39,"x_max":913,"o":"m 289 -17 q 251 13 261 -17 q 239 55 249 21 q 216 138 229 89 q 188 242 203 188 q 158 346 172 296 q 133 432 143 396 q 119 479 124 468 q 96 535 107 519 q 58 551 85 551 q 44 558 49 551 q 39 575 39 565 q 44 590 39 583 q 58 597 49 597 q 99 595 72 597 q 158 593 125 593 q 221 595 192 593 q 264 597 250 597 q 278 590 274 597 q 283 575 283 583 q 278 558 283 565 q 264 551 274 551 q 230 539 240 551 q 225 507 219 526 q 238 460 228 497 q 260 373 247 422 q 286 276 274 324 q 308 194 299 228 q 318 156 317 160 q 327 147 321 147 q 335 153 333 147 q 348 193 338 163 q 372 265 358 224 q 397 348 385 307 q 420 420 410 389 q 433 461 431 451 q 431 531 449 510 q 385 551 414 551 q 370 558 375 551 q 365 575 365 565 q 370 590 365 583 q 385 597 375 597 q 422 595 399 597 q 479 593 446 593 q 540 595 513 593 q 582 597 568 597 q 597 590 592 597 q 601 575 601 583 q 597 558 601 565 q 582 551 592 551 q 555 538 561 551 q 553 510 549 524 q 569 461 557 499 q 598 374 582 424 q 630 276 614 325 q 657 194 646 228 q 669 156 668 160 q 677 147 672 147 q 683 153 682 147 q 694 192 686 161 q 714 263 703 222 q 737 346 725 304 q 757 419 749 388 q 768 461 765 451 q 763 531 782 510 q 713 551 743 551 q 698 558 703 551 q 693 575 693 565 q 698 590 693 583 q 713 597 703 597 q 751 595 728 597 q 808 593 775 593 q 860 595 840 593 q 893 597 879 597 q 908 590 903 597 q 913 575 913 583 q 908 558 913 565 q 893 551 903 551 q 846 524 871 551 q 803 436 821 497 q 788 383 800 426 q 758 280 775 339 q 726 162 742 221 q 698 61 710 103 q 683 11 686 19 q 671 -10 679 -3 q 644 -17 663 -17 q 608 13 618 -17 q 592 63 606 22 q 560 158 578 103 q 525 268 543 213 q 493 363 507 324 q 476 413 479 403 q 469 421 475 421 q 460 414 463 421 q 437 343 451 388 q 406 247 422 299 q 373 147 389 196 q 344 61 357 97 q 328 11 332 25 q 315 -10 322 -3 q 289 -17 307 -17 z "},"─":{"ha":1389,"x_min":0,"x_max":1389,"o":"m 0 500 l 0 556 l 1389 556 l 1389 500 l 0 500 z "},"　":{"ha":1389,"x_min":0,"x_max":0,"o":""},"、":{"ha":1389,"x_min":85,"x_max":488,"o":"m 431 -72 q 398 -78 414 -81 q 368 -57 382 -76 q 241 101 315 25 q 89 229 167 178 q 88 245 85 238 q 99 256 92 253 q 229 233 161 250 q 357 188 297 217 q 453 113 417 158 q 484 40 481 78 q 473 -29 488 1 q 431 -72 458 -60 z "},"。":{"ha":1389,"x_min":88,"x_max":497,"o":"m 292 -79 q 190 -51 236 -79 q 115 23 143 -24 q 88 126 88 69 q 115 229 88 183 q 190 303 143 275 q 292 331 236 331 q 395 303 349 331 q 469 229 442 275 q 497 126 497 183 q 469 23 497 69 q 395 -51 442 -24 q 292 -79 349 -79 m 292 -26 q 397 19 354 -26 q 439 126 439 64 q 397 233 439 188 q 292 278 354 278 q 188 233 231 278 q 146 126 146 188 q 188 19 146 64 q 292 -26 231 -26 z "},"々":{"ha":1389,"x_min":103,"x_max":1150,"o":"m 951 97 q 927 97 940 93 q 896 125 914 100 q 790 252 843 201 q 681 338 738 303 q 560 403 625 374 q 559 419 556 411 q 569 429 563 426 q 676 397 618 418 q 788 350 735 376 q 843 422 811 379 q 905 508 875 465 q 951 582 935 551 q 936 608 967 608 q 837 597 892 608 q 731 585 782 585 q 699 592 713 585 q 674 608 685 599 q 552 463 621 538 q 408 321 483 389 q 259 197 332 253 q 124 108 186 142 q 107 132 103 113 q 253 252 174 179 q 411 414 332 325 q 557 599 490 503 q 664 788 624 694 q 675 858 682 829 q 635 917 668 888 q 653 939 635 939 q 701 916 671 932 q 761 883 732 900 q 806 851 790 865 q 828 806 832 828 q 797 775 824 783 q 768 753 779 769 q 743 713 757 738 q 726 683 735 699 q 706 651 717 667 q 723 650 714 650 q 740 650 732 650 q 835 656 778 650 q 936 667 893 661 q 969 676 958 669 q 990 693 979 682 q 1012 708 1003 707 q 1035 697 1021 708 q 1091 647 1058 679 q 1143 590 1124 614 q 1149 574 1150 582 q 1144 560 1149 567 q 1111 553 1136 547 q 1056 538 1081 560 q 982 470 1024 508 q 899 395 940 432 q 826 331 858 358 q 901 284 868 308 q 951 236 933 260 q 978 177 974 207 q 974 126 982 147 q 951 97 967 104 z "},"「":{"ha":1389,"x_min":858,"x_max":1269,"o":"m 858 379 l 858 1156 l 1269 1156 l 1269 1094 l 928 1094 l 928 379 l 858 379 z "},"」":{"ha":1389,"x_min":119,"x_max":531,"o":"m 119 -100 l 119 -39 l 461 -39 l 461 676 l 531 676 l 531 -100 l 119 -100 z "},"〜":{"ha":1389,"x_min":163,"x_max":1226,"o":"m 996 379 q 897 383 936 375 q 808 415 857 392 q 763 439 796 422 q 690 476 729 456 q 617 513 650 496 q 571 538 583 531 q 479 574 524 561 q 385 585 435 588 q 276 543 325 582 q 193 458 226 504 q 172 463 181 457 q 163 479 164 469 q 194 531 174 500 q 243 594 214 563 q 310 649 272 626 q 392 674 347 672 q 492 669 453 676 q 579 638 532 661 q 623 615 590 632 q 696 578 656 599 q 770 540 736 558 q 818 515 804 522 q 910 478 865 490 q 1003 468 954 465 q 1113 510 1064 471 q 1196 594 1163 549 q 1216 591 1207 597 q 1226 574 1225 585 q 1195 522 1215 553 q 1146 458 1175 490 q 1079 404 1117 426 q 996 379 1042 382 z "},"あ":{"ha":1389,"x_min":158,"x_max":1228,"o":"m 619 -40 q 610 -21 611 -32 q 618 -3 610 -10 q 725 19 661 4 q 857 62 789 35 q 985 130 925 89 q 1082 228 1044 171 q 1119 364 1119 286 q 1059 549 1119 475 q 876 639 999 622 q 838 540 867 593 q 769 435 808 488 q 685 333 729 382 q 701 308 693 319 q 715 288 708 296 q 726 255 725 278 q 717 212 726 232 q 683 192 707 192 q 642 208 660 192 q 614 250 625 225 q 613 255 613 253 q 611 258 613 257 q 440 133 526 181 q 275 74 353 85 q 158 163 158 58 q 190 296 158 228 q 276 428 221 364 q 403 548 331 493 q 557 640 475 603 l 557 690 q 557 746 557 719 q 558 796 557 772 q 502 791 528 793 q 456 789 476 789 q 362 813 397 789 q 309 874 326 836 q 288 953 292 913 q 315 957 300 969 q 358 890 329 918 q 451 861 388 861 q 504 864 476 861 q 561 869 532 867 q 568 951 564 918 q 574 1006 572 983 q 561 1056 579 1044 q 540 1060 554 1060 q 517 1060 525 1061 q 515 1089 500 1074 q 569 1096 538 1096 q 622 1089 600 1096 q 670 1057 651 1082 q 669 1010 689 1032 q 631 881 643 978 q 768 912 700 893 q 888 950 836 931 q 914 957 901 956 q 950 949 926 958 q 992 905 992 932 q 961 869 993 878 q 870 847 926 860 q 750 824 814 835 q 624 803 686 813 q 619 690 619 751 l 619 665 q 715 690 667 681 q 810 699 763 699 l 821 699 q 806 726 818 715 q 778 743 793 738 q 793 776 768 769 q 823 765 804 774 q 858 741 842 757 q 879 696 875 725 q 1051 647 972 686 q 1179 537 1131 607 q 1228 364 1228 467 q 1149 156 1228 242 q 933 22 1071 71 q 619 -40 796 -26 m 314 174 q 443 225 371 186 q 589 331 515 264 q 558 575 565 424 q 403 469 474 532 q 292 342 333 407 q 250 221 250 276 q 314 174 250 160 m 657 400 q 758 526 714 464 q 817 643 803 588 l 810 643 q 622 604 717 643 q 635 488 626 539 q 657 400 644 438 z "},"い":{"ha":1389,"x_min":208,"x_max":1207,"o":"m 451 79 q 353 119 400 76 q 276 244 307 161 q 238 449 244 328 q 237 542 236 497 q 239 632 238 588 q 242 732 242 682 q 240 835 243 782 q 228 888 239 864 q 208 921 218 911 q 214 935 208 929 q 228 940 219 942 q 303 887 269 919 q 340 808 338 854 q 339 746 342 776 q 333 682 336 715 q 324 584 328 638 q 324 458 319 531 q 344 329 329 378 q 376 258 360 281 q 429 265 404 222 q 472 338 444 293 q 526 426 499 382 q 569 493 554 469 q 594 482 589 500 q 574 434 588 467 q 544 361 560 401 q 514 283 528 321 q 492 217 500 244 q 490 190 488 200 q 499 172 493 181 q 507 158 503 165 q 511 138 511 150 q 501 101 513 119 q 451 79 489 82 m 1135 329 q 1101 335 1113 328 q 1088 376 1090 343 q 1063 520 1085 450 q 995 645 1042 590 q 871 726 949 700 q 878 754 861 744 q 1044 694 969 744 q 1163 569 1119 644 q 1203 406 1207 493 q 1181 355 1201 378 q 1135 329 1161 332 z "},"う":{"ha":1389,"x_min":376,"x_max":983,"o":"m 453 -58 q 446 -22 432 -42 q 612 39 533 3 q 750 128 690 75 q 844 257 810 182 q 878 435 878 332 q 848 632 878 564 q 751 700 818 700 q 678 674 714 700 q 606 612 642 647 q 537 550 571 576 q 468 524 503 524 q 409 544 429 524 q 382 593 389 564 q 381 647 376 618 q 397 697 386 675 q 413 700 404 703 q 425 690 421 697 q 435 649 419 668 q 472 631 450 631 q 532 649 500 631 q 599 694 564 668 q 672 738 633 719 q 751 757 710 757 q 931 672 878 757 q 983 433 983 586 q 948 253 983 331 q 853 122 913 176 q 724 31 794 67 q 582 -27 653 -6 q 453 -58 511 -49 m 593 840 q 581 850 585 843 q 578 864 576 857 q 624 897 596 878 q 674 925 651 915 q 581 957 617 931 q 528 1022 546 983 q 504 1104 510 1061 q 517 1113 508 1111 q 532 1110 525 1115 q 603 1031 547 1058 q 736 1008 660 1003 q 794 999 776 1011 q 826 961 813 986 q 838 915 844 933 q 813 899 832 896 q 697 888 747 907 q 603 846 646 868 q 593 840 596 842 z "},"え":{"ha":1389,"x_min":249,"x_max":1213,"o":"m 914 -1 q 761 27 807 -1 q 717 136 715 56 q 718 165 717 150 q 721 197 719 181 q 726 269 725 233 q 714 327 726 304 q 667 350 701 350 q 600 341 624 350 q 553 310 576 332 q 438 178 492 253 q 339 42 385 104 q 313 19 326 25 q 286 15 299 14 q 253 68 249 18 q 265 119 256 101 q 300 160 274 138 q 405 259 343 199 q 536 388 467 319 q 672 520 606 457 q 790 629 739 583 q 824 661 815 651 q 832 685 832 671 q 801 711 832 711 q 725 697 767 711 q 642 662 683 683 q 567 619 601 640 q 514 586 540 606 q 463 567 488 567 q 404 588 424 567 q 378 639 385 608 q 377 696 372 667 q 392 749 382 725 q 419 742 413 758 q 426 695 414 719 q 460 671 438 671 q 542 686 497 671 q 636 722 588 701 q 734 758 685 743 q 831 774 783 774 q 916 750 889 774 q 944 686 943 726 q 932 653 946 665 q 899 631 918 642 q 885 622 892 626 q 872 614 879 618 q 753 515 817 574 q 633 403 689 456 q 630 394 628 397 q 638 392 632 390 q 655 396 644 393 q 678 399 665 399 q 754 381 728 399 q 790 336 781 364 q 800 277 800 308 q 799 217 800 246 q 797 195 797 206 q 796 176 796 185 q 824 105 796 118 q 915 92 853 92 q 1030 104 975 92 q 1115 126 1085 117 q 1143 126 1126 129 q 1190 97 1160 122 q 1212 59 1213 79 q 1181 29 1211 39 q 1073 7 1142 15 q 914 -1 1004 -1 m 599 858 q 586 868 590 861 q 583 882 582 875 q 624 912 601 896 q 669 939 647 928 q 598 988 622 951 q 564 1069 574 1024 q 590 1078 574 1088 q 661 1024 606 1047 q 790 1007 717 1001 q 844 996 818 1010 q 881 963 871 982 q 890 918 896 933 q 861 906 885 903 q 722 903 782 917 q 599 858 663 890 z "},"お":{"ha":1389,"x_min":129,"x_max":1282,"o":"m 919 56 q 778 109 831 56 q 711 232 726 163 q 724 242 715 239 q 738 240 732 244 q 811 161 765 185 q 921 138 857 138 q 992 156 958 138 q 1047 207 1025 174 q 1068 285 1068 240 q 1017 415 1068 367 q 883 463 965 463 q 708 431 794 463 q 547 354 622 399 q 566 226 554 275 q 578 163 578 178 q 566 108 578 136 q 514 64 554 81 q 462 62 485 50 q 433 110 439 74 q 401 151 431 129 q 328 186 371 172 q 302 161 314 172 q 283 143 290 150 q 233 122 263 124 q 179 147 203 119 q 145 175 161 167 q 129 207 129 183 q 206 253 129 253 q 260 249 231 253 q 357 310 300 272 q 481 386 414 347 l 481 410 q 483 529 481 471 q 486 642 485 588 q 414 632 450 636 q 346 628 378 628 q 265 649 300 628 q 213 705 231 671 q 196 776 194 739 q 224 781 208 793 q 267 716 229 738 q 350 694 306 694 q 415 701 378 694 q 489 719 451 708 q 496 821 492 776 q 503 894 500 865 q 489 943 507 935 q 468 949 482 949 q 444 949 454 950 q 444 976 429 964 q 497 984 467 983 q 550 978 528 985 q 586 960 569 974 q 609 929 603 946 q 601 897 615 913 q 577 840 588 881 q 560 743 567 800 q 638 781 608 763 q 700 758 653 789 q 719 726 718 746 q 696 696 719 707 q 551 654 644 674 q 547 543 549 601 q 546 422 546 485 q 722 501 631 468 q 900 533 813 533 q 1049 501 988 533 q 1144 412 1111 468 q 1178 285 1178 356 q 1144 170 1178 222 q 1053 87 1111 118 q 919 56 994 56 m 1101 672 q 1088 681 1093 674 q 1085 694 1083 688 q 1119 724 1097 707 q 1161 753 1142 742 q 1124 785 1150 771 q 1063 799 1099 799 q 942 776 989 799 q 854 719 894 753 q 835 740 832 722 q 885 792 851 761 q 970 847 919 822 q 1086 871 1021 871 q 1229 831 1176 871 q 1282 738 1282 790 q 1263 694 1282 707 q 1215 692 1243 682 q 1149 696 1176 706 q 1101 672 1122 686 m 453 178 q 486 196 486 153 q 485 241 486 210 q 483 311 485 272 q 420 265 450 289 q 367 221 390 242 q 453 178 418 201 z "},"か":{"ha":1389,"x_min":128,"x_max":1281,"o":"m 150 4 q 164 107 128 60 q 232 212 196 149 q 305 351 268 275 q 376 509 342 428 q 438 667 410 590 q 329 632 379 649 q 256 615 279 615 q 202 638 224 615 q 171 691 181 661 q 161 740 161 721 q 189 746 174 757 q 261 706 203 706 q 356 716 304 706 q 463 736 408 726 q 495 842 482 793 q 514 925 508 890 q 503 979 522 967 q 479 988 496 986 q 453 990 463 990 q 456 1019 440 1008 q 514 1019 481 1024 q 574 1004 547 1015 q 618 964 601 992 q 613 917 635 936 q 589 892 600 906 q 572 860 578 879 q 558 812 567 840 q 538 749 549 783 q 578 753 558 751 q 615 756 597 756 q 738 713 697 756 q 779 604 779 669 q 748 357 779 474 q 681 158 717 240 q 619 72 656 100 q 539 43 583 43 q 506 56 517 43 q 485 96 496 69 q 450 138 474 122 q 382 174 426 154 q 394 200 375 193 q 456 181 418 193 q 522 167 493 169 q 560 169 544 164 q 590 201 576 175 q 638 306 613 240 q 683 448 664 371 q 701 597 701 525 q 683 669 701 638 q 617 700 665 700 q 517 688 569 700 q 449 506 488 604 q 372 313 411 408 q 296 138 332 217 q 233 14 260 58 q 188 -22 215 -17 q 150 4 161 -26 m 1176 328 q 1147 331 1163 326 q 1117 357 1132 336 q 1081 385 1101 376 q 1007 396 1060 393 q 1011 425 994 413 q 1079 423 1044 422 q 1140 435 1114 424 q 1168 474 1165 446 q 1152 544 1172 507 q 1098 618 1132 582 q 1028 683 1064 654 q 963 729 992 713 q 979 753 960 750 q 1126 674 1057 718 q 1238 578 1194 631 q 1281 465 1281 525 q 1251 369 1281 400 q 1176 328 1221 338 z "},"が":{"ha":1389,"x_min":133,"x_max":1286,"o":"m 154 7 q 171 111 133 61 q 259 253 213 165 q 350 445 306 342 q 431 647 394 549 q 326 613 374 629 q 254 597 278 597 q 200 620 221 597 q 169 673 179 643 q 158 722 158 703 q 186 726 171 739 q 260 688 201 688 q 352 697 301 688 q 456 717 403 707 q 489 822 475 774 q 510 904 503 869 q 501 958 518 944 q 476 968 493 965 q 451 972 460 971 q 454 1000 440 988 q 513 997 481 1003 q 572 979 546 992 q 616 938 600 967 q 608 890 632 910 q 583 867 594 881 q 565 835 572 854 q 551 794 560 821 q 529 731 542 767 q 572 735 551 733 q 614 738 593 738 q 737 694 696 738 q 778 586 778 651 q 749 353 778 464 q 686 161 721 242 q 626 74 663 101 q 544 46 589 46 q 512 58 522 46 q 490 97 501 71 q 456 141 479 125 q 388 175 432 157 q 400 201 381 196 q 461 184 424 196 q 528 168 499 172 q 566 172 550 167 q 596 203 582 178 q 640 303 617 240 q 681 440 664 367 q 699 579 699 513 q 681 651 699 619 q 614 682 664 682 q 507 667 565 682 q 444 494 479 589 q 371 306 408 400 q 299 135 333 213 q 238 15 264 58 q 192 -19 219 -15 q 154 7 165 -22 m 1164 274 q 1135 276 1150 271 q 1104 301 1119 282 q 1068 329 1089 321 q 994 342 1047 338 q 999 369 982 360 q 1067 367 1032 367 q 1127 379 1101 368 q 1156 418 1153 390 q 1140 490 1160 451 q 1085 564 1119 528 q 1015 629 1051 600 q 950 675 979 658 q 953 690 949 683 q 967 699 958 697 q 1113 619 1044 664 q 1225 523 1182 575 q 1268 411 1268 471 q 1238 313 1268 344 q 1164 274 1208 282 m 1176 754 q 1157 749 1167 749 q 1136 763 1147 749 q 1056 842 1106 801 q 950 906 1007 882 q 960 932 940 925 q 1044 919 1000 931 q 1127 890 1089 908 q 1183 843 1165 871 q 1197 790 1201 817 q 1176 754 1192 764 m 1229 924 q 1133 978 1190 951 q 1014 1013 1075 1004 q 1014 1040 999 1028 q 1099 1049 1054 1049 q 1183 1043 1143 1050 q 1249 1018 1224 1036 q 1281 969 1276 999 q 1271 926 1286 940 q 1253 915 1261 917 q 1229 924 1244 914 z "},"き":{"ha":1389,"x_min":271,"x_max":1113,"o":"m 604 -46 q 422 1 490 -46 q 346 133 353 49 q 412 287 340 224 q 618 364 483 350 q 715 368 675 369 q 788 365 756 367 q 819 363 804 364 q 849 363 835 361 q 890 397 888 365 q 853 492 893 428 q 833 524 843 507 q 813 560 824 542 q 632 528 724 540 q 465 513 540 515 q 335 535 378 510 q 282 602 293 561 q 275 683 271 643 q 290 690 282 690 q 303 682 297 689 q 338 611 307 639 q 458 588 369 583 q 612 602 528 590 q 772 632 696 614 q 732 708 753 668 q 690 792 711 749 q 602 778 646 783 q 519 772 558 772 q 397 813 439 772 q 347 911 354 853 q 375 918 360 928 q 432 856 388 875 q 521 838 476 838 q 588 843 553 838 q 658 857 624 849 q 642 894 650 875 q 625 931 633 913 q 619 944 622 938 q 613 957 615 951 q 585 1006 599 989 q 540 1022 572 1024 l 506 1022 q 499 1037 499 1029 q 504 1050 499 1044 q 547 1065 519 1057 q 596 1075 575 1074 q 654 1067 633 1076 q 676 1033 675 1058 q 681 992 676 1010 q 694 949 685 975 q 709 912 701 931 q 724 875 717 893 q 809 908 771 890 q 869 939 847 925 q 902 942 883 947 q 939 928 921 938 q 963 895 967 914 q 935 865 958 876 q 857 836 904 851 q 756 807 810 821 q 798 724 776 764 q 842 649 819 685 q 943 685 900 665 q 950 694 950 688 q 943 703 950 700 q 925 709 935 706 q 901 715 915 713 q 899 732 897 724 q 910 743 901 740 q 919 742 913 743 q 958 734 936 738 q 996 732 979 731 q 1078 722 1053 735 q 1111 683 1110 706 q 1089 649 1113 661 q 886 578 1006 607 q 934 510 911 542 q 976 450 957 478 q 998 380 1000 419 q 976 310 996 340 q 934 267 957 279 q 882 253 911 254 q 840 261 851 253 q 814 283 829 269 q 742 311 792 306 q 619 310 693 317 q 521 286 567 306 q 449 233 475 267 q 425 151 422 200 q 469 84 428 108 q 596 60 510 60 q 686 67 636 60 q 764 83 736 74 q 801 78 782 89 q 839 50 821 68 q 857 10 861 31 q 826 -18 853 -11 q 726 -37 788 -29 q 604 -46 664 -46 z "},"ぎ":{"ha":1389,"x_min":263,"x_max":1292,"o":"m 596 -46 q 413 1 482 -46 q 338 133 344 49 q 403 287 332 224 q 610 364 475 350 q 707 368 667 369 q 779 365 747 367 q 811 363 796 364 q 840 363 826 361 q 882 397 879 365 q 844 492 885 428 q 825 524 835 507 q 804 560 815 542 q 623 528 715 540 q 457 513 531 515 q 327 535 369 510 q 274 602 285 561 q 267 683 263 643 q 281 690 274 690 q 294 682 289 689 q 330 611 299 639 q 450 588 361 583 q 603 602 519 590 q 764 632 686 614 q 724 708 744 668 q 682 792 703 749 q 594 778 638 783 q 511 772 550 772 q 388 813 431 772 q 339 911 346 853 q 367 918 350 928 q 424 856 379 875 q 513 838 468 838 q 580 843 544 838 q 650 857 615 849 q 633 894 642 875 q 615 931 625 913 q 610 942 613 936 q 606 954 607 949 q 577 1006 590 988 q 532 1022 564 1024 l 497 1022 q 490 1037 490 1029 q 496 1050 490 1044 q 538 1065 511 1057 q 586 1075 565 1074 q 646 1067 625 1076 q 668 1033 667 1058 q 672 992 668 1010 q 686 949 676 975 q 701 911 693 929 q 715 875 708 893 q 801 908 763 890 q 861 939 839 925 q 893 942 874 947 q 931 928 913 938 q 953 895 958 914 q 925 865 949 876 q 849 836 896 851 q 747 807 801 821 q 790 724 768 764 q 832 649 811 685 q 933 685 892 665 q 942 694 942 688 q 935 703 942 700 q 917 709 926 706 q 893 715 907 713 q 900 743 883 736 q 908 742 903 743 q 947 734 925 738 q 988 732 969 731 q 1069 722 1044 735 q 1103 683 1101 706 q 1081 649 1104 661 q 878 578 997 607 q 926 510 903 542 q 968 450 949 478 q 990 380 992 419 q 968 310 988 340 q 925 267 949 279 q 874 253 901 254 q 832 261 843 253 q 806 283 821 269 q 734 311 783 306 q 611 310 685 317 q 513 286 558 306 q 440 233 467 267 q 417 151 414 200 q 460 84 419 108 q 586 60 501 60 q 677 67 626 60 q 756 83 728 74 q 793 78 774 89 q 831 50 813 68 q 849 10 853 31 q 818 -18 844 -11 q 717 -37 779 -29 q 596 -46 656 -46 m 1174 825 q 1133 833 1151 811 q 1056 919 1101 878 q 953 982 1010 960 q 951 999 949 990 q 961 1010 954 1007 q 1088 981 1025 1004 q 1181 918 1151 958 q 1196 864 1199 892 q 1174 825 1193 836 m 1235 989 q 1139 1051 1193 1022 q 1024 1088 1085 1079 q 1025 1117 1010 1104 q 1154 1121 1088 1128 q 1260 1082 1221 1114 q 1288 1035 1283 1063 q 1276 992 1292 1007 q 1235 989 1258 972 z "},"く":{"ha":1389,"x_min":414,"x_max":896,"o":"m 849 -82 q 817 -87 831 -92 q 792 -57 804 -82 q 710 97 758 11 q 598 272 661 183 q 456 438 535 361 q 424 473 432 461 q 415 511 415 485 q 423 551 414 532 q 460 597 432 569 q 520 664 482 619 q 601 763 558 708 q 682 870 643 818 q 743 960 721 922 q 736 1088 794 1042 q 754 1111 733 1108 q 807 1085 774 1104 q 865 1043 840 1065 q 890 1011 883 1028 q 893 981 896 994 q 872 947 889 963 q 833 911 856 931 q 758 838 803 885 q 665 737 713 790 q 576 638 617 683 q 515 571 536 593 q 492 540 497 550 q 486 515 486 531 q 494 488 488 500 q 535 446 501 476 q 620 363 572 413 q 717 258 668 314 q 808 147 767 201 q 869 49 849 93 q 881 -28 889 10 q 849 -82 872 -67 z "},"け":{"ha":1389,"x_min":222,"x_max":1263,"o":"m 715 -58 q 699 -46 704 -56 q 697 -26 693 -36 q 826 92 774 25 q 907 249 879 158 q 935 463 935 339 q 933 569 935 522 q 929 654 932 615 q 859 649 894 650 q 790 647 824 647 q 664 684 714 647 q 601 789 614 721 q 614 798 606 796 q 628 796 622 800 q 668 743 642 760 q 725 722 694 726 q 782 718 756 718 q 852 721 815 718 q 925 728 889 724 q 920 835 921 783 q 926 956 919 888 q 927 988 929 978 q 914 1004 925 999 q 895 1009 907 1008 q 875 1010 883 1010 q 869 1010 871 1010 q 869 1038 854 1025 q 924 1045 892 1044 q 979 1039 957 1046 q 1029 1008 1008 1032 q 1035 958 1050 985 q 1012 868 1015 924 q 1013 744 1008 813 q 1063 759 1040 751 q 1100 776 1086 767 q 1107 789 1108 782 q 1099 801 1106 796 q 1076 815 1090 807 q 1049 832 1063 824 q 1065 856 1046 853 q 1115 834 1083 849 q 1165 818 1147 819 q 1205 809 1193 815 q 1226 790 1217 803 q 1196 715 1263 742 q 1108 687 1153 699 q 1018 667 1064 675 q 1026 563 1022 615 q 1031 460 1031 511 q 1003 258 1031 343 q 928 113 975 172 q 826 12 882 53 q 715 -58 771 -29 m 411 83 q 374 73 397 74 q 333 86 351 72 q 252 207 282 125 q 222 424 222 289 q 235 560 222 499 q 263 679 247 622 q 292 792 279 736 q 304 913 304 849 q 294 968 304 942 q 274 1011 285 994 q 279 1027 274 1021 q 293 1032 285 1033 q 363 966 333 1010 q 393 869 393 922 q 378 784 393 825 q 343 695 363 743 q 308 582 324 647 q 293 424 293 517 q 314 279 293 319 q 331 268 321 265 q 344 283 340 271 q 376 377 358 325 q 412 478 394 429 q 440 561 429 528 q 467 553 460 571 q 450 486 461 528 q 428 398 439 444 q 409 308 417 351 q 400 235 401 264 q 403 197 399 210 q 425 157 408 185 q 431 115 436 136 q 411 83 425 94 z "},"こ":{"ha":1389,"x_min":315,"x_max":1104,"o":"m 685 53 q 474 83 554 53 q 358 163 394 114 q 318 269 321 213 q 338 375 315 325 q 358 376 349 379 q 372 361 368 372 q 382 249 357 296 q 482 178 407 203 q 692 153 557 153 q 845 165 769 153 q 985 200 921 178 q 1022 205 1008 208 q 1061 186 1035 201 q 1101 135 1104 160 q 1056 99 1097 111 q 881 65 978 76 q 685 53 783 53 m 572 719 q 557 744 551 724 q 602 776 574 756 q 653 810 631 796 q 594 819 631 813 q 518 841 557 826 q 451 882 479 856 q 418 951 422 908 q 432 960 424 958 q 446 957 440 963 q 501 907 456 924 q 612 885 547 890 q 742 884 676 881 q 857 894 808 888 q 912 896 896 901 q 947 867 928 890 q 972 806 983 828 q 915 783 961 783 q 908 783 914 783 q 801 781 858 783 q 685 765 743 778 q 572 719 626 751 z "},"ご":{"ha":1389,"x_min":303,"x_max":1289,"o":"m 672 57 q 462 88 542 57 q 345 167 382 118 q 306 273 308 217 q 325 379 303 329 q 346 380 336 383 q 358 365 356 376 q 369 253 344 300 q 469 182 394 207 q 679 157 544 157 q 833 169 757 157 q 972 204 908 182 q 1008 209 994 213 q 1049 190 1022 206 q 1088 140 1092 164 q 1043 103 1085 115 q 868 69 965 81 q 672 57 771 57 m 558 724 q 546 733 550 726 q 544 749 542 740 q 589 781 561 761 q 640 814 617 800 q 581 824 618 817 q 506 845 544 831 q 438 886 467 860 q 406 956 410 913 q 419 965 411 963 q 433 961 428 967 q 489 911 443 928 q 599 890 535 894 q 730 888 664 885 q 844 899 796 892 q 899 900 883 906 q 935 871 914 894 q 960 810 971 832 q 903 788 949 788 q 896 788 901 788 q 788 785 846 788 q 672 769 731 782 q 558 724 614 756 m 1267 638 q 1247 630 1256 631 q 1225 646 1238 629 q 1145 728 1192 689 q 1040 788 1099 767 q 1039 804 1036 796 q 1049 815 1042 813 q 1134 805 1090 815 q 1214 776 1178 794 q 1269 731 1250 758 q 1285 676 1289 704 q 1267 638 1282 649 m 1129 499 q 1109 495 1118 493 q 1092 517 1100 497 q 1033 614 1069 565 q 946 697 997 663 q 960 722 939 717 q 1078 671 1021 707 q 1156 588 1136 635 q 1158 531 1168 557 q 1129 499 1147 506 z "},"さ":{"ha":1389,"x_min":243,"x_max":1089,"o":"m 632 -11 q 444 23 514 -8 q 344 104 374 54 q 315 210 314 154 q 367 336 317 286 q 497 410 418 386 q 660 432 576 435 q 756 426 714 431 q 829 417 797 421 q 885 410 861 413 q 931 411 910 408 q 971 428 958 415 q 981 468 983 442 q 942 561 975 518 q 861 643 908 604 q 763 718 814 682 q 636 686 704 700 q 493 667 568 672 q 388 680 432 663 q 314 725 343 697 q 267 781 285 753 q 243 826 250 808 q 271 836 253 846 q 351 762 297 789 q 489 740 404 735 q 598 752 547 743 q 690 772 649 761 q 603 857 639 814 q 567 950 567 900 q 594 1024 567 994 q 661 1053 621 1053 q 719 1006 703 1053 q 715 986 724 993 q 690 979 707 979 q 665 947 665 979 q 692 864 665 901 q 758 793 718 826 q 861 849 836 824 q 860 864 872 857 q 818 879 843 874 q 815 894 813 886 q 824 907 817 903 q 875 903 851 903 q 931 911 899 904 q 956 912 942 914 q 985 904 971 910 q 1011 869 1014 890 q 983 828 1008 847 q 918 784 957 807 q 828 742 879 761 q 937 663 882 703 q 1033 576 992 624 q 1083 467 1074 529 q 1080 397 1089 432 q 1050 336 1071 361 q 999 306 1029 311 q 949 309 968 300 q 910 333 929 318 q 854 357 893 349 q 764 370 815 365 q 660 376 713 375 q 536 360 594 378 q 441 307 478 343 q 403 214 404 271 q 468 124 401 154 q 633 90 535 93 q 700 92 663 90 q 773 99 738 94 q 831 110 808 104 q 866 113 857 115 q 890 100 875 111 q 926 46 926 74 q 889 10 925 18 q 780 -6 842 0 q 632 -11 718 -12 z "},"ざ":{"ha":1389,"x_min":221,"x_max":1292,"o":"m 610 -11 q 422 23 492 -8 q 321 104 351 54 q 292 210 290 154 q 345 336 294 286 q 475 410 396 386 q 638 432 554 435 q 732 426 690 431 q 806 418 774 422 q 863 411 838 414 q 908 411 888 408 q 949 428 936 415 q 958 468 961 442 q 919 561 951 518 q 839 643 886 604 q 740 718 792 682 q 614 686 682 700 q 471 667 546 672 q 365 680 410 663 q 292 725 321 697 q 245 781 263 753 q 221 826 228 808 q 249 836 231 846 q 328 762 275 789 q 467 740 382 735 q 574 752 524 743 q 668 772 625 761 q 581 857 617 814 q 544 950 544 900 q 572 1024 544 994 q 639 1053 599 1053 q 697 1006 681 1053 q 693 986 701 993 q 668 979 685 979 q 643 947 643 979 q 669 864 643 901 q 736 793 696 826 q 839 849 810 822 q 838 864 850 857 q 796 879 821 874 q 792 894 790 886 q 800 907 794 903 q 852 903 828 903 q 908 911 876 904 q 934 912 919 914 q 961 904 949 910 q 988 869 992 890 q 961 828 985 847 q 896 784 935 807 q 806 742 857 761 q 915 663 860 703 q 1010 576 969 624 q 1061 467 1051 529 q 1058 397 1067 432 q 1027 336 1049 361 q 975 306 1006 311 q 926 309 946 300 q 888 333 907 318 q 832 357 871 349 q 742 370 793 365 q 636 376 690 375 q 513 360 571 378 q 419 307 456 343 q 381 214 382 271 q 446 124 379 154 q 611 90 513 93 q 678 92 640 90 q 751 99 715 94 q 808 110 786 104 q 842 113 833 115 q 868 100 851 111 l 868 100 q 903 46 904 74 q 867 10 901 18 q 758 -6 819 0 q 610 -11 696 -12 m 1186 821 q 1166 816 1175 815 q 1146 829 1157 817 q 1065 909 1111 871 q 960 972 1018 947 q 968 999 950 992 q 1095 973 1032 993 q 1189 914 1158 953 q 1205 860 1208 889 q 1186 821 1201 831 m 1279 989 q 1260 980 1269 982 q 1233 992 1250 978 q 1140 1045 1197 1021 q 1022 1079 1083 1069 q 1024 1107 1008 1094 q 1108 1115 1063 1115 q 1193 1108 1153 1115 q 1258 1081 1233 1100 q 1289 1030 1286 1060 q 1279 989 1292 1000 z "},"し":{"ha":1389,"x_min":340,"x_max":1153,"o":"m 664 -14 q 507 11 572 -14 q 407 105 442 36 q 372 306 372 174 q 376 456 372 371 q 385 628 379 540 q 394 790 390 715 q 397 906 397 864 q 388 977 397 950 q 350 1017 379 1004 q 360 1043 340 1036 q 444 1018 411 1033 q 494 985 476 1003 q 521 939 518 963 q 515 899 524 915 q 492 793 504 875 q 472 586 479 711 q 464 306 464 461 q 511 131 464 183 q 660 78 558 78 q 842 97 760 78 q 994 148 924 117 q 1128 214 1064 179 q 1146 203 1139 213 q 1150 183 1153 194 q 1068 122 1119 156 q 951 57 1017 88 q 813 6 886 26 q 664 -14 739 -14 z "},"じ":{"ha":1389,"x_min":332,"x_max":1144,"o":"m 656 -14 q 499 11 564 -14 q 399 105 433 36 q 364 306 364 174 q 367 456 364 371 q 376 628 371 540 q 385 790 382 715 q 389 906 389 864 q 380 977 389 950 q 342 1017 371 1004 q 351 1043 332 1036 q 435 1018 403 1033 q 486 985 468 1003 q 513 939 510 963 q 507 899 515 915 q 483 793 496 875 q 463 586 471 711 q 456 306 456 461 q 503 131 456 183 q 651 78 550 78 q 833 97 751 78 q 985 148 915 117 q 1119 214 1056 179 q 1138 203 1131 213 q 1142 183 1144 194 q 1060 122 1111 156 q 943 57 1008 88 q 804 6 878 26 q 656 -14 731 -14 m 875 713 q 833 731 847 697 q 774 841 808 786 q 694 932 739 896 q 697 947 693 940 q 708 956 700 954 q 826 904 771 938 q 903 819 881 871 q 911 756 919 785 q 875 713 903 726 m 1038 847 q 1015 840 1028 840 q 990 858 1003 840 q 908 948 956 904 q 804 1014 861 992 q 803 1031 800 1022 q 813 1042 806 1039 q 940 1015 875 1040 q 1036 953 1004 989 q 1058 894 1060 926 q 1038 847 1057 861 z "},"す":{"ha":1389,"x_min":132,"x_max":1258,"o":"m 439 -64 q 423 -50 428 -60 q 422 -31 418 -40 q 535 35 478 -3 q 638 129 592 74 q 704 263 683 185 q 697 260 700 261 q 689 260 693 260 q 622 262 651 253 q 582 296 593 271 q 555 340 569 324 q 527 376 540 357 q 507 425 514 394 q 519 556 492 504 q 610 621 546 607 q 708 601 661 632 q 706 685 707 646 q 704 751 704 725 l 704 760 q 414 711 553 746 q 336 685 374 701 q 265 669 299 669 q 197 694 224 669 q 154 754 169 718 q 132 825 139 790 q 160 835 142 844 q 195 792 169 808 q 268 775 221 775 q 474 791 360 775 q 704 821 589 807 q 703 938 703 896 q 706 1006 704 979 q 706 1039 708 1028 q 693 1056 703 1050 q 672 1060 686 1060 q 649 1060 657 1061 q 647 1089 635 1074 q 701 1096 671 1096 q 754 1089 732 1096 q 790 1071 774 1085 q 813 1041 807 1057 q 806 1010 819 1025 q 783 948 790 990 q 774 829 776 906 q 837 835 806 832 q 897 839 868 838 q 908 845 907 839 q 899 857 908 851 q 852 884 882 868 q 807 908 822 900 q 821 933 803 929 q 888 907 842 925 q 976 878 933 889 q 1031 868 1008 871 q 1100 869 1053 865 q 1169 864 1140 872 q 1228 826 1197 856 q 1243 773 1258 796 q 1192 756 1228 750 q 994 773 1103 771 q 772 767 886 775 l 772 754 q 775 624 772 671 q 783 551 778 578 q 793 499 788 524 q 810 443 804 472 q 815 382 815 414 q 779 199 815 275 q 685 73 743 124 q 563 -10 628 22 q 439 -64 497 -43 m 665 350 q 708 378 701 357 q 714 431 715 400 l 714 443 q 678 537 704 511 q 625 557 653 563 q 570 513 579 547 q 571 432 561 479 q 608 366 582 388 q 665 350 635 344 z "},"ず":{"ha":1389,"x_min":132,"x_max":1326,"o":"m 439 -64 q 423 -50 428 -60 q 422 -31 418 -40 q 535 35 478 -3 q 638 129 592 74 q 704 263 683 185 q 697 260 700 261 q 689 260 693 260 q 622 262 651 253 q 582 296 593 271 q 555 340 569 324 q 527 376 540 357 q 507 425 514 394 q 519 556 492 504 q 610 621 546 607 q 708 601 661 632 q 706 685 707 646 q 704 751 704 725 l 704 756 q 414 707 553 742 q 336 681 374 697 q 265 665 299 665 q 197 690 224 665 q 154 750 169 714 q 132 821 139 786 q 160 831 142 840 q 195 788 169 804 q 268 771 221 771 q 474 787 360 771 q 704 817 589 803 q 703 937 703 894 q 706 1006 704 979 q 706 1039 708 1028 q 693 1056 703 1050 q 672 1060 686 1060 q 649 1060 657 1061 q 647 1089 635 1074 q 701 1096 671 1096 q 754 1089 732 1096 q 790 1071 774 1085 q 813 1041 807 1057 q 806 1010 819 1025 q 782 947 789 990 q 774 825 775 903 q 837 831 806 828 q 897 835 868 833 q 908 841 907 835 q 899 853 908 847 q 852 880 882 864 q 807 904 822 896 q 821 929 803 925 q 888 903 843 921 q 976 874 933 885 q 1031 864 1008 867 q 1100 865 1053 861 q 1169 859 1140 868 q 1228 821 1197 850 q 1243 769 1258 792 q 1192 751 1228 746 q 994 769 1103 767 q 772 763 886 771 l 772 754 q 775 624 772 671 q 783 551 778 578 q 793 499 788 524 q 810 443 804 472 q 815 382 815 414 q 779 199 815 275 q 685 73 743 124 q 563 -10 628 22 q 439 -64 497 -43 m 665 350 q 708 378 701 357 q 714 431 715 400 l 714 443 q 678 537 704 511 q 625 557 653 563 q 570 513 579 547 q 571 432 561 479 q 608 366 582 388 q 665 350 635 344 m 1310 1031 q 1269 1032 1292 1015 q 1172 1092 1226 1065 q 1057 1129 1118 1118 q 1060 1157 1044 1144 q 1187 1161 1121 1167 q 1292 1128 1253 1156 q 1324 1076 1322 1107 q 1310 1031 1326 1046 m 1213 890 q 1167 899 1190 874 q 1083 976 1131 940 q 979 1031 1036 1013 q 976 1047 974 1039 q 986 1058 979 1056 q 1108 1040 1047 1057 q 1207 990 1169 1024 q 1231 934 1235 967 q 1213 890 1228 901 z "},"せ":{"ha":1389,"x_min":103,"x_max":1265,"o":"m 738 21 q 626 28 679 21 q 533 62 574 35 q 468 146 492 89 q 444 303 444 203 l 444 554 q 420 547 432 551 q 396 539 408 543 q 339 512 365 528 q 285 484 313 496 q 222 472 258 472 q 157 497 183 472 q 117 556 131 522 q 103 617 104 590 q 131 622 115 633 q 163 587 142 596 q 217 578 185 578 q 274 588 228 578 q 374 611 319 599 q 407 619 389 615 q 443 628 425 624 q 439 754 442 707 q 429 833 436 801 q 403 882 422 872 q 365 896 383 894 q 360 911 360 903 q 367 924 361 919 q 419 924 390 926 q 471 915 449 922 q 510 897 490 910 q 540 867 529 883 q 539 833 550 850 q 521 760 524 810 q 518 643 518 710 q 676 672 592 658 q 854 697 761 686 q 856 808 856 751 q 856 915 856 864 q 849 949 856 938 q 832 965 843 960 q 794 978 814 975 q 796 1007 781 994 q 896 997 847 1014 q 946 971 924 989 q 950 929 968 953 q 939 903 944 919 q 933 865 933 888 l 933 706 q 992 711 963 708 q 1051 715 1021 714 q 1061 744 1086 718 q 1040 765 1056 751 q 1008 794 1024 779 q 986 815 993 810 q 1006 838 986 838 q 1051 808 1019 829 q 1119 769 1083 788 q 1179 743 1154 750 q 1216 728 1200 739 q 1246 693 1232 717 q 1252 647 1265 663 q 1199 635 1239 631 q 1063 645 1131 643 q 931 644 996 647 q 910 469 926 551 q 850 335 893 386 q 815 305 836 317 q 767 293 793 293 q 719 306 735 293 q 703 338 703 318 q 694 383 703 356 q 672 438 685 410 q 649 490 660 467 q 633 522 638 513 q 644 535 636 532 q 658 535 651 538 q 692 481 669 517 q 736 425 714 446 q 764 410 754 410 q 796 422 782 410 q 833 505 821 446 q 851 639 846 564 q 678 615 761 631 q 518 578 594 599 l 518 313 q 541 183 518 226 q 614 127 564 140 q 742 114 664 114 q 864 125 797 114 q 978 150 931 136 q 1008 153 997 156 q 1036 136 1018 151 q 1072 83 1072 108 q 1032 50 1072 58 q 899 28 974 36 q 738 21 825 21 z "},"ぜ":{"ha":1389,"x_min":89,"x_max":1329,"o":"m 725 13 q 614 19 667 13 q 520 53 561 26 q 456 138 479 81 q 432 294 432 194 q 432 434 432 372 q 431 546 432 496 q 407 539 419 543 q 383 531 394 535 q 326 503 353 519 q 273 476 300 488 q 210 464 246 464 q 144 489 171 464 q 104 548 118 514 q 89 607 90 582 q 118 614 100 625 q 151 578 129 588 q 203 569 172 569 q 260 579 214 569 q 361 603 306 589 q 394 611 376 607 q 431 619 413 615 q 426 745 429 699 q 417 824 424 792 q 406 857 413 846 q 390 874 400 868 q 351 888 372 885 q 354 915 339 903 q 407 916 378 918 q 458 907 436 914 q 497 888 478 901 q 527 858 517 875 q 526 825 538 842 q 511 760 515 808 q 506 635 507 713 q 664 664 579 650 q 840 689 749 678 q 843 799 843 743 q 843 907 843 856 q 837 940 843 929 q 819 956 831 950 q 782 969 803 967 q 777 985 776 976 q 783 997 778 993 q 834 999 807 1001 q 883 989 861 996 q 933 963 911 981 q 938 921 956 944 q 926 895 932 911 q 921 857 921 879 q 921 778 921 819 q 919 697 921 738 q 979 703 950 700 q 1039 707 1008 706 q 1058 715 1054 707 q 1049 736 1061 722 q 1027 757 1043 743 q 996 786 1011 771 q 974 807 981 801 q 993 829 974 826 q 1038 799 1007 819 q 1106 760 1069 779 q 1167 735 1142 742 q 1203 719 1188 729 q 1233 685 1219 708 q 1239 638 1253 654 q 1185 626 1225 622 q 1050 637 1117 635 q 918 636 983 639 q 897 460 914 543 q 838 326 881 378 q 801 297 824 308 q 754 285 779 285 q 690 329 690 285 q 681 374 690 347 q 660 430 672 401 q 635 481 647 458 q 619 514 624 504 q 646 526 626 533 q 678 477 657 510 q 719 421 699 444 q 751 401 736 401 q 783 415 771 401 q 822 498 810 439 q 838 631 833 557 q 665 606 749 622 q 506 568 581 590 l 506 304 q 528 175 506 218 q 601 119 551 132 q 728 106 650 106 q 851 117 785 106 q 964 142 918 128 q 994 145 983 147 q 1022 128 1006 143 q 1059 74 1058 99 q 1019 42 1060 50 q 887 20 961 28 q 725 13 813 13 m 1178 833 q 1156 829 1167 828 q 1138 847 1146 831 q 1077 944 1114 896 q 988 1026 1040 993 q 1001 1051 982 1047 q 1084 1024 1042 1043 q 1159 977 1126 1004 q 1203 918 1192 950 q 1204 864 1214 888 q 1178 833 1194 840 m 1306 979 q 1287 973 1297 972 q 1263 988 1276 974 q 1182 1065 1228 1028 q 1075 1119 1136 1101 q 1081 1147 1064 1138 q 1167 1140 1121 1149 q 1251 1113 1213 1131 q 1308 1071 1290 1096 q 1325 1019 1329 1046 q 1306 979 1321 992 z "},"そ":{"ha":1389,"x_min":233,"x_max":1161,"o":"m 879 -42 q 768 -24 825 -39 q 663 25 711 -8 q 586 113 615 58 q 557 250 557 168 q 608 413 557 339 q 729 529 658 486 q 634 508 685 521 q 538 480 583 494 q 464 453 493 465 q 397 413 417 432 q 357 386 378 393 q 306 385 331 376 q 256 425 282 393 q 239 483 233 453 q 275 528 244 513 q 319 556 292 536 q 379 603 346 576 q 488 694 429 643 q 605 796 546 744 q 713 890 664 847 q 793 956 763 932 q 807 980 808 967 q 779 990 806 993 q 719 978 750 988 q 653 954 689 969 q 603 930 628 943 q 556 917 579 917 q 513 942 531 917 q 485 998 494 967 q 474 1050 475 1029 q 488 1060 479 1058 q 501 1057 496 1063 q 529 1022 513 1031 q 563 1014 546 1014 q 615 1019 579 1014 q 692 1031 650 1025 q 769 1043 733 1038 q 818 1049 804 1049 q 853 1046 839 1049 q 889 1024 868 1043 q 924 981 908 1007 q 938 933 939 956 q 903 901 936 910 q 824 866 871 893 q 722 801 776 839 q 611 721 667 763 q 508 640 556 679 q 426 571 460 600 q 381 529 392 542 q 373 506 367 514 q 400 503 379 497 q 590 550 481 521 q 817 603 700 579 q 942 625 881 615 q 1063 639 1004 635 q 1101 638 1090 642 q 1125 621 1111 633 q 1152 558 1161 588 q 1115 532 1143 529 q 996 540 1067 539 q 868 535 925 542 q 758 491 811 526 q 670 395 704 456 q 636 253 636 335 q 663 156 636 192 q 731 101 690 119 q 817 74 772 82 q 899 61 863 65 q 926 55 918 60 q 943 35 933 50 q 953 -24 971 -4 q 879 -42 936 -44 z "},"た":{"ha":1389,"x_min":179,"x_max":1239,"o":"m 200 22 q 183 72 186 38 q 196 132 179 106 q 287 300 242 201 q 372 510 332 399 q 442 728 413 621 q 321 717 371 717 q 211 755 242 717 q 181 853 181 793 q 208 857 193 869 q 247 799 215 811 q 321 788 278 788 q 389 792 353 788 q 463 806 425 797 q 481 894 474 851 q 493 974 489 936 q 494 1007 496 996 q 482 1028 493 1018 q 460 1037 476 1035 q 436 1039 444 1039 q 440 1068 424 1056 q 495 1067 463 1071 q 553 1051 528 1063 q 586 1028 572 1044 q 603 995 600 1013 q 592 964 607 978 q 569 940 579 953 q 557 907 560 926 q 549 869 553 889 q 539 826 544 849 q 643 871 601 846 q 670 872 650 875 q 713 854 690 869 q 731 822 731 842 q 707 792 732 803 q 628 765 679 779 q 518 740 576 751 q 461 536 493 643 q 395 330 429 429 q 331 152 361 231 q 278 32 300 74 q 241 8 267 10 q 200 22 215 7 m 921 42 q 674 135 760 53 q 597 368 588 217 q 612 376 604 375 q 625 369 619 376 q 643 290 629 329 q 690 219 657 251 q 780 167 722 188 q 929 143 838 146 q 1007 144 965 143 q 1087 147 1049 144 q 1147 151 1125 149 q 1188 139 1169 153 q 1231 96 1222 117 q 1232 61 1239 75 q 1211 44 1225 47 q 1080 36 1158 36 q 921 42 1001 36 m 915 582 q 903 593 906 585 q 903 608 900 601 q 956 638 928 624 q 1014 663 983 651 q 1026 674 1024 667 q 1015 686 1028 681 q 917 711 981 706 q 793 710 854 717 q 784 724 786 715 q 788 738 782 732 q 897 756 835 753 q 1020 752 960 760 q 1121 724 1081 744 q 1163 696 1149 710 q 1186 656 1176 682 q 1187 608 1196 629 q 1161 581 1178 588 q 1128 588 1144 575 q 1059 617 1094 614 q 989 609 1024 619 q 921 585 954 599 q 915 582 917 583 z "},"だ":{"ha":1389,"x_min":143,"x_max":1310,"o":"m 167 0 q 151 50 153 15 q 167 111 149 85 q 256 277 211 179 q 340 485 300 375 q 408 700 379 594 q 344 690 375 694 q 286 686 313 686 q 176 722 207 685 q 143 819 144 760 q 171 824 156 836 q 210 767 178 778 q 285 757 242 756 q 353 764 317 758 q 429 779 390 769 q 448 865 440 824 q 460 942 456 906 q 461 975 463 964 q 450 996 460 986 q 428 1004 443 1003 q 404 1007 413 1006 q 399 1022 399 1014 q 407 1035 400 1031 q 463 1033 431 1038 q 519 1019 496 1029 q 565 980 547 1008 q 560 932 582 951 q 537 908 546 921 q 524 875 528 894 q 517 840 521 858 q 508 803 513 822 q 604 847 565 825 q 631 851 611 853 q 674 833 651 849 q 694 802 693 822 q 671 771 696 782 q 593 743 643 758 q 486 715 543 728 q 428 514 461 619 q 362 309 396 408 q 297 131 328 210 q 244 10 267 51 q 208 -13 233 -12 q 167 0 182 -14 m 883 4 q 636 97 722 15 q 558 331 550 179 q 588 332 572 347 q 606 254 592 293 q 652 183 619 215 q 742 130 685 150 q 892 107 800 110 q 969 106 928 106 q 1049 109 1011 107 q 1110 114 1088 111 q 1150 101 1129 118 q 1193 58 1185 79 q 1194 24 1201 38 q 1174 7 1188 10 q 1042 -1 1121 0 q 883 4 963 -1 m 897 526 q 886 553 879 536 q 939 582 911 568 q 997 608 967 596 q 999 632 1019 618 q 900 657 963 651 q 776 656 838 663 q 771 683 760 668 q 879 702 817 699 q 1003 697 942 706 q 1103 668 1064 689 q 1145 641 1131 654 q 1169 600 1160 628 q 1170 553 1179 574 q 1144 526 1161 533 q 1110 532 1126 519 q 1042 563 1076 560 q 974 554 1008 565 q 906 531 939 543 q 897 526 900 528 m 1297 936 q 1276 926 1288 928 q 1247 940 1264 924 q 1154 1003 1213 974 q 1029 1043 1096 1033 q 1024 1058 1024 1050 q 1031 1071 1025 1065 q 1123 1075 1074 1078 q 1216 1060 1172 1072 q 1286 1028 1260 1049 q 1310 979 1310 1010 q 1297 936 1310 949 m 1197 775 q 1175 770 1188 769 q 1150 790 1163 771 q 1081 872 1124 832 q 975 939 1038 913 q 974 956 971 947 q 985 967 976 964 q 1115 935 1050 961 q 1208 867 1179 908 q 1219 813 1225 842 q 1197 775 1213 783 z "},"ち":{"ha":1389,"x_min":236,"x_max":1094,"o":"m 558 -49 q 548 -31 549 -42 q 554 -12 547 -19 q 697 17 625 -1 q 828 66 768 35 q 929 149 889 97 q 978 279 969 200 q 947 426 988 365 q 817 489 907 488 q 710 465 761 490 q 622 397 658 440 q 574 299 585 354 q 538 247 567 260 q 469 264 510 235 q 428 312 440 285 q 417 393 415 339 q 429 506 418 440 q 455 647 440 572 q 483 794 469 722 q 438 799 461 796 q 392 804 415 801 q 244 965 236 829 q 259 973 251 972 q 272 968 267 974 q 315 903 275 925 q 394 874 354 881 q 447 866 422 868 q 494 863 472 864 q 510 993 508 940 q 509 1026 511 1017 q 496 1042 507 1036 q 468 1047 488 1047 q 440 1044 449 1046 q 438 1074 424 1060 q 494 1082 460 1081 q 556 1079 529 1083 q 608 1052 588 1074 q 619 1006 629 1031 q 667 976 638 994 q 728 941 697 957 q 781 922 760 925 q 819 917 800 921 q 853 899 839 913 q 864 860 872 881 q 828 832 856 840 q 696 803 768 814 q 550 793 624 793 q 524 644 536 721 q 510 508 513 567 q 515 428 507 449 q 530 412 521 415 q 549 418 539 408 q 620 477 581 447 q 709 527 660 507 q 818 546 758 547 q 960 513 897 544 q 1059 421 1024 481 q 1089 275 1094 361 q 1050 141 1085 196 q 959 51 1015 86 q 835 -3 903 17 q 696 -33 768 -24 q 558 -49 624 -43 m 565 861 q 685 885 638 865 q 690 911 706 892 q 651 947 681 925 q 603 981 621 969 q 586 938 596 969 q 565 861 576 906 z "},"っ":{"ha":1389,"x_min":256,"x_max":1075,"o":"m 604 76 q 598 90 599 82 q 603 104 597 99 q 722 131 656 113 q 850 179 788 149 q 953 257 913 210 q 993 372 993 304 q 939 517 993 467 q 789 568 885 568 q 663 547 725 568 q 549 494 601 525 q 463 433 497 463 q 413 397 433 410 q 367 385 393 385 q 312 404 336 385 q 274 453 288 424 q 256 511 260 483 q 276 517 264 526 q 351 476 300 476 q 419 497 372 476 q 528 545 467 518 q 657 593 589 572 q 788 614 725 614 q 1002 548 929 614 q 1075 376 1075 482 q 1040 251 1075 303 q 948 167 1004 200 q 827 115 892 133 q 703 88 763 96 q 604 76 644 79 z "},"つ":{"ha":1389,"x_min":108,"x_max":1201,"o":"m 575 122 q 565 142 565 131 q 572 160 565 153 q 697 186 628 169 q 835 230 765 203 q 963 297 904 257 q 1058 391 1022 336 q 1093 518 1093 446 q 1021 711 1093 643 q 819 779 949 779 q 653 751 735 779 q 501 681 571 722 q 385 600 432 639 q 319 551 346 568 q 257 535 292 535 q 184 561 215 535 q 133 626 153 588 q 108 704 114 665 q 136 711 119 721 q 236 656 168 656 q 304 674 260 656 q 409 720 349 693 q 539 775 469 747 q 680 822 608 803 q 818 840 751 840 q 1105 752 1008 840 q 1201 524 1201 664 q 1168 381 1201 442 q 1078 276 1135 319 q 954 205 1022 233 q 815 159 886 176 q 682 133 744 142 q 575 122 619 125 z "},"て":{"ha":1389,"x_min":150,"x_max":1200,"o":"m 996 13 q 749 33 856 0 q 582 150 642 65 q 522 379 522 235 q 588 664 522 546 q 751 856 654 782 q 578 815 665 840 q 392 750 492 790 q 335 724 365 740 q 278 708 304 708 q 208 735 235 708 q 167 798 181 761 q 150 865 154 835 q 178 875 160 885 q 212 836 189 849 q 276 824 235 824 q 376 835 313 824 q 523 866 440 847 q 699 906 606 885 q 889 945 793 926 q 1074 976 985 964 q 1116 981 1101 981 q 1144 969 1131 981 q 1190 918 1179 944 q 1188 876 1200 892 q 1140 865 1175 861 q 1027 877 1089 872 q 904 874 965 882 q 793 831 843 865 q 644 644 683 758 q 607 381 604 531 q 703 169 610 235 q 967 122 797 104 q 991 124 982 125 q 1010 113 1000 122 q 1051 43 1063 69 q 996 13 1040 17 z "},"で":{"ha":1389,"x_min":146,"x_max":1272,"o":"m 992 13 q 744 33 851 0 q 578 150 638 65 q 518 379 518 235 q 584 664 518 546 q 747 856 650 782 q 574 815 661 840 q 388 750 488 790 q 331 724 361 740 q 272 708 300 708 q 203 735 231 708 q 163 798 176 761 q 146 865 150 835 q 174 875 156 885 q 208 836 185 849 q 272 824 231 824 q 372 835 308 824 q 519 866 436 847 q 695 906 601 885 q 885 945 789 926 q 1069 976 981 964 q 1112 981 1097 981 q 1140 969 1126 981 q 1185 918 1175 944 q 1183 876 1196 892 q 1136 865 1171 861 q 1023 877 1085 872 q 900 874 961 882 q 789 831 839 865 q 640 644 679 758 q 603 381 600 531 q 699 169 606 235 q 963 122 793 104 q 986 124 978 125 q 1006 113 994 122 q 1047 43 1058 69 q 992 13 1036 17 m 1065 474 q 1041 481 1053 474 q 1024 513 1029 489 q 989 615 1011 565 q 922 703 967 664 q 940 725 919 725 q 1019 681 982 710 q 1080 618 1056 653 q 1108 546 1104 583 q 1096 494 1111 514 q 1065 474 1081 474 m 1235 558 q 1210 563 1222 557 q 1186 590 1197 568 q 1133 681 1164 639 q 1049 757 1103 722 q 1063 782 1043 778 q 1146 751 1103 772 q 1222 701 1189 731 q 1264 638 1256 672 q 1261 584 1272 607 q 1235 558 1250 561 z "},"と":{"ha":1389,"x_min":329,"x_max":1101,"o":"m 703 4 q 507 22 592 4 q 376 87 422 40 q 329 219 329 133 q 371 347 329 290 q 480 449 413 404 q 621 528 547 494 q 581 595 594 551 q 568 715 568 639 q 570 788 568 742 q 574 882 572 833 q 578 964 576 931 q 576 1003 579 989 q 560 1025 574 1017 q 542 1030 553 1029 q 524 1031 532 1031 q 519 1031 521 1031 q 513 1045 514 1038 q 518 1058 513 1053 q 575 1065 543 1065 q 629 1060 607 1064 q 701 1021 682 1050 q 699 964 719 992 q 659 863 671 929 q 647 719 647 797 q 653 616 647 658 q 676 551 658 574 q 781 590 731 574 q 867 619 831 607 q 918 631 897 631 q 964 607 939 631 q 987 557 994 581 q 939 526 979 533 q 808 499 879 517 q 665 456 736 482 q 533 396 593 431 q 438 319 474 361 q 401 224 401 276 q 438 142 401 169 q 542 106 474 115 q 704 97 610 97 q 808 103 750 97 q 918 119 865 110 q 1001 136 971 128 q 1038 132 1021 142 q 1094 67 1101 97 q 1039 26 1088 38 q 972 17 1015 21 q 879 10 929 13 q 782 6 829 7 q 703 4 735 4 z "},"ど":{"ha":1389,"x_min":308,"x_max":1265,"o":"m 681 0 q 485 18 569 0 q 355 83 401 36 q 308 215 308 129 q 350 343 308 286 q 459 445 392 400 q 600 524 526 490 q 560 591 574 547 q 547 711 547 635 q 549 783 547 738 q 553 878 551 829 q 557 960 556 926 q 556 999 558 985 q 539 1021 553 1013 q 522 1026 532 1025 q 503 1026 511 1026 q 499 1026 500 1026 q 492 1041 492 1033 q 497 1054 492 1049 q 553 1060 521 1061 q 607 1056 585 1060 q 678 1017 660 1046 q 678 960 697 988 q 638 859 650 925 q 626 715 626 793 q 632 611 626 653 q 656 547 638 569 q 760 586 710 569 q 846 615 810 603 q 897 626 876 626 q 943 603 918 626 q 966 553 974 576 q 918 522 958 529 q 786 495 858 513 q 642 452 714 478 q 512 392 571 426 q 417 315 453 357 q 381 219 381 272 q 417 138 381 165 q 521 102 453 111 q 683 93 589 93 q 786 99 729 93 q 897 115 843 106 q 981 132 950 124 q 1017 128 999 136 q 1073 63 1081 93 q 1017 22 1065 33 q 951 13 993 17 q 858 6 908 8 q 760 1 807 3 q 681 0 713 0 m 1113 764 q 1088 765 1100 761 q 1061 790 1075 768 q 997 873 1032 835 q 906 939 961 911 q 906 956 903 947 q 917 965 910 964 q 1003 946 958 961 q 1085 906 1049 931 q 1133 846 1121 881 q 1136 792 1144 815 q 1113 764 1128 768 m 1246 903 q 1221 898 1235 897 q 1189 917 1207 899 q 1110 986 1151 957 q 1007 1032 1068 1015 q 1003 1047 1001 1039 q 1013 1060 1006 1056 q 1101 1058 1054 1064 q 1189 1035 1149 1053 q 1249 986 1229 1018 q 1263 935 1265 960 q 1246 903 1260 910 z "},"な":{"ha":1389,"x_min":192,"x_max":1178,"o":"m 732 -36 q 623 -23 672 -40 q 546 30 574 -6 q 521 114 518 65 q 578 215 524 175 q 717 256 632 256 q 782 253 750 256 q 844 244 814 250 q 840 371 843 306 q 838 522 838 436 q 878 638 838 603 q 978 672 918 672 q 1015 683 1006 672 q 1024 715 1024 694 q 999 760 1024 735 q 933 796 974 786 q 942 824 925 814 q 1008 810 971 821 q 1080 781 1046 799 q 1136 741 1114 764 q 1158 692 1158 718 q 1135 635 1158 651 q 1078 618 1111 619 q 1018 618 1046 617 q 1004 619 1011 619 q 992 619 997 619 q 915 600 939 619 q 892 524 892 581 q 909 360 892 435 q 933 224 926 285 q 1063 179 1007 204 q 1142 139 1118 154 q 1171 98 1164 125 q 1172 50 1178 71 q 1150 16 1167 25 q 1110 25 1133 7 q 1031 83 1075 53 q 933 136 988 113 q 872 16 922 61 q 732 -36 822 -29 m 218 213 q 196 259 200 232 q 211 311 192 286 q 297 438 250 361 q 391 603 344 514 q 471 786 438 693 q 438 784 454 785 q 407 783 422 783 q 291 829 328 783 q 256 932 254 875 q 283 936 268 949 q 326 869 289 892 q 407 847 364 847 q 450 849 428 847 q 494 857 472 851 q 514 933 506 896 q 526 1006 522 971 q 528 1039 529 1028 q 515 1060 526 1050 q 494 1069 510 1067 q 469 1072 479 1071 q 466 1088 464 1079 q 474 1100 468 1096 q 530 1098 497 1103 q 586 1082 563 1093 q 631 1042 614 1071 q 625 994 647 1014 q 602 970 611 983 q 588 938 593 957 q 581 908 585 924 q 569 875 576 893 q 650 905 613 889 q 713 936 688 921 q 776 914 729 946 q 795 882 794 901 q 771 851 796 863 q 675 822 738 838 q 543 794 613 806 q 483 639 517 722 q 413 475 449 556 q 346 330 378 394 q 292 228 314 265 q 256 202 279 206 q 218 213 232 199 m 728 43 q 808 78 778 46 q 843 168 838 111 q 713 185 783 185 q 620 166 651 185 q 586 114 589 147 q 619 58 582 78 q 728 43 656 38 z "},"に":{"ha":1389,"x_min":204,"x_max":1219,"o":"m 396 50 q 360 40 383 40 q 319 54 338 40 q 238 165 271 90 q 204 375 204 240 q 215 539 204 467 q 242 671 226 611 q 268 784 257 731 q 279 892 279 838 q 267 947 279 921 q 242 990 254 974 q 248 1006 242 1000 q 263 1011 254 1013 q 339 945 303 989 q 375 849 375 901 q 360 767 375 808 q 326 673 346 725 q 291 550 306 621 q 276 382 276 479 q 284 302 276 336 q 304 246 292 268 q 319 235 311 233 q 329 249 326 236 q 362 344 343 290 q 398 447 381 399 q 425 521 415 496 q 451 510 446 531 q 431 433 444 482 q 404 325 417 385 q 386 203 392 265 q 389 164 385 176 q 410 124 393 151 l 410 124 q 417 83 422 104 q 396 50 411 61 m 919 108 q 740 133 806 108 q 643 206 675 158 q 597 322 611 254 q 611 333 603 331 q 625 329 619 335 q 685 251 649 278 q 776 216 721 225 q 914 207 832 207 q 1031 214 976 207 q 1133 232 1086 221 q 1153 233 1147 235 q 1167 228 1160 232 q 1169 226 1168 226 q 1216 171 1213 204 q 1176 131 1219 138 q 919 108 1065 108 m 861 789 q 714 810 771 786 q 621 885 657 833 q 643 904 624 904 q 722 876 669 882 q 837 875 775 869 q 953 891 899 881 q 1038 913 1008 901 q 1078 915 1057 919 q 1119 886 1099 910 q 1142 838 1151 854 q 1088 811 1133 821 q 994 799 1057 806 q 861 789 931 792 z "},"ぬ":{"ha":1389,"x_min":144,"x_max":1333,"o":"m 857 39 q 741 73 783 39 q 700 163 699 107 q 756 261 703 225 q 893 297 808 297 q 976 290 935 297 q 1057 268 1018 282 q 1081 373 1074 314 q 1081 506 1088 432 q 1058 609 1076 557 q 1006 706 1040 661 q 916 777 971 750 q 782 804 861 804 q 654 783 717 804 q 617 588 643 682 q 556 413 592 494 q 585 394 571 403 q 614 378 600 385 q 635 349 629 369 q 638 303 642 328 q 615 277 635 285 q 567 283 594 269 q 510 319 540 297 q 377 142 449 208 q 244 76 306 76 q 170 113 196 76 q 144 201 144 150 q 182 380 144 283 q 283 568 219 476 q 214 717 238 642 q 198 761 206 744 q 175 789 190 778 q 190 814 171 808 q 223 802 206 811 q 251 763 240 793 q 286 690 267 725 q 328 624 306 656 q 445 738 381 686 q 583 821 510 789 q 584 846 583 833 q 585 871 585 858 q 580 942 585 919 q 556 983 575 965 q 535 995 549 990 q 513 1001 521 1000 q 517 1029 500 1019 q 569 1029 540 1032 q 621 1017 597 1026 q 656 987 650 1007 q 663 921 663 967 q 662 884 663 903 q 660 847 661 865 q 719 859 689 854 q 781 864 750 864 q 997 816 910 864 q 1131 687 1083 768 q 1183 506 1178 606 q 1179 356 1189 424 q 1147 235 1169 288 q 1227 194 1190 215 q 1290 156 1264 174 q 1326 117 1318 139 q 1329 72 1333 96 q 1302 36 1324 46 q 1257 46 1281 26 q 1187 101 1226 72 q 1103 156 1147 131 q 995 68 1058 97 q 857 39 932 39 m 257 183 q 355 234 303 183 q 453 367 407 285 q 385 435 418 399 q 322 511 351 472 q 249 367 275 439 q 222 236 222 294 q 257 183 222 183 m 496 454 q 545 597 524 521 q 576 750 567 672 q 464 673 517 719 q 368 574 411 626 q 431 509 399 539 q 496 454 464 479 m 858 115 q 947 135 904 115 q 1019 197 989 156 q 954 217 988 210 q 889 225 921 225 q 769 171 772 225 q 858 115 768 115 z "},"ね":{"ha":1389,"x_min":118,"x_max":1315,"o":"m 457 -14 q 414 26 414 -14 q 415 54 414 29 q 418 122 417 79 q 395 224 419 161 q 339 351 371 288 q 268 248 300 297 q 215 158 236 199 q 180 115 199 125 q 140 126 161 106 q 118 174 118 147 q 144 229 118 200 q 210 308 169 257 q 303 419 251 358 q 256 497 279 463 q 218 551 233 532 q 194 618 192 583 q 232 682 196 653 q 329 742 274 715 q 438 786 385 769 q 449 908 443 856 q 458 982 454 960 q 443 1040 465 1029 q 421 1045 435 1044 q 399 1046 407 1046 q 399 1074 383 1061 q 453 1081 421 1081 q 508 1075 486 1082 q 559 1044 538 1068 q 564 994 581 1019 q 535 921 550 971 q 508 801 519 871 q 578 775 554 803 q 585 710 601 747 q 731 810 658 771 q 867 849 803 849 q 1047 801 983 849 q 1135 669 1110 754 q 1160 471 1160 585 q 1151 322 1160 388 q 1126 206 1142 256 q 1208 167 1171 188 q 1272 129 1246 147 q 1307 91 1299 113 q 1311 46 1315 69 q 1284 10 1306 19 q 1239 19 1263 0 q 1172 72 1210 44 q 1092 124 1135 99 q 1003 37 1056 64 q 885 7 951 10 q 734 42 786 1 q 686 151 682 83 q 739 239 690 204 q 868 271 788 274 q 954 260 911 269 q 1039 239 997 251 q 1056 332 1050 279 q 1063 451 1063 385 q 1047 625 1063 558 q 1006 727 1032 692 q 944 775 979 763 q 867 788 908 788 q 747 753 811 788 q 616 660 683 718 q 485 532 549 601 l 485 479 q 490 345 485 413 q 502 219 496 278 q 514 119 508 160 q 519 64 519 78 q 501 7 519 28 q 457 -14 482 -14 m 335 457 q 380 508 357 482 q 426 558 403 533 q 428 611 428 585 q 431 660 429 638 q 424 695 432 688 q 394 700 415 703 q 338 679 368 694 q 285 643 308 664 q 262 607 263 624 q 274 571 261 590 q 302 521 286 551 q 335 457 318 490 m 886 83 q 953 105 922 86 q 1008 164 985 124 q 935 188 972 179 q 861 199 897 197 q 780 187 806 200 q 751 150 754 174 q 781 99 747 118 q 886 83 814 79 m 411 294 q 419 286 417 285 q 422 297 422 288 q 425 388 425 346 q 425 464 425 429 q 397 428 411 446 q 368 390 382 410 q 394 336 382 361 q 411 294 406 311 z "},"の":{"ha":1389,"x_min":165,"x_max":1226,"o":"m 632 1 q 622 19 622 8 q 628 38 621 31 q 801 88 714 53 q 960 179 888 122 q 1076 317 1032 236 q 1119 504 1119 399 q 1068 738 1119 640 q 926 888 1017 835 q 714 942 835 940 l 714 856 q 691 639 714 744 q 631 442 668 533 q 549 281 594 350 q 460 172 504 211 q 378 133 415 133 q 311 147 344 133 q 250 192 278 161 q 189 299 213 232 q 165 465 165 367 q 204 650 165 557 q 315 822 243 743 q 487 948 388 900 q 708 996 586 996 q 914 960 819 996 q 1078 858 1008 924 q 1188 700 1149 792 q 1226 497 1226 608 q 1174 285 1226 375 q 1036 135 1122 196 q 844 41 950 74 q 632 1 739 8 m 374 257 q 444 292 406 257 q 521 390 483 328 q 590 530 558 451 q 640 694 621 608 q 658 863 658 779 l 658 939 q 453 860 543 926 q 312 693 363 794 q 261 468 261 592 q 292 316 261 375 q 374 257 324 257 z "},"は":{"ha":1389,"x_min":175,"x_max":1285,"o":"m 810 33 q 657 72 711 28 q 607 189 603 117 q 662 282 610 243 q 799 321 714 321 q 867 318 833 321 q 931 310 900 315 q 922 442 928 368 q 917 638 917 515 l 917 674 q 792 666 853 667 q 688 671 732 665 q 595 721 631 679 q 563 829 560 763 q 590 833 575 846 q 626 771 594 797 q 694 742 657 744 q 804 743 744 740 q 917 753 864 746 l 917 960 q 915 994 917 983 q 904 1010 914 1004 q 876 1015 896 1015 q 849 1014 857 1015 q 847 1043 833 1029 q 908 1050 869 1050 q 968 1044 946 1050 q 1017 1011 997 1036 q 1015 965 1036 986 q 993 908 1000 950 q 1028 878 1007 897 q 1073 845 1050 860 q 1113 831 1096 831 q 1145 829 1132 831 q 1174 817 1158 828 q 1185 783 1186 810 q 1149 736 1185 756 q 1075 706 1117 718 q 986 685 1033 693 l 986 639 q 992 488 986 550 q 1006 380 999 426 q 1018 289 1014 333 q 1148 242 1090 268 q 1242 193 1206 215 q 1276 153 1268 175 q 1279 108 1285 132 q 1253 76 1274 82 q 1208 88 1233 69 q 1122 147 1169 115 q 1018 201 1075 178 q 951 81 1008 124 q 810 33 894 39 m 365 -1 q 329 -10 351 -11 q 289 6 307 -8 q 209 121 243 42 q 175 335 175 200 q 189 508 175 426 q 222 661 203 590 q 254 795 240 732 q 268 913 268 858 q 256 967 268 940 q 231 1010 243 994 q 236 1026 231 1019 q 250 1031 242 1032 q 326 965 290 1008 q 363 869 363 921 q 345 778 363 829 q 304 663 328 726 q 263 519 281 599 q 246 342 246 440 q 253 256 246 296 q 272 194 260 217 q 287 183 279 181 q 299 196 294 185 q 324 276 308 228 q 356 378 339 325 q 388 477 374 432 q 411 547 403 522 q 438 536 433 554 q 419 467 431 513 q 394 367 407 422 q 369 254 381 311 q 354 151 358 197 q 357 115 353 126 q 375 78 361 103 q 379 72 378 75 q 385 31 390 53 q 365 -1 379 10 m 806 113 q 888 147 850 115 q 932 231 926 179 q 865 244 900 239 q 794 249 831 249 q 705 231 735 249 q 672 188 675 213 q 679 147 669 164 q 806 113 703 107 m 986 765 q 1040 785 1021 774 q 1048 798 1049 789 q 1042 813 1047 807 q 1021 838 1036 819 q 990 871 1006 856 q 986 765 986 828 z "},"ば":{"ha":1389,"x_min":168,"x_max":1353,"o":"m 796 24 q 647 69 697 24 q 599 178 596 114 q 653 269 601 232 q 786 307 706 307 q 853 303 819 307 q 918 293 886 300 q 910 422 915 350 q 904 614 904 493 l 904 642 q 780 634 840 635 q 675 639 719 633 q 582 689 617 647 q 550 797 547 731 q 578 801 563 814 q 613 739 582 765 q 682 711 644 713 q 792 711 732 708 q 904 721 851 714 l 904 929 q 903 962 904 951 q 890 978 901 972 q 867 983 883 982 q 842 983 851 983 q 836 983 838 983 q 829 998 829 990 q 835 1011 829 1006 q 895 1019 857 1018 q 956 1013 933 1019 q 992 994 975 1008 q 1013 964 1008 981 q 1004 933 1018 947 q 991 910 996 925 q 982 875 986 896 q 1017 845 996 864 q 1062 813 1039 826 q 1100 799 1085 799 q 1132 797 1118 799 q 1161 785 1146 796 q 1173 751 1174 778 q 1136 704 1172 724 q 1064 674 1106 686 q 976 653 1022 661 l 976 615 q 983 466 976 526 q 996 360 989 406 q 1007 272 1003 315 q 1140 222 1081 250 q 1238 174 1199 194 q 1273 135 1265 158 q 1275 89 1281 113 q 1249 55 1269 64 q 1204 64 1229 46 q 1115 124 1165 92 q 1007 182 1065 156 q 940 65 997 106 q 796 24 882 24 m 361 15 q 324 4 347 4 q 283 18 301 4 q 201 129 235 54 q 168 339 168 204 q 183 506 168 431 q 216 644 197 581 q 249 763 235 707 q 264 874 264 819 q 251 928 264 901 q 226 972 239 956 q 246 993 226 993 q 322 926 286 971 q 358 831 358 882 q 341 746 358 790 q 300 646 324 701 q 259 517 276 590 q 242 346 242 444 q 268 210 242 256 q 283 199 275 197 q 294 213 290 200 q 319 293 304 244 q 351 394 335 342 q 383 492 368 447 q 407 563 399 538 q 433 551 428 572 q 415 483 426 528 q 390 382 403 438 q 365 269 376 326 q 350 167 354 213 q 353 129 349 142 q 374 90 358 117 q 375 88 375 89 q 381 47 386 68 q 361 15 375 26 m 797 103 q 878 132 842 103 q 919 214 915 161 q 851 229 886 224 q 781 235 817 235 q 695 218 725 235 q 663 178 665 201 q 692 123 660 143 q 797 103 725 103 m 1340 1031 q 1317 1023 1331 1024 q 1282 1036 1303 1022 q 1192 1092 1239 1069 q 1085 1121 1146 1115 q 1085 1150 1069 1135 q 1173 1162 1125 1160 q 1263 1153 1221 1164 q 1329 1115 1306 1143 q 1352 1066 1351 1090 q 1340 1031 1353 1042 m 1260 858 q 1235 857 1249 854 q 1206 879 1221 860 q 1131 954 1171 921 q 1033 1008 1092 988 q 1032 1025 1029 1017 q 1042 1036 1035 1033 q 1130 1026 1083 1036 q 1215 997 1176 1017 q 1271 942 1254 976 q 1281 890 1286 914 q 1260 858 1275 865 m 976 735 q 1028 753 1006 740 q 1035 766 1036 757 q 1029 781 1035 775 q 1009 805 1024 788 q 979 838 994 822 q 977 790 978 815 q 976 735 976 764 z "},"ひ":{"ha":1389,"x_min":265,"x_max":1278,"o":"m 582 0 q 354 83 439 0 q 269 329 269 165 q 294 492 269 411 q 355 645 318 572 q 431 776 392 718 q 503 869 471 833 q 463 855 488 865 q 413 835 438 844 q 374 826 389 826 q 322 848 344 826 q 285 899 299 869 q 265 947 271 928 q 292 958 275 968 q 322 926 303 942 q 382 910 342 910 q 445 924 407 910 q 526 956 483 939 q 606 982 569 974 q 642 976 626 988 q 672 944 657 964 q 633 886 711 897 q 579 865 603 881 q 515 796 556 849 q 447 692 485 756 q 383 542 410 628 q 357 349 357 457 q 413 170 357 238 q 585 103 469 103 q 744 142 682 103 q 842 244 807 181 q 895 385 878 308 q 917 541 913 463 q 921 686 921 619 q 915 833 921 779 q 897 916 908 888 q 868 963 885 944 q 858 1001 850 985 q 903 1013 865 1018 q 969 996 942 1007 q 993 961 996 985 q 1006 840 986 906 q 1063 713 1025 775 q 1147 605 1100 651 q 1243 540 1194 558 q 1267 514 1257 535 q 1274 458 1278 493 q 1248 423 1271 432 q 1189 436 1225 414 q 1107 513 1149 463 q 1028 628 1065 563 q 968 767 992 694 q 969 564 972 669 q 949 358 967 458 q 888 177 931 258 q 772 48 846 96 q 582 0 697 0 z "},"び":{"ha":1389,"x_min":244,"x_max":1326,"o":"m 557 -15 q 331 67 414 -15 q 247 315 247 150 q 272 476 247 397 q 333 626 296 556 q 410 752 369 696 q 482 844 450 808 q 442 830 467 840 q 392 810 417 819 q 353 801 368 801 q 301 823 324 801 q 264 873 278 844 q 244 922 250 901 q 256 933 247 931 q 271 933 264 936 q 301 900 282 915 q 361 885 321 885 q 424 899 386 885 q 506 931 463 914 q 585 957 549 949 q 621 951 606 963 q 651 919 636 939 q 613 860 690 874 q 558 840 582 856 q 494 771 533 824 q 426 669 464 731 q 363 525 389 608 q 336 333 336 442 q 390 155 336 222 q 558 88 444 88 q 717 125 656 88 q 815 225 779 163 q 867 364 850 288 q 888 517 883 440 q 892 661 892 594 q 885 808 892 754 q 867 890 879 861 q 839 938 856 919 q 828 976 821 960 q 874 988 835 993 q 938 971 911 982 q 963 936 965 960 q 976 815 957 881 q 1033 688 996 750 q 1118 580 1071 626 q 1213 515 1165 533 q 1238 488 1228 510 q 1244 432 1249 467 q 1219 397 1242 406 q 1160 411 1196 389 q 1077 488 1119 438 q 999 603 1035 538 q 939 742 963 669 q 940 540 943 644 q 920 336 938 435 q 861 158 903 238 q 746 32 819 79 q 557 -15 672 -15 m 1303 965 q 1278 962 1292 960 q 1247 983 1264 964 q 1172 1058 1213 1025 q 1074 1110 1132 1090 q 1070 1125 1068 1117 q 1081 1138 1072 1133 q 1169 1130 1122 1139 q 1254 1101 1215 1121 q 1311 1049 1293 1082 q 1322 997 1326 1021 q 1303 965 1317 972 m 1175 821 q 1151 825 1164 819 q 1126 853 1138 831 q 1073 942 1104 901 q 989 1018 1042 983 q 1003 1043 983 1039 q 1087 1013 1043 1033 q 1163 965 1131 993 q 1204 900 1196 936 q 1201 847 1213 869 q 1175 821 1190 824 z "},"ぴ":{"ha":1389,"x_min":244,"x_max":1313,"o":"m 557 -15 q 331 67 414 -15 q 247 315 247 150 q 272 476 247 397 q 333 626 296 556 q 410 752 369 696 q 482 844 450 808 q 442 830 467 840 q 392 810 417 819 q 353 801 368 801 q 301 823 324 801 q 264 873 278 844 q 244 922 250 901 q 256 933 247 931 q 271 933 264 936 q 301 900 282 915 q 361 885 321 885 q 424 899 386 885 q 506 931 463 914 q 585 957 549 949 q 621 951 606 963 q 651 919 636 939 q 613 860 690 874 q 558 840 582 856 q 494 771 533 824 q 426 669 464 731 q 363 525 389 608 q 336 333 336 442 q 390 155 336 222 q 558 88 444 88 q 717 125 656 88 q 815 225 779 163 q 867 364 850 288 q 888 517 883 440 q 892 661 892 594 q 885 808 892 754 q 867 890 879 861 q 839 938 856 919 q 828 976 821 960 q 874 988 835 993 q 938 971 911 982 q 963 936 965 960 q 976 815 957 881 q 1033 688 996 750 q 1118 580 1071 626 q 1213 515 1165 533 q 1238 488 1228 510 q 1244 432 1249 467 q 1219 397 1242 406 q 1160 411 1196 389 q 1077 488 1119 438 q 999 603 1035 538 q 939 742 963 669 q 940 540 943 644 q 920 336 938 435 q 861 158 903 238 q 746 32 819 79 q 557 -15 672 -15 m 1175 874 q 1079 915 1119 874 q 1039 1011 1039 956 q 1079 1108 1039 1068 q 1175 1147 1119 1147 q 1272 1108 1232 1147 q 1313 1011 1313 1068 q 1272 915 1313 956 q 1175 874 1232 874 m 1175 915 q 1242 944 1215 915 q 1268 1011 1268 972 q 1242 1078 1268 1050 q 1175 1107 1215 1107 q 1110 1078 1136 1107 q 1083 1011 1083 1050 q 1110 944 1083 972 q 1175 915 1136 915 z "},"ぶ":{"ha":1389,"x_min":81,"x_max":1311,"o":"m 201 -6 q 151 10 176 -6 q 103 61 125 26 q 94 132 81 99 q 144 191 107 165 q 231 231 181 217 q 332 244 282 246 l 333 244 q 474 369 394 306 q 643 478 553 433 q 599 554 618 514 q 579 646 579 594 q 610 760 579 714 q 692 832 642 806 q 634 868 667 844 q 578 927 601 892 q 554 1007 554 963 q 569 1015 561 1014 q 582 1010 576 1015 q 617 964 589 983 q 681 931 644 944 q 753 910 718 918 q 808 899 788 903 q 858 881 840 892 q 889 838 876 869 q 892 788 901 807 q 844 775 883 768 q 688 767 744 797 q 631 646 631 738 q 651 572 631 607 q 699 501 671 538 q 786 526 742 517 q 876 536 831 536 q 1055 504 981 536 q 1179 426 1129 472 q 1258 336 1229 381 q 1296 267 1286 292 q 1305 200 1311 233 q 1275 151 1299 167 q 1239 146 1257 139 q 1214 172 1221 153 q 1175 263 1200 210 q 1110 367 1150 317 q 1013 452 1069 418 q 878 486 956 486 q 733 458 806 486 q 810 354 775 410 q 844 226 844 299 q 805 114 844 154 q 692 74 765 74 q 623 90 650 74 q 568 127 596 106 q 498 167 540 149 q 382 193 456 186 q 322 114 347 151 q 282 49 296 76 q 201 -6 253 -6 m 672 176 q 723 190 706 176 q 740 239 740 203 q 721 349 740 303 q 674 433 701 394 q 538 345 601 397 q 421 238 474 293 q 513 215 475 229 q 587 188 550 200 q 672 176 624 176 m 1132 776 q 1107 777 1119 774 q 1081 803 1094 781 q 1016 887 1051 849 q 925 951 981 925 q 936 979 918 972 q 1023 958 978 974 q 1104 919 1068 943 q 1153 858 1140 894 q 1156 804 1164 828 q 1132 776 1147 781 m 1267 921 q 1243 915 1257 915 q 1211 933 1229 915 q 1128 999 1172 971 q 1024 1040 1085 1026 q 1028 1068 1011 1058 q 1117 1070 1069 1074 q 1205 1051 1164 1067 q 1267 1006 1246 1036 q 1283 954 1285 979 q 1267 921 1281 929 m 208 110 q 283 193 238 143 q 188 160 225 185 q 151 111 150 135 q 172 92 154 93 q 208 110 190 90 z "},"へ":{"ha":1389,"x_min":97,"x_max":1299,"o":"m 1199 204 q 966 356 1076 271 q 761 528 856 440 q 588 689 667 615 q 551 708 565 708 q 518 688 538 708 q 472 638 500 671 q 413 568 444 606 q 356 496 382 531 q 317 439 331 461 q 283 393 304 418 q 222 368 263 368 q 170 394 194 368 q 127 456 146 421 q 97 517 108 490 q 107 531 100 526 q 122 532 114 535 q 156 501 138 515 q 206 486 174 486 q 249 507 222 486 q 308 560 276 528 q 374 628 340 592 q 437 697 407 664 q 486 749 467 729 q 555 790 526 790 q 626 747 583 789 q 797 598 703 674 q 1001 455 892 522 q 1232 339 1110 388 q 1278 298 1257 329 q 1293 233 1299 267 q 1263 190 1288 197 q 1199 204 1238 182 z "},"ほ":{"ha":1389,"x_min":183,"x_max":1279,"o":"m 799 31 q 647 72 700 25 q 596 182 593 118 q 651 273 599 236 q 785 310 704 310 q 853 306 819 310 q 919 296 888 303 q 917 420 918 349 q 915 567 915 492 l 915 606 q 777 590 844 593 q 661 597 710 588 q 570 652 610 608 q 532 753 531 696 q 546 762 538 760 q 560 758 554 764 q 599 692 567 715 q 674 663 631 669 q 789 663 722 657 q 915 679 856 668 l 915 775 q 914 809 915 799 q 901 825 913 819 q 875 830 894 829 q 847 829 856 831 q 846 858 831 843 q 905 865 868 865 q 964 860 942 865 q 1002 840 985 854 q 1022 808 1019 825 q 1067 781 1042 794 q 1114 767 1093 767 q 1146 765 1132 767 q 1175 753 1160 764 q 1195 717 1194 739 q 1171 681 1196 696 q 985 618 1099 644 l 985 561 q 992 394 985 468 q 1003 276 999 321 q 1136 226 1076 254 q 1235 176 1196 199 q 1271 139 1263 161 q 1274 93 1279 117 q 1247 58 1268 67 q 1201 67 1226 49 q 1113 129 1163 96 q 1003 189 1063 163 q 940 78 990 121 q 799 31 889 36 m 372 10 q 335 1 358 0 q 294 17 313 3 q 219 127 254 47 q 183 342 183 207 q 197 511 183 433 q 229 656 211 589 q 261 783 247 724 q 275 896 275 842 q 263 951 275 924 q 238 994 250 978 q 257 1015 238 1015 q 333 949 297 993 q 369 853 369 904 q 351 765 369 813 q 310 658 333 718 q 269 523 288 599 q 251 350 251 447 q 279 204 251 253 q 294 193 286 192 q 304 207 301 194 q 329 288 314 239 q 362 390 344 336 q 394 488 379 443 q 418 558 410 533 q 435 558 426 561 q 444 547 443 554 q 425 477 438 522 q 399 376 413 432 q 376 264 386 321 q 361 161 365 207 q 364 123 360 136 q 386 82 368 110 q 392 42 397 63 q 372 10 386 21 m 847 903 q 719 918 769 903 q 625 981 669 933 q 646 1000 628 1003 q 722 971 675 978 q 822 969 768 964 q 928 986 876 975 q 1018 1010 981 997 q 1055 1015 1038 1017 q 1093 996 1072 1014 q 1114 961 1115 978 q 1076 933 1113 944 q 989 913 1046 924 q 847 903 932 903 m 794 110 q 878 145 844 113 q 918 221 911 178 q 850 236 885 231 q 779 242 815 242 q 694 223 724 242 q 661 181 664 204 q 690 126 657 146 q 794 110 722 106 m 986 696 q 1017 706 1003 701 q 1042 717 1032 711 q 1050 731 1050 722 q 1044 746 1050 740 q 1030 761 1039 753 q 1011 778 1021 769 q 986 696 988 753 z "},"ぼ":{"ha":1389,"x_min":163,"x_max":1365,"o":"m 782 26 q 630 67 683 21 q 579 178 576 114 q 635 269 582 232 q 768 306 688 306 q 903 293 839 306 q 900 403 901 339 q 899 540 899 467 l 899 581 q 755 565 825 568 q 636 572 685 563 q 574 606 601 579 q 530 668 546 632 q 515 743 514 704 q 544 747 529 760 q 577 674 550 704 q 649 638 604 644 q 767 638 697 632 q 899 657 836 644 l 899 750 q 897 783 899 772 q 885 799 896 793 q 858 805 878 804 q 831 804 839 806 q 824 819 824 811 q 829 832 824 826 q 888 840 851 839 q 947 833 925 840 q 985 813 968 828 q 1004 783 1001 799 q 1051 755 1025 769 q 1096 740 1076 740 q 1129 739 1115 740 q 1158 726 1143 738 q 1178 692 1178 713 q 1153 656 1179 671 q 1071 622 1119 638 q 968 593 1022 606 l 968 535 q 974 376 968 442 q 986 272 981 311 q 1119 222 1060 250 q 1218 172 1179 194 q 1254 135 1246 158 q 1257 89 1263 113 q 1231 54 1251 63 q 1185 64 1210 46 q 1096 125 1146 92 q 985 185 1046 158 q 782 26 961 39 m 354 18 q 319 8 342 8 q 278 21 296 7 q 196 132 229 57 q 163 342 163 207 q 177 510 163 433 q 210 652 192 588 q 242 774 228 717 q 257 886 257 832 q 244 942 257 915 q 221 985 232 969 q 226 1001 221 994 q 240 1006 232 1007 q 317 940 281 983 q 353 844 353 896 q 335 758 353 804 q 294 653 317 711 q 253 522 271 596 q 235 350 235 447 q 242 269 235 303 q 261 213 250 235 q 276 201 268 200 q 288 215 285 203 q 313 296 297 247 q 345 398 328 344 q 378 497 363 451 q 401 567 393 542 q 428 556 419 574 q 408 485 421 531 q 383 385 396 440 q 359 272 369 329 q 344 169 349 215 q 347 132 343 144 q 368 92 351 119 q 374 50 381 71 q 354 18 368 29 m 829 878 q 703 892 753 878 q 608 956 653 907 q 629 975 611 978 q 705 945 658 951 q 806 944 751 939 q 912 960 860 949 q 1001 985 964 972 q 1038 990 1021 990 q 1076 971 1056 989 q 1097 936 1099 953 q 1060 908 1094 919 q 972 888 1029 899 q 829 878 915 878 m 778 106 q 860 139 826 108 q 901 217 894 169 q 833 232 868 226 q 763 238 799 238 q 677 219 707 238 q 644 176 647 201 q 673 122 640 143 q 778 106 706 101 m 1238 885 q 1213 887 1225 882 q 1188 914 1200 892 q 1128 1001 1161 961 q 1042 1072 1094 1042 q 1054 1097 1035 1092 q 1139 1073 1094 1090 q 1217 1028 1183 1056 q 1263 965 1251 1001 q 1263 911 1272 935 q 1238 885 1253 888 m 1347 1040 q 1323 1035 1336 1035 q 1290 1051 1310 1035 q 1208 1117 1251 1089 q 1103 1158 1164 1144 q 1107 1186 1092 1175 q 1196 1188 1149 1192 q 1284 1170 1243 1185 q 1346 1124 1325 1156 q 1363 1072 1365 1097 q 1347 1040 1361 1047 m 969 674 q 1001 685 988 681 q 1025 696 1015 690 q 1028 721 1042 706 q 1013 735 1022 728 q 994 753 1004 743 q 969 674 971 728 z "},"ぽ":{"ha":1389,"x_min":163,"x_max":1368,"o":"m 782 26 q 630 67 683 21 q 579 178 576 114 q 635 269 582 232 q 768 306 688 306 q 903 293 839 306 q 900 403 901 339 q 899 540 899 467 l 899 579 q 760 565 828 568 q 644 572 693 563 q 553 627 593 583 q 514 728 514 671 q 543 732 528 743 q 581 667 550 689 q 657 638 613 644 q 772 637 706 632 q 899 654 839 642 l 899 750 q 897 783 899 772 q 885 799 896 793 q 858 805 878 804 q 831 804 839 806 q 824 819 824 811 q 829 832 824 826 q 888 840 851 839 q 947 833 925 840 q 985 813 968 828 q 1006 782 1003 799 q 1051 755 1025 769 q 1096 740 1076 740 q 1129 739 1115 740 q 1158 726 1143 738 q 1178 692 1178 713 q 1153 656 1179 671 q 1070 622 1118 638 q 968 593 1022 606 l 968 535 q 975 376 968 442 q 986 272 982 311 q 1119 222 1060 250 q 1218 172 1179 194 q 1254 135 1246 158 q 1257 89 1263 113 q 1231 54 1251 63 q 1185 64 1210 46 q 1096 125 1146 92 q 986 185 1046 158 q 782 26 961 39 m 354 18 q 319 8 342 8 q 278 21 296 7 q 196 132 229 57 q 163 342 163 207 q 177 510 163 433 q 210 652 192 588 q 242 774 228 717 q 257 886 257 832 q 244 942 257 915 q 221 985 232 969 q 226 1001 221 994 q 240 1006 232 1007 q 317 940 281 983 q 353 844 353 896 q 335 758 353 804 q 294 653 317 711 q 253 522 271 596 q 235 350 235 447 q 242 269 235 303 q 261 213 250 235 q 276 201 268 200 q 288 215 285 203 q 313 296 297 247 q 345 398 328 344 q 378 497 363 451 q 401 567 393 542 q 428 556 419 574 q 408 485 421 531 q 383 385 396 440 q 359 272 369 329 q 344 169 349 215 q 347 132 343 144 q 368 92 351 119 q 374 50 381 71 q 354 18 368 29 m 1232 915 q 1135 956 1175 915 q 1094 1053 1094 996 q 1135 1149 1094 1110 q 1232 1189 1175 1189 q 1328 1149 1289 1189 q 1368 1053 1368 1110 q 1328 956 1368 996 q 1232 915 1289 915 m 829 878 q 703 892 753 878 q 608 956 653 907 q 629 975 611 978 q 705 945 658 951 q 806 944 751 939 q 912 960 860 949 q 1001 985 964 972 q 1038 990 1021 990 q 1076 971 1056 989 q 1097 936 1099 953 q 1060 908 1094 919 q 972 888 1029 899 q 829 878 915 878 m 1232 957 q 1297 985 1271 957 q 1324 1053 1324 1014 q 1297 1119 1324 1092 q 1232 1147 1271 1147 q 1166 1119 1193 1147 q 1139 1053 1139 1092 q 1166 985 1139 1014 q 1232 957 1193 957 m 778 106 q 861 139 828 108 q 901 217 894 169 q 833 232 868 226 q 763 238 799 238 q 677 219 707 238 q 644 176 647 201 q 673 122 640 143 q 778 106 706 101 m 969 671 q 1001 681 986 676 q 1025 692 1015 686 q 1033 706 1032 696 q 1028 721 1033 715 q 1013 735 1022 728 q 994 751 1004 743 q 969 671 971 728 z "},"ま":{"ha":1389,"x_min":290,"x_max":1074,"o":"m 542 -39 q 426 -28 478 -44 q 342 26 374 -11 q 311 114 311 63 q 374 217 311 178 q 536 257 436 257 q 675 244 608 257 q 672 340 674 281 q 668 471 671 400 q 601 466 633 468 q 536 465 568 464 q 366 499 421 468 q 290 599 311 531 q 300 611 293 607 q 315 613 307 615 q 355 573 335 589 q 408 549 375 557 q 497 540 442 542 q 582 541 539 539 q 667 547 625 543 q 665 615 665 581 q 665 683 665 650 l 665 778 q 590 778 626 776 q 479 803 522 781 q 411 876 436 825 q 436 892 415 897 q 487 858 458 869 q 569 843 515 846 q 617 843 593 842 q 665 846 640 844 l 665 986 q 650 1036 665 1026 q 624 1041 643 1040 q 594 1040 604 1042 q 594 1069 581 1056 q 655 1076 617 1076 q 715 1069 693 1076 q 752 1051 735 1065 q 775 1021 769 1038 q 767 990 781 1004 q 747 942 753 976 q 739 853 740 907 q 854 879 817 864 q 891 885 874 888 q 929 863 908 882 q 948 826 950 844 q 910 801 946 808 q 842 790 889 796 q 738 781 794 785 l 738 686 q 738 617 738 650 q 740 556 739 585 q 846 577 800 565 q 910 600 892 589 q 916 610 917 604 q 908 619 915 617 q 879 631 900 624 q 838 647 858 639 q 806 658 817 656 q 806 675 803 667 q 817 685 808 683 q 849 676 826 682 q 900 665 872 671 q 951 653 928 658 q 986 649 975 649 q 1018 649 1007 650 q 1047 636 1029 647 q 1072 601 1071 624 q 1046 561 1074 578 q 920 514 1003 536 q 743 479 838 492 q 756 317 749 376 q 763 225 763 257 q 908 174 843 204 q 1015 117 974 144 q 1051 73 1043 99 q 1053 24 1060 47 q 1024 -8 1046 -3 q 978 7 1001 -14 q 876 86 931 49 q 757 150 822 124 q 688 20 742 69 q 542 -39 635 -29 m 533 54 q 624 94 589 60 q 669 179 660 128 q 605 190 639 186 q 535 194 571 194 q 421 172 460 194 q 382 117 382 150 q 422 65 382 82 q 533 54 461 49 z "},"み":{"ha":1389,"x_min":128,"x_max":1256,"o":"m 661 -37 q 644 -14 642 -33 q 801 138 722 49 q 932 336 879 226 q 777 400 860 372 q 607 438 694 428 q 447 231 535 304 q 247 154 358 158 q 163 178 193 153 q 131 247 132 204 q 177 379 128 321 q 310 473 226 438 q 493 511 394 508 q 563 511 528 513 q 619 675 599 594 q 653 825 639 756 q 688 944 668 894 q 688 967 693 958 q 661 969 683 975 q 601 949 642 965 q 528 913 560 932 q 488 881 506 897 q 447 861 471 865 q 400 879 422 857 q 363 933 378 901 q 342 989 347 965 q 353 1000 344 997 q 368 1000 361 1003 q 401 966 383 974 q 439 960 419 958 q 489 968 457 960 q 557 989 521 976 q 624 1013 593 1001 q 669 1032 654 1025 q 705 1045 693 1043 q 738 1036 717 1047 q 762 1022 749 1031 q 785 1004 775 1014 q 809 970 804 986 q 790 924 814 954 q 755 853 772 899 q 721 748 738 807 q 685 626 704 689 q 640 506 665 563 q 815 472 732 496 q 968 419 899 447 q 984 472 976 446 q 997 526 992 499 q 997 603 1006 574 q 939 644 988 632 q 946 672 929 663 q 1110 625 1049 664 q 1124 606 1121 618 q 1117 582 1126 593 q 1090 526 1096 558 q 1070 455 1082 490 q 1043 386 1058 419 q 1154 328 1108 356 q 1221 285 1200 300 q 1250 242 1244 269 q 1249 190 1256 214 q 1220 158 1240 165 q 1176 174 1200 151 q 1102 234 1147 201 q 1000 300 1057 267 q 661 -37 881 89 m 251 235 q 405 293 332 238 q 529 443 478 349 l 494 443 q 360 418 425 440 q 253 357 294 396 q 214 267 213 318 q 223 244 214 254 q 251 235 232 233 z "},"む":{"ha":1389,"x_min":188,"x_max":1258,"o":"m 649 -19 q 465 3 533 -19 q 368 66 397 25 q 339 164 339 107 q 344 219 339 193 q 357 271 350 244 q 298 322 325 290 q 254 397 271 354 q 236 471 240 428 q 266 634 224 582 q 372 686 308 686 q 387 685 379 686 q 401 683 394 685 l 401 783 q 362 779 382 781 q 321 778 342 778 q 216 817 244 778 q 188 913 188 856 q 215 917 200 929 q 248 858 219 875 q 326 840 276 840 q 401 851 361 840 q 401 919 401 886 q 403 979 401 953 q 374 1025 403 1013 q 324 1038 347 1035 q 317 1052 317 1044 q 322 1065 317 1060 q 392 1066 346 1071 q 471 1050 439 1061 q 508 1019 503 1039 q 497 981 514 1000 q 480 944 488 969 q 468 872 472 918 q 553 913 514 892 q 577 914 560 917 q 617 896 594 911 q 633 866 635 883 q 606 838 631 849 q 465 793 547 813 l 465 779 q 466 708 464 740 q 469 647 468 675 q 508 529 515 604 q 488 455 504 493 q 453 375 472 417 q 444 341 443 353 q 450 315 446 329 q 454 303 453 307 q 448 262 461 278 q 407 250 435 246 q 401 215 404 232 q 399 178 399 197 q 462 97 399 114 q 647 79 525 79 q 798 92 728 79 q 911 134 868 104 q 954 213 954 164 q 945 312 954 244 q 926 465 936 379 q 917 636 917 550 q 927 760 917 718 q 957 822 938 803 q 1003 851 976 842 q 1103 841 1044 867 q 1208 768 1163 815 q 1247 715 1235 742 q 1250 649 1258 688 q 1222 609 1240 611 q 1178 624 1204 607 q 1098 641 1144 643 q 997 631 1051 639 q 993 660 982 644 q 1025 666 1003 661 q 1069 676 1047 671 q 1103 685 1092 682 q 1113 724 1126 692 q 1075 769 1103 747 q 1024 788 1047 792 q 992 772 1004 783 q 973 731 979 761 q 967 638 967 700 q 985 435 967 525 q 1022 281 1004 346 q 1040 181 1040 217 q 938 35 1040 89 q 649 -19 835 -19 m 343 389 q 376 372 364 371 q 393 425 388 374 q 397 455 396 439 q 400 488 399 471 q 394 597 404 568 q 356 626 385 626 q 305 590 325 626 q 297 479 285 553 q 343 389 306 424 z "},"め":{"ha":1389,"x_min":165,"x_max":1192,"o":"m 578 24 q 569 43 569 32 q 576 61 569 54 q 835 124 719 76 q 1018 253 950 172 q 1086 443 1086 333 q 1062 567 1086 508 q 984 669 1038 626 q 842 725 931 711 q 649 433 760 575 q 706 400 676 414 q 732 371 725 392 q 736 324 739 350 q 718 299 735 304 q 675 306 701 293 q 631 331 653 317 q 588 361 610 344 q 424 207 506 268 q 282 146 343 146 q 215 177 240 146 q 189 274 189 208 q 238 451 189 356 q 368 624 286 546 q 315 719 340 671 q 269 819 290 768 q 253 860 261 839 q 229 889 246 881 q 202 897 215 896 q 181 899 189 899 q 179 928 165 914 q 189 929 182 928 q 242 931 208 931 q 297 919 276 932 q 322 887 313 913 q 339 844 332 861 q 379 756 357 799 q 426 675 401 714 q 581 761 497 728 q 758 794 665 794 l 786 794 q 807 845 797 819 q 824 894 817 871 q 826 906 825 899 q 840 962 835 933 q 838 1008 846 990 q 823 1029 832 1019 q 806 1044 814 1039 q 807 1060 803 1053 q 818 1068 811 1067 q 879 1041 850 1058 q 925 1007 908 1024 q 939 964 942 990 q 913 876 936 938 q 894 832 904 854 q 872 786 883 810 q 1056 716 986 768 q 1159 593 1126 664 q 1192 443 1192 522 q 1151 273 1192 344 q 1044 153 1111 201 q 895 77 976 106 q 731 36 814 49 q 578 24 649 24 m 303 250 q 402 295 342 250 q 531 413 463 340 q 465 484 496 444 q 404 567 433 524 q 308 428 343 503 q 272 290 272 354 q 278 261 272 272 q 303 250 285 250 m 590 481 q 678 601 636 538 q 756 731 721 665 q 599 700 672 729 q 464 622 525 671 q 527 544 494 581 q 590 481 560 508 z "},"も":{"ha":1389,"x_min":364,"x_max":1029,"o":"m 747 -44 q 613 -13 674 -44 q 515 88 551 18 q 479 268 479 157 l 479 303 q 396 361 428 322 q 364 464 364 400 q 419 601 364 546 q 556 688 475 656 l 558 693 q 481 738 514 708 q 447 806 447 767 q 460 815 451 813 q 475 811 468 817 q 511 774 482 788 q 576 757 540 761 q 622 909 603 840 q 640 1018 640 978 q 632 1069 640 1047 q 610 1106 624 1090 q 616 1121 610 1115 q 631 1125 622 1126 q 703 1069 674 1101 q 733 992 733 1036 q 706 894 733 953 q 644 753 679 835 q 669 747 661 751 q 690 729 678 742 q 712 674 721 700 q 671 654 703 649 q 607 653 639 658 q 572 527 588 594 q 549 382 556 460 q 613 379 582 378 q 667 383 644 381 q 694 385 685 388 q 718 368 704 382 q 738 319 746 342 q 686 289 731 296 q 613 283 650 283 q 543 288 576 282 l 543 268 q 572 135 543 186 q 648 63 601 85 q 750 40 694 40 q 872 88 824 40 q 919 203 919 135 q 901 324 919 264 q 854 436 882 383 q 799 528 826 489 q 756 586 772 567 q 776 606 758 608 q 819 565 790 593 q 884 496 849 536 q 953 408 919 456 q 1008 308 986 360 q 1029 203 1029 256 q 994 77 1029 133 q 897 -12 960 21 q 747 -44 833 -44 m 489 394 q 510 514 496 454 q 540 631 524 574 q 453 565 489 608 q 418 468 418 522 q 438 423 418 440 q 489 394 458 406 z "},"ゃ":{"ha":1389,"x_min":257,"x_max":1122,"o":"m 699 -57 q 673 -50 683 -60 q 663 -15 663 -40 q 642 117 663 42 q 589 271 622 192 q 515 417 556 350 q 421 351 457 382 q 382 313 396 331 q 342 294 368 294 q 306 314 324 294 q 275 356 288 333 q 257 392 263 379 q 275 404 260 407 q 329 379 299 379 q 391 402 349 379 q 490 456 433 425 q 458 501 475 481 q 426 539 442 522 q 399 576 408 558 q 390 615 390 593 q 415 667 390 647 q 481 688 440 688 q 569 667 525 688 q 649 633 614 647 q 701 646 682 621 q 707 683 710 657 q 683 732 704 710 q 700 747 686 750 q 751 701 728 733 q 771 628 774 668 q 754 585 768 603 q 843 611 799 601 q 926 621 888 621 q 1041 594 999 621 q 1103 529 1083 568 q 1122 454 1122 490 q 1073 335 1122 382 q 921 288 1024 288 q 796 319 853 288 q 694 396 739 351 q 710 411 694 414 q 921 351 801 351 q 1013 379 978 351 q 1049 467 1049 407 q 1014 544 1049 511 q 922 576 979 576 q 810 557 874 576 q 682 507 747 538 q 558 443 617 476 q 622 326 589 389 q 684 201 656 263 q 730 89 713 140 q 747 4 747 38 q 733 -37 747 -22 q 699 -57 719 -53 m 538 482 q 618 524 576 503 q 703 564 660 546 q 694 567 699 565 q 686 571 690 569 q 628 608 664 589 q 556 641 592 628 q 494 651 519 654 q 464 631 469 649 q 475 585 458 613 q 502 543 486 569 q 538 482 518 517 z "},"や":{"ha":1389,"x_min":111,"x_max":1265,"o":"m 700 -56 q 665 -47 679 -60 q 651 1 651 -33 q 624 178 651 78 q 553 383 597 278 q 454 578 508 488 q 331 490 378 529 q 293 455 308 472 q 263 426 278 438 q 224 414 247 414 q 176 440 199 414 q 135 497 153 465 q 111 544 118 528 q 135 560 117 564 q 207 528 165 528 q 289 557 232 528 q 422 629 346 586 q 380 690 401 661 q 338 740 358 718 q 300 790 311 768 q 289 842 289 813 q 322 913 289 886 q 410 939 354 939 q 489 926 449 939 q 566 896 529 913 q 633 867 603 879 q 703 883 676 850 q 711 933 714 899 q 681 999 708 968 q 687 1014 681 1008 q 701 1018 693 1019 q 769 957 739 1000 q 796 858 799 914 q 790 828 796 843 q 774 800 783 813 q 892 837 835 824 q 1003 850 950 850 q 1156 815 1099 850 q 1240 727 1214 779 q 1265 626 1265 675 q 1199 467 1265 529 q 996 406 1132 406 q 830 448 907 406 q 694 550 753 490 q 714 571 694 571 q 997 490 838 490 q 1120 528 1074 490 q 1167 644 1167 565 q 1121 747 1167 704 q 997 790 1075 790 q 849 765 932 790 q 678 698 765 739 q 514 613 592 657 q 599 456 556 540 q 681 291 643 372 q 741 141 718 210 q 764 28 764 72 q 746 -28 764 -8 q 700 -56 728 -49 m 485 664 q 592 720 536 692 q 704 772 649 749 q 685 783 693 776 q 606 833 654 807 q 509 876 557 858 q 428 890 461 894 q 388 862 394 886 q 403 801 381 838 q 437 745 415 781 q 485 664 458 710 z "},"ゆ":{"ha":1389,"x_min":163,"x_max":1253,"o":"m 517 -74 q 500 -40 490 -64 q 715 176 647 36 q 542 294 613 204 q 456 507 471 385 q 397 391 417 449 q 378 288 378 333 q 388 248 378 263 q 415 211 397 233 q 433 158 438 189 q 404 107 428 126 q 362 101 386 93 q 310 140 338 108 q 221 299 258 201 q 183 544 183 397 q 196 738 183 651 q 208 878 208 825 q 199 938 208 918 q 168 972 189 957 q 183 997 163 992 q 262 952 224 983 q 300 874 300 921 q 288 792 300 844 q 264 676 276 740 q 251 544 251 613 q 272 384 251 446 q 311 292 293 322 q 453 586 347 457 q 484 765 456 679 q 559 918 513 850 q 660 1025 606 986 q 758 1064 711 1064 q 815 1042 790 1064 q 853 969 840 1019 q 865 901 860 939 q 875 819 871 864 q 907 822 890 821 q 942 822 924 822 q 1110 780 1040 822 q 1217 668 1181 738 q 1249 515 1253 599 q 1185 342 1244 421 q 1026 215 1126 263 q 799 167 926 168 q 676 22 750 78 q 517 -74 603 -35 m 838 250 q 980 290 911 257 q 1094 382 1049 324 q 1144 522 1140 440 q 1126 641 1149 586 q 1056 731 1103 696 q 938 765 1008 765 q 908 765 924 765 q 879 763 893 764 q 883 665 882 715 q 885 561 885 614 q 872 390 885 467 q 838 250 860 313 m 746 253 q 785 563 785 378 q 784 656 785 610 q 782 746 783 703 q 623 675 693 722 q 503 571 553 628 l 503 565 q 528 426 501 493 q 609 313 554 360 q 746 253 664 265 m 508 649 q 633 741 565 701 q 779 801 700 781 q 772 891 776 850 q 761 958 768 932 q 724 1000 753 1000 q 671 972 701 1000 q 569 838 615 919 q 508 649 524 756 z "},"ょ":{"ha":1389,"x_min":381,"x_max":1000,"o":"m 563 -28 q 433 4 485 -31 q 381 96 381 39 q 423 172 381 142 q 542 201 465 201 q 607 198 574 201 q 674 189 640 194 q 665 283 671 226 q 655 405 660 340 q 650 526 650 469 q 651 619 650 579 q 656 688 653 658 q 643 738 660 729 q 622 741 635 740 q 601 740 608 742 q 601 763 589 753 q 647 767 617 768 q 694 763 676 767 q 742 737 732 756 q 738 699 753 718 q 716 660 724 681 q 706 600 708 640 q 717 572 704 578 q 757 567 731 567 q 882 593 826 567 q 902 599 894 600 q 924 586 910 597 q 952 556 950 569 q 943 533 954 542 q 917 519 932 524 q 810 509 865 506 q 722 525 756 513 q 704 518 704 533 q 724 299 704 381 q 749 172 743 217 q 879 132 821 154 q 964 94 938 110 q 994 64 988 82 q 996 28 1000 46 q 976 1 992 7 q 940 8 960 -6 q 858 58 910 31 q 746 108 807 86 q 683 10 732 44 q 563 -28 633 -25 m 560 46 q 634 70 604 49 q 672 131 664 92 q 606 146 639 140 q 542 151 574 151 q 461 138 486 151 q 436 97 436 124 q 466 59 436 74 q 560 46 496 44 z "},"よ":{"ha":1389,"x_min":275,"x_max":1101,"o":"m 518 -17 q 394 1 449 -19 q 307 60 339 21 q 275 149 275 99 q 333 250 275 210 q 492 290 390 290 q 578 285 533 290 q 667 272 624 281 q 656 400 664 324 q 641 562 647 476 q 635 724 635 647 q 643 939 635 863 q 643 983 646 967 q 625 1004 640 999 q 601 1009 615 1008 q 576 1010 586 1010 q 571 1010 572 1010 q 564 1024 564 1017 q 569 1038 564 1032 q 632 1044 592 1044 q 694 1039 672 1044 q 758 1004 743 1029 q 751 954 772 979 q 722 903 732 929 q 708 822 711 876 q 725 785 707 793 q 778 776 743 776 q 944 813 872 776 q 971 819 961 821 q 1000 804 981 817 q 1038 762 1035 781 q 1026 731 1040 743 q 990 714 1011 719 q 849 700 922 696 q 731 722 775 704 q 707 713 707 731 q 719 501 707 590 q 747 352 732 413 q 767 251 761 292 q 941 197 863 226 q 1054 147 1019 167 q 1093 107 1085 132 q 1096 58 1101 82 q 1069 23 1090 31 q 1021 33 1047 15 q 912 99 981 63 q 763 165 843 135 q 678 35 744 82 q 518 -17 613 -12 m 515 83 q 614 116 574 86 q 665 197 654 146 q 576 216 621 208 q 490 224 532 224 q 383 206 415 224 q 350 151 350 188 q 390 99 350 119 q 515 83 431 79 z "},"ら":{"ha":1389,"x_min":361,"x_max":1074,"o":"m 576 -49 q 566 -31 567 -42 q 572 -12 565 -19 q 717 18 647 -4 q 843 76 788 40 q 931 157 899 111 q 964 260 964 203 q 944 351 964 310 q 886 419 924 393 q 799 444 849 444 q 694 414 740 444 q 618 344 649 383 q 572 278 588 306 q 531 228 560 256 q 463 204 503 200 q 388 241 415 208 q 361 356 361 274 q 367 432 361 390 q 381 519 374 474 q 401 656 392 585 q 404 793 410 728 q 419 865 400 839 q 469 905 438 892 q 537 923 501 918 q 600 931 572 928 l 600 931 q 676 959 654 935 q 687 1019 699 983 q 625 1090 675 1054 q 642 1114 622 1111 q 752 1054 699 1096 q 824 964 806 1013 q 827 910 835 938 q 792 867 819 882 q 747 856 765 853 q 706 869 728 860 q 665 884 688 876 q 608 892 642 892 q 501 870 536 892 q 475 796 465 849 q 478 656 486 728 q 460 524 469 585 q 450 463 454 492 q 446 413 446 435 q 473 344 446 354 q 542 364 500 333 q 605 414 567 382 q 692 472 643 446 q 799 499 742 499 q 930 469 867 499 q 1033 387 993 440 q 1074 260 1074 333 q 1038 130 1074 183 q 946 42 1003 76 q 822 -11 889 8 q 690 -39 756 -31 q 576 -49 625 -47 z "},"り":{"ha":1389,"x_min":421,"x_max":994,"o":"m 511 -68 q 497 -53 501 -62 q 497 -33 493 -43 q 624 40 563 -1 q 736 143 686 82 q 820 296 786 204 q 865 518 854 388 q 859 722 876 646 q 804 831 842 797 q 714 865 767 865 q 639 842 675 865 q 576 780 603 818 q 534 697 549 742 q 522 610 519 651 q 539 501 528 538 q 563 433 550 465 q 572 388 574 407 q 546 350 569 369 q 469 383 499 310 q 428 544 436 465 q 429 694 421 624 q 453 822 438 764 q 482 924 468 881 q 496 969 490 950 q 500 997 501 988 q 488 1044 499 1029 q 454 1067 476 1060 q 453 1083 450 1075 q 464 1094 456 1092 q 538 1067 500 1090 q 579 999 576 1043 q 572 952 581 979 q 550 893 563 925 q 522 814 535 856 q 506 731 508 772 q 553 822 522 778 q 626 894 583 865 q 718 924 668 922 q 922 828 849 931 q 976 521 994 725 q 847 158 958 306 q 511 -68 735 10 z "},"る":{"ha":1389,"x_min":249,"x_max":1101,"o":"m 722 -8 q 542 40 600 -10 q 497 163 485 89 q 547 239 506 211 q 649 260 589 267 q 762 208 719 253 q 826 85 804 163 q 944 165 896 108 q 992 313 993 222 q 934 467 990 406 q 771 525 878 528 q 633 492 696 524 q 517 410 569 461 q 422 299 465 358 q 344 181 379 239 q 298 146 325 147 q 261 168 271 144 q 253 230 249 200 q 283 282 257 260 q 366 368 319 315 q 463 485 413 421 q 564 617 514 550 q 658 746 614 685 q 733 853 701 807 q 778 922 764 900 q 791 967 796 953 q 760 975 786 981 q 594 892 681 960 q 555 856 571 874 q 503 836 539 838 q 456 859 479 836 q 417 912 433 882 q 394 960 401 942 q 419 975 400 981 q 456 944 439 953 q 503 936 472 935 q 568 955 526 936 q 663 997 610 974 q 775 1035 717 1021 q 837 1046 818 1046 q 878 1032 856 1046 q 894 911 990 965 q 838 861 875 900 q 758 770 801 822 q 672 664 715 718 q 593 565 628 610 q 540 497 558 519 q 648 559 588 533 q 771 586 708 585 q 947 551 874 588 q 1059 453 1019 515 q 1100 315 1099 392 q 1051 141 1101 213 q 916 31 1001 69 q 722 -8 831 -7 m 725 68 l 738 68 q 704 142 725 113 q 644 181 683 171 q 597 181 618 188 q 571 151 576 175 q 576 115 567 135 q 622 81 586 94 q 725 68 657 67 z "},"れ":{"ha":1389,"x_min":104,"x_max":1340,"o":"m 451 3 q 421 13 433 3 q 410 43 408 22 q 403 127 411 83 q 379 214 394 171 q 351 282 367 249 q 321 346 336 315 q 251 235 282 286 q 201 149 221 183 q 126 117 165 83 q 104 164 104 136 q 131 221 104 192 q 194 301 156 249 q 282 415 233 353 q 238 486 260 456 q 203 535 217 517 q 178 603 178 568 q 214 669 178 639 q 308 726 249 699 q 422 768 367 753 q 428 877 425 831 q 435 946 431 924 q 419 1003 442 993 q 397 1009 411 1008 q 375 1008 383 1010 q 374 1036 361 1024 q 430 1044 397 1043 q 485 1038 463 1044 q 535 1006 514 1031 q 540 957 557 982 q 493 779 510 910 q 546 764 525 778 q 571 728 567 750 q 706 816 638 782 q 842 850 774 850 q 940 824 901 850 q 997 757 979 799 q 1010 665 1015 715 q 1001 569 1006 624 q 991 460 996 515 q 983 357 986 406 q 981 276 981 308 q 1003 203 981 222 q 1072 183 1025 183 q 1219 219 1163 183 q 1317 303 1276 254 q 1340 286 1338 306 q 1274 201 1319 246 q 1170 124 1229 156 q 1047 93 1111 93 q 927 130 972 93 q 882 257 882 167 q 888 381 882 307 q 901 532 893 454 q 913 671 908 610 q 892 760 917 732 q 826 789 868 789 q 709 758 769 789 q 590 674 649 726 q 476 556 532 621 q 476 508 476 533 q 475 457 475 483 q 485 290 475 369 q 503 154 494 210 q 513 81 513 99 q 495 24 513 44 q 451 3 478 3 m 314 456 q 364 517 338 486 q 418 579 390 549 q 418 616 418 599 q 419 651 418 633 q 374 679 415 686 q 318 660 349 675 q 268 628 288 644 q 247 595 249 610 q 258 557 246 581 q 283 513 268 540 q 314 456 297 486 m 407 264 q 414 256 410 254 q 418 267 418 257 q 418 330 418 299 q 418 390 418 361 q 417 422 417 407 q 417 450 417 436 l 417 482 q 382 435 399 458 q 349 388 365 411 q 385 315 369 349 q 407 264 401 282 z "},"ろ":{"ha":1389,"x_min":217,"x_max":1157,"o":"m 624 -31 q 613 -12 614 -24 q 618 6 613 -1 q 722 30 665 14 q 835 72 779 46 q 939 135 892 97 q 1015 222 986 172 q 1043 338 1043 272 q 978 513 1043 447 q 799 578 913 578 q 660 549 731 578 q 526 470 590 519 q 411 358 463 421 q 329 229 360 296 q 284 192 313 192 q 238 213 256 192 q 219 251 222 232 q 239 299 217 269 q 302 378 261 328 q 394 491 343 429 q 501 619 446 553 q 608 747 557 685 q 701 858 660 808 q 765 935 743 907 q 778 978 789 963 q 740 990 768 994 q 640 960 696 983 q 543 906 583 938 q 495 866 518 888 q 436 844 472 844 q 394 866 414 844 q 359 917 375 888 q 333 971 343 946 q 343 983 336 979 q 357 985 350 988 q 393 954 376 963 q 440 946 410 946 q 517 967 465 946 q 633 1013 568 988 q 758 1050 697 1038 q 837 1057 811 1061 q 888 1021 863 1053 q 908 953 914 986 q 865 906 901 921 q 783 848 829 889 q 688 753 736 807 q 595 648 639 700 q 521 556 551 596 q 481 503 490 517 q 568 563 518 532 q 676 615 618 594 q 799 636 735 636 q 983 603 903 636 q 1110 505 1064 571 q 1157 339 1157 439 q 1119 189 1157 251 q 1019 84 1081 126 q 887 17 958 42 q 746 -18 815 -7 q 624 -31 676 -29 z "},"わ":{"ha":1389,"x_min":163,"x_max":1221,"o":"m 474 -4 q 436 35 436 -4 q 425 147 438 89 q 392 260 413 204 l 375 306 q 319 201 344 250 q 281 124 294 153 q 249 78 267 89 q 208 86 232 67 q 204 189 163 124 q 269 282 233 233 q 340 382 306 331 q 277 492 310 444 q 224 557 244 539 q 197 622 193 585 q 238 689 201 658 q 337 749 279 722 q 456 790 394 775 q 467 910 461 860 q 475 983 472 960 q 461 1040 482 1029 q 439 1045 453 1044 q 417 1046 425 1046 q 410 1060 410 1053 q 415 1074 410 1068 q 470 1081 438 1081 q 525 1075 503 1082 q 576 1044 554 1068 q 582 994 597 1019 q 552 922 567 971 q 526 804 538 872 q 552 802 540 806 q 576 786 564 799 q 593 704 615 749 q 568 658 583 688 q 532 592 553 629 q 685 693 599 653 q 863 733 772 733 q 1058 692 978 733 q 1179 581 1138 651 q 1221 422 1221 511 q 1185 259 1221 326 q 1093 148 1150 192 q 969 77 1036 104 q 836 34 901 50 q 721 7 771 18 q 711 43 697 21 q 791 67 742 51 q 895 110 840 83 q 999 177 950 136 q 1080 277 1049 218 q 1111 415 1111 336 q 1084 546 1111 488 q 1001 638 1057 604 q 861 672 946 672 q 685 632 768 672 q 536 526 603 592 q 518 509 526 518 q 501 492 510 500 l 501 481 q 511 258 500 351 q 531 117 522 165 q 535 90 533 101 q 536 74 536 79 q 518 17 536 38 q 474 -4 500 -4 m 368 422 q 412 501 392 463 q 444 578 432 539 q 447 641 446 610 q 450 701 449 672 q 418 703 439 708 q 354 682 388 696 q 293 646 321 668 q 268 611 269 628 q 281 576 267 594 q 324 508 301 550 q 368 422 347 467 m 426 286 q 436 278 431 276 q 442 290 442 281 q 443 359 443 326 q 443 421 443 392 q 431 404 438 413 q 418 386 425 396 l 400 351 q 414 317 407 333 q 426 286 421 300 z "},"を":{"ha":1389,"x_min":228,"x_max":1204,"o":"m 714 -37 q 500 -3 583 -37 q 411 117 417 32 q 447 222 407 178 q 550 308 486 265 q 611 347 575 325 q 689 394 647 369 q 672 485 685 443 q 635 552 658 526 q 572 578 611 578 q 478 551 524 578 q 395 485 432 525 q 332 401 358 444 q 290 360 310 361 q 250 388 271 360 q 238 442 228 419 q 269 485 247 464 q 348 569 306 518 q 433 680 390 619 q 513 801 476 740 q 467 800 490 800 q 424 800 444 800 q 314 839 344 800 q 283 938 283 878 q 311 942 296 954 q 349 884 318 896 q 424 872 379 872 q 489 874 454 872 q 558 882 524 876 q 579 924 569 903 q 596 963 589 944 q 601 1033 613 1003 q 547 1076 589 1064 q 553 1104 536 1094 q 624 1091 583 1103 q 690 1064 664 1079 q 716 1027 714 1050 q 700 989 718 1004 q 679 967 689 979 q 663 943 669 954 q 650 921 657 933 q 635 894 643 908 q 708 915 679 903 q 737 921 722 921 q 774 906 751 921 q 803 863 806 883 q 776 835 801 842 q 697 819 750 826 q 582 807 643 811 q 503 679 543 743 q 436 574 464 615 q 500 612 464 596 q 575 628 536 628 q 681 592 640 628 q 743 504 721 557 q 807 625 767 569 q 901 715 847 681 q 1022 749 956 749 q 1133 728 1092 749 q 1189 678 1174 707 q 1196 624 1204 650 q 1157 585 1188 597 q 1049 535 1113 567 q 915 463 986 503 q 775 382 844 424 q 786 273 785 326 q 788 188 788 219 q 768 139 788 156 q 726 122 749 122 q 698 133 706 122 q 690 164 690 144 q 690 180 690 171 q 692 201 690 189 q 693 260 692 226 q 693 331 694 294 q 633 292 661 311 q 582 256 606 272 q 525 197 540 225 q 513 132 510 168 q 574 67 519 82 q 725 53 629 53 q 855 63 792 53 q 953 83 918 72 q 981 89 971 89 q 1007 82 990 89 q 1067 28 1065 56 q 1032 -10 1068 1 q 894 -31 982 -24 q 714 -37 807 -37 m 764 440 q 903 522 833 481 q 1031 597 974 563 q 1079 661 1082 629 q 1019 693 1076 693 q 903 656 954 693 q 817 560 851 618 q 764 440 782 503 z "},"ん":{"ha":1389,"x_min":188,"x_max":1253,"o":"m 928 -31 q 760 160 739 -31 q 767 229 764 190 q 775 306 771 268 q 781 369 779 343 q 776 447 783 410 q 739 506 768 483 q 646 529 710 529 q 533 501 593 529 q 424 422 474 474 q 350 293 375 369 q 317 165 328 225 q 299 49 306 106 q 268 5 296 13 q 221 11 240 -3 q 195 42 203 26 q 193 90 188 58 q 260 306 214 192 q 366 535 307 421 q 486 749 425 649 q 596 919 547 849 q 622 992 621 957 q 596 1056 624 1026 q 615 1078 596 1078 q 676 1036 647 1063 q 721 982 706 1010 q 701 894 756 925 q 640 841 674 879 q 570 753 606 803 q 502 649 535 703 q 443 547 469 594 q 401 467 417 499 q 472 527 429 500 q 562 571 514 554 q 651 588 610 588 q 831 525 779 588 q 876 364 883 463 q 868 268 872 317 q 858 164 864 219 q 878 88 854 108 q 936 68 901 68 q 1051 93 1000 68 q 1138 152 1101 118 q 1196 215 1175 186 q 1221 250 1217 243 q 1253 231 1249 254 q 1229 188 1247 218 q 1181 122 1211 158 q 1113 50 1151 85 q 1027 -8 1074 15 q 928 -31 981 -31 z "},"ア":{"ha":1389,"x_min":199,"x_max":1189,"o":"m 349 -21 q 331 -10 338 -18 q 326 8 325 -1 q 542 267 454 111 q 658 606 631 424 q 617 665 663 649 q 613 681 611 672 q 622 693 615 689 q 699 686 654 696 q 765 663 743 676 q 769 660 768 661 q 772 658 771 660 q 843 706 800 676 q 926 764 886 735 q 982 808 965 793 q 974 844 1015 840 q 862 846 932 849 q 711 835 792 843 q 558 815 631 826 q 438 792 485 804 q 374 769 403 782 q 313 757 346 757 q 263 781 288 757 q 222 835 239 804 q 199 885 204 865 q 209 898 201 894 q 224 899 217 901 q 284 865 251 875 q 381 865 317 856 q 511 881 435 874 q 672 894 588 889 q 835 901 756 899 q 975 904 915 904 q 1010 910 997 904 q 1035 921 1024 915 q 1058 929 1050 929 q 1076 921 1067 929 q 1111 881 1090 908 q 1151 826 1132 854 q 1179 782 1169 797 q 1176 756 1189 765 q 1150 753 1165 744 q 1123 761 1135 763 q 1100 756 1111 760 q 1037 735 1076 750 q 951 701 997 719 q 863 663 904 682 q 793 632 821 644 q 781 604 794 618 q 763 583 768 594 q 754 551 758 571 q 673 329 729 438 q 535 131 617 221 q 349 -21 453 40 z "},"イ":{"ha":1389,"x_min":218,"x_max":978,"o":"m 746 -24 q 701 3 719 -17 q 685 49 683 22 q 688 103 685 60 q 693 207 690 146 q 699 338 696 268 q 703 476 701 408 q 706 597 706 544 q 704 619 706 610 q 700 635 703 629 q 532 490 618 557 q 371 371 446 422 q 244 289 296 319 q 224 321 218 296 q 323 397 263 347 q 453 510 383 446 q 592 648 522 575 q 723 795 663 721 q 824 938 783 869 q 836 961 833 953 q 836 983 839 969 q 826 1002 835 994 q 808 1014 818 1010 q 818 1039 801 1032 q 874 1024 843 1038 q 933 990 906 1010 q 971 950 960 971 q 974 927 978 938 q 958 914 969 917 q 938 907 946 911 q 922 892 929 903 q 840 782 888 836 q 740 675 793 728 q 769 665 756 671 q 792 653 782 660 q 802 635 803 647 q 794 611 801 622 q 785 574 785 594 q 785 440 785 511 q 788 298 786 368 q 790 167 789 228 q 792 67 792 107 q 793 15 793 26 q 780 -20 793 -11 q 746 -24 767 -29 z "},"ウ":{"ha":1389,"x_min":289,"x_max":1151,"o":"m 460 -3 q 444 10 449 0 q 442 31 439 21 q 656 183 551 92 q 845 399 761 274 q 975 683 929 524 q 977 713 982 706 q 950 722 972 721 q 838 722 904 724 q 698 715 772 719 q 552 705 624 711 q 424 690 481 699 q 456 460 463 604 q 433 418 454 438 q 386 399 413 399 q 358 406 368 399 q 349 432 347 414 q 349 440 349 435 q 355 597 354 524 q 339 724 356 671 q 292 794 324 769 q 310 817 289 817 q 376 764 347 794 q 382 758 379 761 q 388 751 385 754 q 506 765 438 758 q 647 776 575 771 l 647 901 q 646 933 647 918 q 635 958 644 949 q 589 976 621 972 q 590 1006 575 993 q 669 999 624 1006 q 739 979 714 993 q 764 953 757 969 q 758 921 771 936 q 742 891 746 907 q 738 850 738 875 l 738 783 q 821 787 782 786 q 890 789 860 788 q 940 794 924 789 q 968 807 957 799 q 997 821 986 821 q 1028 808 1007 821 q 1060 787 1040 801 q 1101 757 1081 772 q 1131 732 1121 742 q 1147 699 1151 714 q 1118 676 1142 683 q 1090 655 1100 669 q 1072 621 1079 640 q 919 347 1010 464 q 712 146 828 231 q 460 -3 596 61 z "},"ェ":{"ha":1389,"x_min":268,"x_max":1132,"o":"m 357 114 q 320 132 339 114 q 287 173 301 150 q 268 211 272 196 q 276 221 271 218 q 288 221 282 224 q 337 192 311 196 q 410 193 363 188 q 514 203 447 199 q 654 210 581 207 q 656 264 654 229 q 658 336 657 299 q 659 403 658 374 q 660 440 660 432 q 659 473 660 460 q 651 496 658 486 q 603 490 625 493 q 561 482 581 486 q 542 478 551 481 q 526 472 533 475 q 500 465 513 468 q 476 463 488 463 q 440 478 458 463 q 410 515 422 494 q 394 551 399 536 q 414 561 400 567 q 456 536 432 542 q 528 535 481 531 q 634 543 578 539 q 740 551 690 547 q 818 558 790 556 q 849 565 836 560 q 875 576 861 569 q 895 582 886 583 q 913 576 904 581 q 945 559 932 569 q 968 539 958 549 q 977 510 985 521 q 943 501 969 499 q 883 505 921 504 q 822 506 846 506 q 713 501 765 506 q 726 496 719 499 q 739 490 733 493 q 755 468 757 481 q 742 443 753 456 q 731 409 736 435 q 724 348 726 383 q 721 276 722 313 q 719 213 719 240 q 851 217 790 215 q 940 217 911 218 q 976 219 958 215 q 1006 225 994 222 q 1014 226 1011 226 q 1038 229 1025 229 q 1064 221 1050 229 q 1095 200 1076 214 q 1121 175 1114 186 q 1127 149 1132 161 q 1099 142 1122 136 q 1039 151 1075 147 q 976 157 1003 156 q 844 160 921 160 q 689 156 767 160 q 548 147 614 153 q 442 133 482 140 q 400 121 417 128 q 357 114 383 114 z "},"エ":{"ha":1389,"x_min":126,"x_max":1278,"o":"m 244 174 q 195 197 221 174 q 151 252 169 221 q 126 304 132 283 q 153 317 133 324 q 217 277 182 282 q 315 279 251 272 q 454 292 365 286 q 640 301 543 297 q 642 374 640 328 q 644 469 643 419 q 647 558 646 519 q 649 608 649 597 q 647 652 649 633 q 636 683 646 671 q 573 674 603 679 q 517 664 543 669 q 456 648 483 658 q 403 638 428 638 q 355 659 378 638 q 316 709 332 681 q 294 757 300 738 q 319 769 301 776 q 376 736 343 743 q 472 735 408 729 q 615 747 539 740 q 756 758 690 753 q 860 765 822 763 q 900 775 883 768 q 935 792 917 782 q 961 797 949 799 q 986 790 974 796 q 1028 767 1010 781 q 1060 740 1047 753 q 1072 701 1083 717 q 1026 690 1061 685 q 947 694 996 694 q 865 696 897 694 q 791 694 828 696 q 718 690 754 693 q 753 675 739 682 q 774 645 776 661 q 757 611 772 629 q 743 567 749 601 q 734 485 738 532 q 728 390 731 438 q 726 306 726 342 q 903 310 822 308 q 1022 310 983 313 q 1071 313 1046 308 q 1113 322 1096 318 q 1121 324 1118 324 q 1152 326 1136 326 q 1188 315 1168 326 q 1228 287 1204 306 q 1263 254 1253 268 q 1271 220 1278 236 q 1233 210 1264 204 q 1153 223 1201 217 q 1069 231 1106 229 q 893 235 996 235 q 688 229 790 235 q 499 217 588 225 q 358 199 411 210 q 335 193 346 196 q 315 186 325 190 q 283 177 299 181 q 244 174 267 174 z "},"オ":{"ha":1389,"x_min":181,"x_max":1218,"o":"m 249 18 q 231 31 238 21 q 228 50 225 40 q 390 210 303 115 q 557 417 476 304 q 694 644 638 529 q 544 628 614 638 q 417 606 474 618 q 361 589 383 600 q 304 576 339 578 q 254 597 281 575 q 208 647 228 618 q 181 694 188 675 q 206 708 188 717 q 269 675 236 678 q 361 678 303 672 q 369 679 367 679 q 468 688 404 682 q 608 699 532 693 q 757 711 685 706 q 754 821 756 772 q 753 896 753 869 q 747 940 753 921 q 729 969 742 960 q 711 979 724 974 q 683 988 699 985 q 688 1015 671 1006 q 764 1008 718 1015 q 835 988 810 1001 q 860 961 853 978 q 854 929 867 944 q 837 899 840 915 q 833 858 833 883 q 833 718 831 792 q 911 724 876 721 q 967 728 946 726 q 1011 735 994 729 q 1056 756 1028 740 q 1125 750 1082 772 q 1167 724 1143 742 q 1201 697 1192 707 q 1213 665 1218 679 q 1176 653 1207 651 q 1126 656 1157 654 q 1065 659 1096 657 q 1011 661 1033 661 q 923 660 967 661 q 835 656 879 658 q 845 489 839 572 q 858 335 851 406 q 871 213 865 264 q 878 143 876 163 q 867 86 882 115 q 827 38 851 57 q 776 18 803 18 q 728 63 742 18 q 697 108 721 86 q 642 149 672 131 q 585 178 611 167 q 597 204 578 197 q 635 190 608 200 q 692 171 663 181 q 738 157 722 161 q 776 179 776 146 q 774 256 776 196 q 768 399 771 315 q 761 571 765 483 q 631 383 704 472 q 482 219 557 293 q 344 92 407 144 q 249 18 282 40 z "},"カ":{"ha":1389,"x_min":190,"x_max":1096,"o":"m 217 -3 q 193 26 190 0 q 338 185 263 92 q 482 398 414 279 q 594 654 550 517 q 485 633 531 646 q 464 628 474 631 q 444 621 454 625 q 404 608 425 614 q 356 604 383 603 q 308 631 332 606 q 265 688 283 657 q 239 732 246 718 q 263 747 244 751 q 315 713 289 722 q 367 701 340 703 q 458 708 388 701 q 614 721 529 714 q 634 815 625 767 q 649 911 643 863 q 650 919 649 914 q 649 981 653 958 q 606 1017 644 1003 q 604 1033 601 1025 q 614 1044 607 1042 q 657 1035 631 1043 q 710 1016 683 1026 q 754 996 738 1006 q 785 961 782 982 q 771 924 788 940 q 749 891 756 910 q 739 849 742 872 q 728 788 735 818 q 714 729 721 758 q 782 735 750 732 q 839 739 814 738 q 885 748 867 742 q 919 764 904 754 q 955 783 943 781 q 986 775 967 786 q 1033 744 1004 765 q 1075 711 1061 722 q 1094 684 1092 699 q 1075 654 1096 669 q 1056 622 1060 642 q 1049 579 1051 603 q 1022 454 1040 521 q 981 324 1004 388 q 930 208 957 260 q 876 124 903 156 q 815 65 849 90 q 738 36 781 40 q 710 41 718 35 q 694 64 701 47 q 650 138 681 108 q 579 186 619 167 q 581 203 576 196 q 593 211 585 210 q 647 191 615 204 q 706 168 679 178 q 756 161 738 156 q 796 190 774 167 q 841 258 817 213 q 890 367 865 304 q 932 500 914 429 q 957 642 950 571 q 954 671 960 661 q 926 681 949 681 q 820 677 881 681 q 694 667 760 674 q 568 392 647 521 q 397 162 489 263 q 217 -3 304 61 z "},"キ":{"ha":1389,"x_min":176,"x_max":1189,"o":"m 772 -31 q 728 -13 747 -29 q 707 35 710 3 q 690 201 703 99 q 663 417 678 304 q 533 390 594 404 q 419 360 472 375 q 366 337 388 350 q 310 319 344 324 q 271 330 292 318 q 231 360 250 342 q 176 433 192 400 q 200 450 181 454 q 265 422 232 421 q 354 432 297 422 q 367 435 363 433 q 487 456 407 442 q 653 485 567 471 q 636 595 644 542 q 621 696 628 649 q 555 679 586 688 q 496 661 524 671 q 438 638 464 651 q 386 622 411 625 q 335 640 361 621 q 290 684 310 658 q 264 729 271 710 q 289 744 271 749 q 349 719 315 722 q 444 726 382 715 q 527 743 485 735 q 611 760 569 751 q 596 850 603 811 q 585 908 589 889 q 560 967 578 943 q 497 993 543 990 q 493 1008 492 1000 q 500 1021 494 1017 q 572 1019 528 1024 q 639 1008 615 1015 q 669 940 685 994 q 663 889 663 915 q 671 818 664 863 q 674 797 672 808 q 678 774 676 786 q 746 787 714 781 q 800 797 778 793 q 839 810 824 801 q 872 831 854 818 q 897 840 885 840 q 924 836 910 839 q 968 816 949 828 q 1001 793 988 804 q 1018 756 1026 772 q 975 740 1010 739 q 913 738 951 742 q 842 731 875 735 q 826 729 833 731 q 813 728 819 728 q 748 721 779 725 q 689 710 717 717 q 706 610 696 665 q 726 499 717 556 q 847 519 792 510 q 933 533 903 528 q 977 543 961 536 q 1019 568 993 550 q 1089 569 1044 588 q 1134 548 1108 564 q 1169 524 1160 532 q 1184 492 1189 508 q 1149 474 1179 475 q 1099 472 1129 474 q 1037 467 1068 469 q 985 461 1006 464 q 859 447 921 456 q 740 429 797 439 q 772 262 757 343 q 801 117 788 181 q 822 22 815 54 q 813 -18 829 -4 q 772 -31 796 -32 z "},"ク":{"ha":1389,"x_min":250,"x_max":1124,"o":"m 269 1 q 255 16 260 6 q 256 36 250 26 q 392 121 315 69 q 549 238 468 172 q 708 383 631 304 q 849 551 785 463 q 953 735 913 640 q 955 763 961 756 q 928 771 949 771 q 852 769 897 771 q 761 763 807 767 q 681 754 715 758 q 601 655 649 708 q 501 549 554 601 q 399 453 449 497 q 308 383 349 410 q 290 406 288 386 q 385 501 333 444 q 485 620 436 557 q 575 745 535 683 q 636 857 615 807 q 653 924 654 897 q 618 978 651 950 q 638 1000 618 1000 q 694 969 660 990 q 746 925 728 947 q 751 850 783 882 q 733 831 740 839 q 719 814 726 824 q 797 822 757 818 q 873 828 838 825 q 926 833 908 832 q 986 853 963 835 q 1008 864 1000 864 q 1029 853 1017 864 q 1071 815 1044 840 q 1110 776 1097 789 q 1120 748 1124 763 q 1090 726 1117 733 q 1047 676 1067 718 q 900 463 990 567 q 702 271 810 360 q 482 113 594 182 q 269 1 369 44 z "},"グ":{"ha":1389,"x_min":208,"x_max":1343,"o":"m 228 -21 q 213 -7 218 -17 q 214 13 208 3 q 350 97 274 46 q 508 215 426 149 q 666 360 589 282 q 807 528 743 439 q 911 711 871 617 q 913 741 919 733 q 886 749 907 749 q 810 746 856 749 q 718 740 764 743 q 639 732 672 736 q 560 633 607 686 q 460 527 513 579 q 357 431 407 475 q 267 360 307 386 q 249 383 246 364 q 343 478 292 422 q 444 597 394 533 q 533 722 493 661 q 594 833 574 783 q 611 901 613 875 q 576 956 610 928 q 594 978 574 978 q 652 947 618 968 q 704 903 686 925 q 724 861 724 879 q 710 828 725 843 q 692 809 699 817 q 678 790 685 801 q 756 799 715 794 q 831 806 796 803 q 885 811 867 810 q 918 817 904 813 q 944 831 932 821 q 967 842 958 842 q 988 831 975 842 q 1029 792 1003 818 q 1068 754 1056 767 q 1078 724 1082 739 q 1049 703 1075 710 q 1026 687 1036 700 q 1006 654 1015 674 q 858 441 949 544 q 660 249 768 338 q 440 91 553 160 q 228 -21 328 22 m 1174 789 q 1148 791 1161 786 q 1124 818 1135 796 q 1068 908 1100 867 q 983 981 1036 949 q 996 1007 976 1001 q 1080 979 1036 999 q 1158 932 1124 960 q 1201 868 1192 904 q 1199 815 1210 838 q 1174 789 1189 792 m 1319 921 q 1295 917 1308 915 q 1265 938 1282 919 q 1188 1010 1229 978 q 1088 1061 1147 1043 q 1085 1076 1082 1068 q 1094 1089 1088 1085 q 1183 1083 1136 1090 q 1269 1056 1229 1075 q 1326 1004 1308 1038 q 1339 952 1343 976 q 1319 921 1335 928 z "},"ケ":{"ha":1389,"x_min":160,"x_max":1182,"o":"m 385 -42 q 367 -30 372 -39 q 363 -11 361 -21 q 530 146 454 56 q 661 342 606 236 q 744 563 717 449 l 744 565 q 756 628 754 603 q 738 678 758 654 q 674 671 704 675 q 619 660 644 667 q 556 653 586 654 q 506 663 525 651 q 465 701 483 676 q 327 549 404 625 q 181 422 250 472 q 165 428 171 422 q 161 443 160 435 q 250 536 203 482 q 342 653 297 590 q 426 780 388 715 q 486 904 464 844 q 503 974 503 946 q 469 1031 504 1003 q 489 1053 467 1050 q 547 1020 513 1043 q 603 976 582 997 q 613 900 647 931 q 585 873 594 883 q 561 838 576 863 q 532 791 549 815 q 494 739 515 767 q 574 728 525 724 q 706 739 633 733 q 844 751 778 744 q 954 761 911 757 q 994 771 978 764 q 1029 788 1011 778 q 1056 794 1043 794 q 1081 788 1068 793 q 1125 762 1104 778 q 1158 733 1146 746 q 1172 695 1182 711 q 1126 683 1161 679 q 1063 686 1101 686 q 992 686 1025 686 q 978 686 985 686 q 965 686 971 686 q 800 682 878 686 q 833 663 817 672 q 858 644 849 654 q 872 569 904 604 q 847 542 856 551 q 829 504 838 532 q 660 199 775 343 q 385 -42 546 54 z "},"コ":{"ha":1389,"x_min":239,"x_max":1118,"o":"m 354 203 q 306 226 331 203 q 263 281 282 250 q 239 332 244 313 q 264 346 246 354 q 326 310 293 314 q 418 311 358 307 q 426 311 424 311 q 528 316 468 314 q 655 321 589 318 q 781 325 721 324 q 879 326 840 326 q 900 332 892 326 q 911 356 908 338 q 922 417 915 375 q 935 508 928 458 q 950 602 943 558 q 961 669 957 646 q 957 701 965 692 q 919 710 949 710 q 813 706 876 710 q 681 697 749 703 q 560 685 614 692 q 482 671 506 678 q 421 652 449 661 q 368 643 393 643 q 337 653 353 643 q 308 678 321 664 q 277 724 290 699 q 261 767 264 750 q 286 779 268 786 q 344 748 313 754 q 438 747 375 742 q 558 756 488 751 q 699 765 628 760 q 826 773 769 769 q 908 779 883 776 q 949 786 935 782 q 978 804 963 790 q 1005 817 994 818 q 1029 806 1015 817 q 1067 769 1044 793 q 1100 733 1089 746 q 1117 703 1115 717 q 1099 678 1118 690 q 1074 651 1082 668 q 1056 615 1065 635 q 1042 572 1051 603 q 1021 503 1032 542 q 1000 428 1010 464 q 986 372 990 393 q 987 347 983 353 q 1008 342 990 342 q 1063 314 1038 342 q 1080 263 1088 288 q 1047 242 1072 238 q 982 251 1025 246 q 890 256 939 256 q 810 255 854 256 q 721 253 767 254 q 585 244 653 250 q 468 231 518 239 q 413 213 435 224 q 354 203 390 203 z "},"ゴ":{"ha":1389,"x_min":231,"x_max":1339,"o":"m 346 197 q 298 221 322 197 q 255 276 274 244 q 231 326 236 307 q 256 339 238 346 q 315 304 283 308 q 400 303 346 300 q 409 304 404 304 q 418 304 414 304 q 518 310 460 307 q 640 315 576 313 q 762 318 704 317 q 858 319 819 319 q 879 325 871 319 q 890 349 888 331 q 901 410 894 368 q 915 501 907 451 q 929 594 922 550 q 940 661 936 638 q 935 692 943 683 q 897 701 928 701 q 792 695 854 701 q 667 680 731 689 q 550 662 603 671 q 474 646 497 653 q 417 636 443 638 q 369 635 392 635 q 360 635 363 635 q 324 649 342 635 q 290 682 306 663 q 266 723 276 701 q 253 758 256 744 q 278 771 260 778 q 335 740 304 746 q 429 739 365 733 q 547 747 479 743 q 684 756 615 751 q 808 764 753 760 q 888 771 863 768 q 928 778 914 774 q 957 796 942 782 q 983 809 972 810 q 1007 797 993 808 q 1045 761 1022 785 q 1079 725 1068 738 q 1078 669 1111 690 q 1053 643 1061 660 q 1035 606 1044 626 q 1021 564 1031 594 q 1000 495 1011 533 q 979 422 989 457 q 965 365 969 386 q 966 341 963 347 q 988 335 969 335 q 1042 307 1017 335 q 1059 256 1067 281 q 1026 235 1051 231 q 961 244 1004 239 q 869 249 918 249 q 787 249 831 249 q 699 246 743 249 q 572 238 635 243 q 460 224 508 233 q 404 208 426 218 q 346 197 382 197 m 1322 928 q 1299 921 1313 921 q 1265 938 1285 921 q 1181 1001 1226 974 q 1075 1039 1136 1028 q 1079 1067 1063 1057 q 1168 1072 1121 1074 q 1256 1056 1215 1069 q 1319 1011 1297 1042 q 1338 960 1339 985 q 1322 928 1336 936 m 1211 768 q 1187 767 1200 764 q 1160 793 1174 771 q 1093 874 1129 838 q 1000 938 1057 911 q 999 953 996 946 q 1010 964 1003 961 q 1097 946 1051 960 q 1178 908 1142 932 q 1229 850 1215 885 q 1234 797 1242 821 q 1211 768 1226 774 z "},"サ":{"ha":1389,"x_min":117,"x_max":1275,"o":"m 549 -44 q 532 -32 538 -42 q 529 -12 526 -22 q 681 128 611 43 q 793 335 750 213 q 838 626 836 457 q 700 622 767 626 q 634 619 667 621 q 571 615 601 618 q 574 497 572 557 q 578 395 576 438 q 581 343 581 353 q 558 299 581 322 q 515 276 535 276 q 476 314 476 276 l 476 608 q 406 601 439 604 q 349 592 374 597 q 293 576 315 586 q 236 565 271 565 q 187 588 213 565 q 142 639 161 610 q 117 689 122 668 q 142 701 124 708 q 204 666 171 669 q 297 667 238 663 q 306 667 303 667 q 374 670 329 668 q 476 675 419 672 l 476 838 q 474 869 476 853 q 461 896 472 885 q 413 914 447 910 q 409 929 407 921 q 417 942 411 938 q 467 940 438 943 q 526 930 497 936 q 572 914 556 924 q 597 888 590 904 q 592 856 604 871 q 574 826 578 842 q 569 785 571 810 q 569 679 567 754 q 706 685 636 682 q 838 692 775 689 l 838 919 q 836 953 838 935 q 825 978 835 972 q 806 989 818 983 q 778 996 794 994 q 782 1024 765 1014 q 832 1022 803 1025 q 889 1012 861 1018 q 933 996 917 1006 q 960 969 953 986 q 953 938 967 953 q 938 908 940 924 q 936 867 936 892 l 936 696 q 988 698 965 697 q 1025 699 1011 699 q 1070 705 1053 700 q 1114 724 1088 710 q 1185 717 1140 739 q 1226 692 1203 708 q 1258 665 1249 676 q 1269 633 1275 647 q 1232 621 1263 619 q 1182 624 1213 624 q 1120 626 1151 625 q 1067 628 1089 628 q 1003 629 1036 629 q 936 629 971 629 q 899 369 935 481 q 807 179 864 258 q 683 46 750 100 q 549 -44 615 -8 z "},"シ":{"ha":1389,"x_min":244,"x_max":1206,"o":"m 385 69 q 342 117 365 89 q 299 174 318 146 q 271 222 279 203 q 281 235 274 231 q 294 236 288 239 q 331 208 310 219 q 382 197 351 197 q 436 205 413 197 q 488 226 460 213 q 628 313 550 258 q 788 433 706 367 q 948 569 871 500 q 1085 701 1025 639 q 1176 808 1144 764 q 1206 786 1203 811 q 1133 681 1181 743 q 1020 547 1085 618 q 882 404 956 475 q 733 272 808 333 q 588 167 657 210 q 508 115 535 135 q 471 71 482 94 q 385 69 443 11 m 681 726 q 653 721 668 719 q 622 749 639 722 q 576 807 604 776 q 515 865 547 838 q 450 906 482 892 q 458 932 440 925 q 549 917 503 929 q 635 886 596 906 q 693 839 674 867 q 709 775 715 808 q 681 726 703 742 m 483 494 q 458 489 472 488 q 425 517 443 490 q 380 575 408 544 q 319 633 351 606 q 254 674 286 660 q 263 700 244 693 q 353 685 307 697 q 438 653 400 674 q 496 604 476 632 q 513 542 518 575 q 483 494 507 510 z "},"ジ":{"ha":1389,"x_min":239,"x_max":1243,"o":"m 450 57 q 364 58 421 0 q 323 108 346 79 q 281 165 300 136 q 254 214 263 194 q 279 228 261 236 q 315 199 294 210 q 365 186 335 188 q 419 192 396 185 q 472 213 443 199 q 572 269 514 232 q 697 353 631 306 q 831 452 763 400 q 959 554 899 504 q 1065 647 1019 604 q 1135 717 1111 689 q 1164 693 1161 719 q 1094 607 1143 661 q 981 488 1046 553 q 842 358 915 424 q 699 238 769 293 q 569 150 628 183 q 488 100 515 119 q 450 57 461 81 m 669 714 q 643 708 658 707 q 611 736 628 710 q 565 794 593 764 q 504 851 536 825 q 440 893 472 878 q 439 908 436 900 q 449 919 442 917 q 540 905 493 917 q 624 874 586 893 q 682 826 663 854 q 699 763 704 796 q 669 714 693 729 m 474 482 q 447 476 461 475 q 415 504 432 478 q 369 563 397 532 q 308 619 340 593 q 243 661 275 646 q 242 676 239 668 q 251 688 244 685 q 342 672 296 685 q 428 640 389 660 q 486 592 467 619 q 502 529 508 561 q 474 482 496 497 m 1082 779 q 1058 783 1069 778 q 1035 811 1046 789 q 982 902 1013 860 q 900 979 951 944 q 914 1004 896 999 q 997 974 954 994 q 1073 924 1040 953 q 1114 857 1106 894 q 1109 804 1121 826 q 1082 779 1097 782 m 1218 918 q 1193 915 1207 913 q 1164 938 1179 918 q 1090 1013 1129 979 q 992 1067 1050 1046 q 999 1094 982 1088 q 1088 1085 1040 1094 q 1173 1056 1135 1076 q 1228 1001 1211 1035 q 1238 949 1243 972 q 1218 918 1233 925 z "},"ス":{"ha":1389,"x_min":194,"x_max":1126,"o":"m 221 31 q 204 64 194 40 q 390 185 293 113 q 576 347 486 258 q 738 534 667 436 q 849 729 810 632 q 855 772 863 761 q 819 783 847 783 q 747 776 794 783 q 647 760 699 769 q 554 739 594 750 q 495 719 521 731 q 444 708 469 708 q 413 719 429 708 q 382 744 397 729 q 349 792 364 767 q 328 835 335 817 q 338 847 331 843 q 353 849 344 851 q 412 817 379 822 q 507 817 444 811 q 594 826 543 821 q 701 838 646 832 q 800 847 756 843 q 857 868 840 851 q 888 883 875 883 q 914 875 900 883 q 948 848 928 865 q 988 814 968 831 q 1017 786 1007 797 q 1027 755 1032 769 q 1000 733 1022 740 q 967 709 982 728 q 940 669 951 690 q 863 548 906 607 q 772 433 821 489 q 974 338 889 390 q 1097 235 1058 285 q 1124 176 1121 206 q 1117 124 1126 146 q 1092 96 1107 103 q 1033 117 1056 81 q 917 269 986 194 q 747 406 847 343 q 508 196 642 292 q 221 31 374 100 z "},"ズ":{"ha":1389,"x_min":181,"x_max":1332,"o":"m 203 31 q 186 44 192 35 q 185 64 181 54 q 370 185 274 113 q 557 347 467 258 q 719 534 647 436 q 831 729 792 632 q 835 772 843 761 q 800 783 828 783 q 727 776 775 783 q 627 760 679 769 q 535 739 575 750 q 476 719 501 731 q 426 708 451 708 q 394 719 410 708 q 363 744 378 729 q 330 792 344 767 q 308 835 315 817 q 333 849 317 856 q 392 817 360 822 q 488 817 425 811 q 576 826 525 821 q 683 838 628 832 q 782 847 738 843 q 839 868 821 851 q 869 883 856 883 q 894 875 882 883 q 949 831 917 860 q 997 786 982 803 q 1008 755 1013 769 q 981 733 1003 740 q 947 709 963 728 q 921 669 932 690 q 754 433 851 543 q 954 338 869 390 q 1078 235 1039 285 q 1104 176 1101 206 q 1097 124 1107 146 q 1072 96 1088 103 q 1014 117 1036 81 q 897 269 967 194 q 729 406 828 343 q 489 196 622 292 q 203 31 356 100 m 1179 765 q 1153 767 1167 761 q 1129 796 1140 774 q 1072 885 1104 844 q 988 958 1040 925 q 989 974 985 967 q 1000 983 993 982 q 1085 956 1042 975 q 1163 910 1129 938 q 1206 846 1196 882 q 1206 794 1214 815 q 1179 765 1197 774 m 1307 911 q 1257 924 1283 894 q 1177 1000 1222 964 q 1072 1060 1132 1036 q 1083 1086 1065 1079 q 1169 1072 1122 1083 q 1255 1043 1215 1061 q 1314 996 1294 1025 q 1327 945 1332 969 q 1307 911 1322 921 z "},"セ":{"ha":1389,"x_min":138,"x_max":1151,"o":"m 801 33 q 653 56 707 33 q 578 119 600 78 q 557 213 557 160 l 557 569 q 458 543 506 556 q 379 519 411 531 q 317 492 347 510 q 263 472 286 475 q 231 478 247 471 q 200 499 215 486 q 161 542 178 518 q 138 585 144 567 q 147 598 140 593 q 161 600 154 603 q 223 572 189 578 q 318 583 257 567 q 422 609 358 594 q 557 640 486 624 l 557 865 q 556 900 557 882 q 544 924 554 918 q 526 935 539 929 q 497 942 514 940 q 503 971 486 960 q 581 963 536 971 q 653 943 626 956 q 678 917 674 933 q 672 885 683 901 q 658 853 663 868 q 650 814 654 839 q 646 751 649 792 q 640 658 643 710 q 802 694 726 678 q 917 719 878 710 q 952 728 938 724 q 979 746 967 732 q 1003 765 993 761 q 1026 761 1013 768 q 1083 726 1047 750 q 1139 685 1118 701 q 1146 660 1151 675 q 1126 646 1140 644 q 1098 642 1108 646 q 1076 626 1088 638 q 1034 582 1060 610 q 983 523 1008 554 q 935 466 957 492 q 906 429 914 440 q 882 446 885 426 q 907 502 892 465 q 937 576 922 539 q 957 632 951 613 q 956 654 961 649 q 931 657 950 660 q 808 633 889 651 q 638 590 726 614 q 633 449 635 521 q 632 320 632 378 q 635 233 632 263 q 672 149 639 172 q 801 125 706 125 q 926 138 872 125 q 1004 157 979 150 q 1039 156 1021 164 q 1081 138 1064 147 q 1107 117 1097 128 q 1117 76 1128 94 q 1065 50 1106 57 q 948 38 1018 43 q 801 33 878 33 z "},"タ":{"ha":1389,"x_min":201,"x_max":1108,"o":"m 221 -8 q 206 6 210 -4 q 206 26 201 17 q 373 126 283 68 q 553 258 463 183 q 724 421 644 332 q 630 517 683 471 q 511 590 576 563 q 388 473 450 528 q 279 388 325 418 q 261 411 258 392 q 358 508 304 450 q 464 631 411 565 q 559 758 517 696 q 622 871 601 821 q 639 938 640 911 q 604 993 638 964 q 608 1008 603 1001 q 622 1014 614 1014 q 680 983 646 1004 q 732 940 714 963 q 752 899 751 917 q 738 864 753 881 q 719 847 726 854 q 706 829 713 839 q 783 837 743 833 q 858 843 824 840 q 910 847 892 846 q 943 854 929 850 q 969 868 957 858 q 992 879 985 879 q 1014 868 1000 879 q 1039 844 1024 860 q 1070 814 1054 829 q 1093 790 1086 799 q 1104 762 1108 776 q 1074 740 1100 747 q 1026 693 1046 733 q 946 555 992 622 q 846 426 900 488 q 883 385 867 406 q 908 346 899 365 q 924 286 926 314 q 907 240 921 258 q 875 218 893 222 q 825 257 844 208 q 805 301 818 276 q 775 351 792 325 q 509 141 653 233 q 221 -8 365 49 m 779 486 q 865 613 826 547 q 932 751 904 679 q 934 780 940 772 q 907 788 928 788 q 835 785 878 788 q 747 778 792 782 q 668 771 703 775 q 611 699 644 738 q 542 622 578 661 q 663 566 601 603 q 779 486 725 529 z "},"ダ":{"ha":1389,"x_min":197,"x_max":1369,"o":"m 217 -31 q 202 -17 207 -26 q 203 3 197 -7 q 369 102 281 44 q 549 235 458 160 q 721 399 640 310 q 627 494 681 449 q 508 568 574 540 q 384 451 447 506 q 276 365 321 396 q 258 388 256 368 q 355 484 301 426 q 460 607 408 542 q 555 735 513 672 q 618 847 597 797 q 635 915 636 889 q 601 969 633 942 q 619 992 599 992 q 676 960 643 982 q 728 917 710 939 q 733 842 767 874 q 703 806 714 822 q 781 814 740 810 q 855 821 821 818 q 907 825 889 824 q 967 844 943 826 q 989 856 981 856 q 1010 844 997 856 q 1051 806 1025 832 q 1090 768 1078 781 q 1101 739 1104 754 q 1071 717 1097 724 q 1024 671 1043 710 q 943 532 989 599 q 843 404 897 465 q 880 362 864 382 q 906 324 896 342 q 914 238 931 274 q 871 194 897 201 q 821 235 840 188 q 801 278 814 254 q 771 329 789 303 q 505 118 649 210 q 217 -31 361 26 m 775 464 q 862 590 822 525 q 929 728 901 656 q 931 758 938 750 q 904 765 925 765 q 831 763 875 765 q 743 756 788 760 q 664 747 699 751 q 608 677 642 715 q 538 599 575 639 q 660 543 597 579 q 775 464 722 507 m 1206 771 q 1180 773 1193 768 q 1154 800 1167 778 q 1096 888 1129 847 q 1010 958 1063 928 q 1022 985 1003 978 q 1107 958 1063 976 q 1186 914 1151 940 q 1231 851 1221 888 q 1231 797 1240 821 q 1206 771 1221 774 m 1349 907 q 1324 903 1338 901 q 1292 922 1310 904 q 1214 993 1256 963 q 1113 1040 1172 1024 q 1109 1056 1107 1047 q 1118 1068 1111 1064 q 1206 1065 1160 1071 q 1293 1041 1253 1058 q 1353 990 1333 1024 q 1366 939 1369 964 q 1349 907 1363 914 z "},"ッ":{"ha":1389,"x_min":344,"x_max":1054,"o":"m 414 0 q 403 26 396 10 q 605 149 506 79 q 783 309 704 219 q 904 508 863 399 q 922 558 915 536 q 925 599 928 581 q 889 650 921 633 q 897 671 882 665 q 963 646 925 665 q 1018 608 1000 626 q 1019 549 1054 575 q 996 519 1006 538 q 967 457 986 500 q 867 299 929 371 q 728 171 804 228 q 570 72 651 114 q 414 0 489 29 m 476 367 q 456 368 467 363 q 440 393 444 374 q 403 494 429 443 q 344 576 376 544 q 360 592 344 592 q 444 538 404 569 q 506 461 485 506 q 510 403 519 431 q 476 367 500 376 m 688 463 q 667 465 678 460 q 653 490 657 471 q 571 669 633 599 q 585 685 571 685 q 665 631 629 661 q 719 557 701 601 q 722 499 732 526 q 688 463 711 472 z "},"ツ":{"ha":1389,"x_min":226,"x_max":1151,"o":"m 321 22 q 305 37 310 26 q 306 57 300 47 q 575 219 443 126 q 813 433 707 313 q 975 699 918 553 q 997 767 989 736 q 1003 821 1006 797 q 953 889 997 865 q 965 915 946 908 q 1021 897 989 911 q 1082 866 1053 883 q 1126 832 1111 849 q 1151 790 1151 808 q 1128 754 1151 772 q 1095 713 1108 738 q 1057 631 1082 688 q 924 421 1007 515 q 739 251 840 326 q 529 118 638 175 q 321 22 421 61 m 403 511 q 376 512 390 506 q 356 544 363 518 q 306 679 340 613 q 229 789 271 746 q 247 811 226 811 q 362 738 308 782 q 442 636 415 694 q 449 559 461 594 q 403 511 436 524 m 686 639 q 658 641 672 633 q 639 675 644 649 q 598 806 626 743 q 529 914 569 869 q 549 935 529 935 q 656 863 608 903 q 728 764 703 824 q 731 686 744 722 q 686 639 717 650 z "},"テ":{"ha":1389,"x_min":189,"x_max":1213,"o":"m 342 -53 q 324 -41 329 -50 q 321 -22 318 -32 q 447 86 386 22 q 558 227 508 150 q 639 388 607 304 q 679 551 671 471 q 680 594 682 575 q 667 629 678 613 q 536 615 599 624 q 421 597 474 606 q 365 581 388 592 q 308 569 343 569 q 259 593 285 569 q 214 647 233 617 q 189 697 194 678 q 214 710 196 717 q 276 674 243 678 q 369 675 310 671 q 378 675 375 675 q 470 682 411 678 q 601 692 529 686 q 744 702 672 697 q 874 710 815 707 q 964 715 932 714 q 1008 722 992 717 q 1053 742 1025 726 q 1122 735 1079 756 q 1164 707 1140 725 q 1197 678 1188 689 q 1206 646 1213 660 q 1169 635 1200 632 q 1119 638 1150 636 q 1058 640 1089 639 q 1006 640 1028 640 q 872 640 939 642 q 746 635 806 638 q 731 633 736 633 q 769 611 750 622 q 800 589 788 600 q 807 539 835 563 q 790 522 797 532 q 776 489 783 513 q 682 274 747 379 q 528 83 617 168 q 342 -53 440 -3 m 508 860 q 460 879 483 860 q 421 925 438 899 q 399 969 404 951 q 422 986 403 990 q 460 960 442 968 q 504 952 478 953 q 575 954 531 951 l 576 954 q 671 963 621 957 q 767 975 721 968 q 844 990 814 982 q 850 992 846 990 q 876 997 864 996 q 901 993 888 999 q 937 972 921 983 q 965 949 953 961 q 975 917 983 931 q 939 906 967 903 q 858 908 904 910 q 763 903 811 907 q 672 895 714 900 q 606 886 631 890 q 553 870 572 881 q 508 860 533 860 z "},"デ":{"ha":1389,"x_min":189,"x_max":1379,"o":"m 342 -53 q 324 -41 329 -50 q 321 -22 318 -32 q 447 86 386 22 q 558 227 508 150 q 639 388 607 304 q 679 551 671 471 q 680 594 682 575 q 667 629 678 613 q 536 615 599 624 q 421 597 474 606 q 365 581 388 592 q 308 569 343 569 q 259 593 285 569 q 214 647 233 617 q 189 697 194 678 q 214 710 196 717 q 276 674 243 678 q 369 675 310 671 q 378 675 375 675 q 470 682 411 678 q 601 692 529 686 q 744 702 672 697 q 874 710 815 707 q 964 715 932 714 q 1008 722 992 717 q 1053 742 1025 726 q 1122 735 1079 756 q 1164 707 1140 725 q 1197 678 1188 689 q 1206 646 1213 660 q 1169 635 1200 632 q 1119 638 1150 636 q 1058 640 1089 639 q 1006 640 1028 640 q 872 640 939 642 q 746 635 806 638 q 731 633 736 633 q 769 611 750 622 q 800 589 788 600 q 807 539 835 563 q 790 522 797 532 q 776 489 783 513 q 682 274 747 379 q 528 83 617 168 q 342 -53 440 -3 m 508 860 q 460 879 483 860 q 421 925 438 899 q 399 969 404 951 q 422 986 403 990 q 460 960 442 968 q 504 952 478 953 q 575 954 531 951 l 576 954 q 671 963 621 957 q 767 975 721 968 q 844 990 814 982 q 850 992 846 990 q 876 997 864 996 q 901 993 888 999 q 937 972 921 983 q 965 949 953 961 q 975 917 983 931 q 939 906 967 903 q 858 908 904 910 q 763 903 811 907 q 672 895 714 900 q 606 886 631 890 q 553 870 572 881 q 508 860 533 860 m 1210 797 q 1184 799 1197 794 q 1160 826 1171 804 q 1104 916 1136 875 q 1019 989 1072 957 q 1032 1015 1013 1010 q 1116 988 1072 1007 q 1194 940 1160 968 q 1238 876 1228 913 q 1235 823 1246 846 q 1210 797 1225 800 m 1356 929 q 1331 926 1344 924 q 1301 946 1318 928 q 1224 1019 1265 986 q 1124 1069 1183 1051 q 1121 1085 1118 1076 q 1131 1097 1124 1093 q 1219 1091 1172 1099 q 1305 1065 1265 1083 q 1363 1013 1344 1046 q 1375 960 1379 985 q 1356 929 1371 936 z "},"ト":{"ha":1389,"x_min":497,"x_max":1006,"o":"m 628 -39 q 597 -24 615 -39 q 565 11 579 -10 q 551 53 551 32 q 554 119 551 68 q 560 248 557 171 q 567 416 564 325 q 569 600 569 507 q 569 661 569 632 q 569 715 569 690 q 569 874 569 817 q 564 956 568 931 q 550 992 560 982 q 503 1007 538 1004 q 499 1022 497 1014 q 508 1035 501 1031 q 558 1033 529 1036 q 614 1025 586 1031 q 658 1010 642 1019 q 683 983 676 1000 q 678 951 690 967 q 661 909 667 940 q 653 817 656 878 q 650 656 651 757 q 772 622 711 643 q 883 575 832 600 q 965 522 935 550 q 1004 447 1003 489 q 986 386 1006 406 q 962 376 975 376 q 935 392 949 375 q 853 476 901 433 q 753 556 806 519 q 650 615 700 593 l 650 600 q 652 407 650 507 q 657 219 654 307 q 662 71 660 131 q 664 0 664 11 q 655 -31 664 -22 q 628 -39 646 -39 z "},"ド":{"ha":1389,"x_min":493,"x_max":1228,"o":"m 624 -39 q 593 -24 611 -39 q 561 11 575 -10 q 547 53 547 32 q 550 119 547 68 q 556 248 553 171 q 563 416 560 325 q 565 600 565 507 q 565 661 565 632 q 565 715 565 690 q 565 874 565 817 q 560 956 564 931 q 546 992 556 982 q 499 1007 533 1004 q 495 1022 493 1014 q 504 1035 497 1031 q 553 1033 525 1036 q 610 1025 582 1031 q 654 1010 638 1019 q 679 983 672 1000 q 674 951 686 967 q 657 909 663 940 q 649 817 651 878 q 646 656 647 757 q 767 622 707 643 q 879 575 828 600 q 961 522 931 550 q 1000 447 999 489 q 982 386 1001 406 q 958 376 971 376 q 929 392 944 375 q 849 476 896 433 q 749 556 801 519 q 646 615 696 593 l 646 600 q 648 407 646 507 q 653 219 650 307 q 658 71 656 131 q 660 0 660 11 q 651 -31 660 -22 q 624 -39 642 -39 m 1036 778 q 1012 782 1024 776 q 989 811 1000 788 q 938 903 967 860 q 858 982 910 946 q 874 1007 854 1001 q 956 974 914 996 q 1031 922 999 951 q 1069 856 1063 892 q 1064 802 1076 824 q 1036 778 1051 781 m 1201 918 q 1176 916 1190 913 q 1147 939 1163 919 q 1075 1016 1114 982 q 979 1072 1036 1050 q 986 1100 969 1090 q 1074 1088 1028 1099 q 1159 1056 1121 1078 q 1214 1001 1197 1035 q 1222 949 1228 972 q 1201 918 1217 925 z "},"ナ":{"ha":1389,"x_min":194,"x_max":1203,"o":"m 386 -21 q 369 -10 375 -18 q 364 8 363 -1 q 508 151 444 74 q 610 331 571 228 q 656 578 649 435 q 428 546 524 567 q 373 528 394 539 q 315 515 351 517 q 266 537 292 515 q 221 588 240 558 q 194 636 201 617 q 219 650 199 656 q 283 617 250 619 q 374 619 315 614 q 383 621 381 621 q 499 630 424 624 q 657 643 574 636 q 660 730 658 682 q 662 820 661 778 q 663 883 663 863 q 660 917 663 899 q 649 942 658 936 q 631 953 643 947 q 603 960 619 958 q 607 988 590 978 q 658 985 628 989 q 717 976 688 982 q 763 960 746 969 q 789 933 782 950 q 782 901 796 917 q 767 870 769 888 q 764 828 765 853 q 763 780 764 811 q 762 714 763 749 q 760 650 761 679 q 873 658 821 654 q 954 664 925 663 q 999 672 982 667 q 1042 693 1015 676 q 1073 699 1056 700 q 1113 688 1090 699 q 1153 665 1131 679 q 1186 639 1176 650 q 1197 606 1203 622 q 1161 592 1192 590 q 1111 594 1142 593 q 1049 594 1081 594 q 997 594 1018 594 q 758 586 886 597 q 697 311 751 428 q 561 113 643 194 q 386 -21 479 32 z "},"ニ":{"ha":1389,"x_min":144,"x_max":1228,"o":"m 276 189 q 224 215 253 190 q 172 272 194 240 q 144 325 150 304 q 156 337 147 333 q 171 338 164 340 q 238 300 199 304 q 335 299 276 296 q 347 299 343 299 q 440 303 381 300 q 573 308 500 306 q 718 315 646 311 q 849 320 790 318 q 939 322 908 322 q 1050 346 1003 325 q 1080 352 1065 353 q 1118 340 1094 351 q 1149 323 1131 335 q 1185 299 1168 311 q 1210 278 1203 286 q 1220 244 1228 261 q 1182 231 1213 228 q 1132 235 1164 233 q 1068 238 1100 236 q 1014 240 1036 240 q 881 244 949 243 q 747 242 813 244 q 552 231 644 239 q 393 213 460 224 q 367 207 379 210 q 344 200 356 204 q 313 192 329 196 q 276 189 297 189 m 433 633 q 381 657 408 635 q 335 709 354 679 q 311 758 315 739 q 336 771 318 778 q 400 738 360 744 q 504 735 440 731 q 567 738 528 736 q 651 742 606 740 q 738 747 696 744 q 807 753 779 750 q 896 778 854 754 q 922 785 910 785 q 947 779 935 785 q 996 753 969 769 q 1032 728 1022 738 q 1047 689 1056 706 q 1003 675 1038 672 q 926 680 974 679 q 822 680 878 681 q 710 676 765 679 q 613 669 656 674 q 547 660 569 665 q 486 642 514 651 q 433 633 458 633 z "},"ネ":{"ha":1389,"x_min":186,"x_max":1169,"o":"m 722 -68 q 681 -45 703 -68 q 660 4 658 -22 q 661 33 660 13 q 664 85 663 54 q 671 206 667 136 q 676 343 675 276 q 675 453 678 410 q 672 472 674 464 q 668 486 671 481 q 445 308 567 393 q 208 167 324 224 q 192 178 197 169 q 189 197 186 188 q 329 294 251 236 q 485 422 407 353 q 630 563 564 492 q 733 699 696 635 q 742 725 744 718 q 729 731 740 732 q 650 719 697 729 q 554 694 603 710 q 490 670 519 685 q 436 656 461 656 q 388 677 411 656 q 347 727 364 699 q 325 775 329 756 q 335 787 328 783 q 347 788 342 790 q 406 755 374 764 q 503 756 439 746 q 608 767 556 763 q 697 779 660 772 q 730 790 718 783 q 756 806 742 796 q 786 816 775 817 q 811 803 797 815 q 851 765 831 788 q 888 724 871 743 q 897 690 903 707 q 867 671 890 674 q 837 664 849 669 q 807 635 825 658 q 763 582 786 608 q 711 528 739 556 q 738 521 725 525 q 760 513 750 517 q 784 489 779 504 q 775 458 789 474 q 760 427 763 444 q 754 385 757 410 q 753 331 753 368 q 755 247 754 294 q 757 150 756 200 q 758 58 758 100 q 760 -4 760 22 q 761 -39 761 -31 q 722 -68 761 -68 m 1140 214 q 1113 212 1128 207 q 1090 233 1099 217 q 1001 375 1057 306 q 879 499 946 444 q 897 521 876 518 q 1040 446 971 489 q 1143 353 1108 403 q 1166 297 1163 326 q 1162 245 1169 268 q 1140 214 1154 222 m 753 900 q 728 911 739 900 q 703 950 718 922 q 647 1026 683 986 q 564 1090 610 1065 q 576 1115 557 1110 q 649 1098 608 1111 q 726 1065 689 1085 q 786 1019 763 1044 q 810 967 810 994 q 789 915 810 931 q 753 900 768 900 z "},"ノ":{"ha":1389,"x_min":251,"x_max":1004,"o":"m 275 56 q 258 67 264 58 q 254 86 251 76 q 400 215 324 140 q 550 377 476 289 q 687 560 624 465 q 796 747 750 654 q 822 804 814 783 q 831 851 829 825 q 826 884 833 871 q 796 913 819 897 q 810 938 790 933 q 894 903 849 928 q 964 856 939 879 q 958 782 1004 815 q 924 748 940 768 q 883 682 908 728 q 710 433 810 550 q 498 219 610 315 q 275 56 386 124 z "},"バ":{"ha":1389,"x_min":103,"x_max":1276,"o":"m 126 126 q 108 138 114 129 q 104 157 103 147 q 201 243 149 190 q 305 359 254 296 q 397 489 356 422 q 457 617 438 556 q 461 665 468 653 q 428 690 454 678 q 425 706 422 697 q 435 717 428 714 q 483 704 454 714 q 539 683 511 694 q 582 661 567 671 q 602 633 597 651 q 593 603 607 615 q 572 581 582 593 q 547 546 561 569 q 437 394 506 474 q 287 245 368 315 q 126 126 206 175 m 1200 229 q 1166 226 1182 219 q 1139 260 1150 232 q 1059 417 1108 336 q 949 571 1010 499 q 824 692 889 643 q 830 712 822 704 q 847 721 838 719 q 956 653 900 692 q 1065 568 1013 614 q 1158 475 1117 522 q 1221 382 1199 428 q 1235 287 1244 332 q 1200 229 1225 242 m 1139 751 q 1115 752 1128 749 q 1088 778 1101 756 q 1025 862 1060 824 q 935 929 990 900 q 946 956 928 949 q 1033 935 988 950 q 1113 894 1078 919 q 1161 833 1149 869 q 1163 779 1172 803 q 1139 751 1154 756 m 1257 906 q 1233 901 1247 900 q 1200 919 1219 901 q 1118 985 1161 957 q 1015 1028 1075 1014 q 1011 1043 1010 1035 q 1018 1056 1013 1051 q 1108 1057 1060 1061 q 1196 1038 1156 1053 q 1257 990 1236 1022 q 1274 939 1276 964 q 1257 906 1271 914 z "},"ビ":{"ha":1389,"x_min":296,"x_max":1265,"o":"m 610 81 q 434 124 500 81 q 368 275 368 167 l 368 822 q 366 856 368 839 q 354 882 364 874 q 310 897 343 893 q 311 926 296 914 q 388 917 342 926 q 463 896 435 908 q 491 863 490 883 q 481 828 492 843 q 462 766 469 811 q 451 660 454 721 q 447 536 449 600 q 575 581 504 554 q 710 640 646 608 q 811 704 774 672 q 833 733 829 719 q 825 771 838 747 q 847 789 828 792 q 884 755 865 776 q 919 713 903 733 q 942 679 935 692 q 953 634 960 653 q 922 617 947 615 q 833 601 876 621 q 718 560 785 582 q 581 521 651 539 q 447 489 510 503 l 447 301 q 488 201 447 229 q 615 172 529 172 q 752 179 689 172 q 861 195 815 186 q 926 208 907 204 q 963 207 947 214 q 997 188 982 200 q 1022 165 1013 176 q 1033 127 1038 147 q 982 101 1028 107 q 825 87 922 93 q 610 81 728 81 m 1114 746 q 1089 749 1101 744 q 1064 776 1076 754 q 1008 865 1040 825 q 924 939 976 906 q 936 964 917 958 q 1020 937 976 956 q 1098 890 1064 918 q 1142 825 1132 863 q 1140 772 1150 794 q 1114 746 1129 749 m 1243 892 q 1218 888 1232 886 q 1188 908 1204 890 q 1110 981 1151 949 q 1010 1031 1069 1013 q 1007 1046 1004 1038 q 1017 1058 1010 1054 q 1105 1052 1058 1060 q 1191 1026 1151 1044 q 1249 975 1231 1008 q 1261 923 1265 947 q 1243 892 1257 899 z "},"フ":{"ha":1389,"x_min":271,"x_max":1133,"o":"m 339 18 q 322 51 313 28 q 512 177 417 104 q 694 340 607 250 q 852 533 782 429 q 967 754 922 638 q 969 786 975 776 q 939 796 964 796 q 874 793 918 796 q 774 785 829 790 q 663 773 718 779 q 561 760 607 767 q 492 747 515 754 q 433 728 458 739 q 383 718 408 718 q 333 744 357 718 q 293 799 310 769 q 279 825 285 813 q 271 847 274 838 q 281 860 274 856 q 294 861 288 864 q 355 829 322 835 q 449 829 388 824 q 517 835 472 832 q 615 841 561 838 q 724 848 669 844 q 825 855 779 851 q 899 860 871 858 q 954 881 935 864 q 985 897 972 896 q 1011 888 999 897 q 1045 858 1024 878 q 1088 817 1067 838 q 1119 783 1110 796 q 1130 752 1133 767 q 1104 731 1126 738 q 1073 705 1086 725 q 1049 664 1060 685 q 857 389 971 514 q 609 170 743 264 q 339 18 475 76 z "},"ブ":{"ha":1389,"x_min":232,"x_max":1357,"o":"m 324 36 q 307 69 297 46 q 481 185 389 115 q 658 339 572 254 q 813 519 744 424 q 918 715 881 615 q 921 747 926 738 q 890 757 915 757 q 826 754 869 757 q 729 747 783 751 q 621 735 675 742 q 522 723 567 729 q 454 710 478 717 q 395 691 421 701 q 346 681 369 681 q 297 704 321 681 q 257 756 274 728 q 242 785 249 771 q 232 808 236 799 q 257 824 239 828 q 316 791 283 797 q 411 790 349 785 q 500 797 442 793 q 626 806 558 801 q 755 815 694 811 q 850 822 815 819 q 883 828 871 824 q 906 843 896 833 q 937 859 924 858 q 963 850 950 860 q 997 820 975 840 q 1040 779 1018 800 q 1071 746 1061 758 q 1081 715 1085 729 q 1056 693 1078 700 q 1024 667 1038 688 q 1000 626 1011 647 q 810 375 924 488 q 571 178 697 263 q 324 36 444 93 m 1335 904 q 1310 901 1324 899 q 1279 921 1296 903 q 1203 993 1244 961 q 1101 1043 1161 1025 q 1108 1071 1092 1061 q 1197 1065 1150 1072 q 1284 1039 1244 1057 q 1342 988 1324 1021 q 1353 935 1357 960 q 1335 904 1349 911 m 1206 758 q 1181 762 1193 757 q 1157 789 1168 767 q 1100 878 1132 838 q 1015 950 1068 918 q 1028 976 1008 971 q 1112 949 1068 968 q 1190 901 1156 929 q 1233 838 1224 874 q 1231 784 1242 807 q 1206 758 1221 761 z "},"プ":{"ha":1389,"x_min":232,"x_max":1349,"o":"m 324 36 q 307 69 297 46 q 481 185 389 115 q 658 339 572 254 q 813 519 744 424 q 918 715 881 615 q 921 747 926 738 q 890 757 915 757 q 826 754 869 757 q 729 747 783 751 q 621 735 675 742 q 522 723 567 729 q 454 710 478 717 q 395 691 421 701 q 346 681 369 681 q 295 706 319 681 q 254 763 271 732 q 241 788 247 775 q 232 808 235 800 q 257 824 239 828 q 316 791 283 797 q 411 790 349 785 q 500 797 442 793 q 626 806 558 801 q 755 815 694 811 q 850 822 815 819 q 883 828 871 824 q 906 843 896 833 q 937 859 924 858 q 963 850 950 860 q 997 820 975 840 q 1040 779 1018 800 q 1071 746 1061 758 q 1081 715 1085 729 q 1056 693 1078 700 q 1024 667 1038 688 q 1000 626 1011 647 q 810 375 924 488 q 571 178 697 263 q 324 36 444 93 m 1213 810 q 1115 850 1156 810 q 1075 947 1075 890 q 1115 1044 1075 1004 q 1213 1083 1156 1083 q 1309 1044 1269 1083 q 1349 947 1349 1004 q 1309 850 1349 890 q 1213 810 1269 810 m 1213 851 q 1278 880 1251 851 q 1304 947 1304 908 q 1278 1014 1304 986 q 1213 1042 1251 1042 q 1147 1014 1174 1042 q 1119 947 1119 986 q 1147 880 1119 908 q 1213 851 1174 851 z "},"ベ":{"ha":1389,"x_min":113,"x_max":1286,"o":"m 1235 160 q 1201 166 1219 160 q 1167 182 1183 172 q 1066 246 1126 204 q 938 340 1006 288 q 805 444 871 392 q 685 541 739 496 q 601 613 632 586 q 517 613 558 650 q 442 535 482 582 q 366 443 403 488 q 303 372 329 399 q 251 344 276 344 q 197 369 226 344 q 149 426 174 392 q 113 483 124 461 q 120 497 114 492 q 135 500 126 503 q 176 473 154 483 q 226 463 199 463 q 280 485 247 463 q 351 544 313 508 q 424 613 389 579 q 455 642 440 628 q 482 668 469 657 q 522 696 503 686 q 560 706 542 706 q 639 669 597 707 q 759 574 689 625 q 908 471 829 522 q 1064 377 988 419 q 1201 310 1140 335 q 1256 265 1233 297 q 1278 201 1278 232 q 1235 160 1278 160 m 1265 778 q 1242 773 1256 772 q 1210 792 1228 774 q 1130 860 1172 831 q 1028 907 1088 890 q 1024 922 1022 914 q 1032 935 1026 931 q 1121 932 1074 938 q 1209 910 1168 926 q 1269 861 1250 893 q 1283 810 1286 835 q 1265 778 1281 785 m 1129 639 q 1103 639 1117 635 q 1076 664 1090 643 q 1013 748 1049 710 q 922 814 978 786 q 933 840 915 833 q 1020 819 975 835 q 1101 780 1065 804 q 1149 719 1136 756 q 1152 666 1160 689 q 1129 639 1144 643 z "},"ミ":{"ha":1389,"x_min":382,"x_max":968,"o":"m 906 -1 q 876 -7 892 -11 q 839 24 860 -3 q 717 135 792 82 q 558 233 643 189 q 392 301 472 276 q 400 328 382 321 q 588 292 494 317 q 759 232 681 267 q 885 154 838 197 q 922 101 911 132 q 929 42 933 69 q 906 -1 925 14 m 814 449 q 789 440 804 438 q 760 458 774 442 q 667 542 724 501 q 548 617 611 583 q 426 667 485 650 q 433 694 417 685 q 556 678 492 692 q 680 643 619 665 q 785 588 740 621 q 824 538 815 567 q 830 485 833 510 q 814 449 826 460 m 947 767 q 917 758 933 753 q 888 779 901 763 q 805 857 856 819 q 694 925 754 894 q 574 974 635 956 q 571 989 568 981 q 581 1001 574 997 q 694 988 629 999 q 821 956 760 976 q 919 907 882 936 q 958 856 949 885 q 965 803 968 828 q 947 767 961 779 z "},"ム":{"ha":1389,"x_min":201,"x_max":1150,"o":"m 1101 67 q 1075 66 1089 60 q 1050 96 1061 72 q 1016 168 1036 131 q 972 244 996 206 q 788 195 888 219 q 594 151 689 171 q 432 121 500 132 q 388 108 406 118 q 354 90 371 99 q 313 81 338 82 q 270 108 292 81 q 231 167 249 136 q 214 197 221 182 q 201 222 207 213 q 225 238 207 244 q 277 213 244 217 q 369 211 310 208 q 428 322 396 258 q 493 456 461 386 q 553 594 525 526 q 602 718 582 663 q 629 806 622 774 q 632 858 636 838 q 603 896 628 878 q 604 912 600 904 q 615 921 608 919 q 664 901 636 914 q 717 873 692 888 q 757 844 743 858 q 773 812 774 829 q 754 783 772 794 q 724 756 732 769 q 707 722 717 743 q 663 626 690 681 q 601 510 635 571 q 535 392 568 450 q 472 288 501 335 q 424 214 443 242 q 540 226 474 218 q 680 244 607 233 q 822 266 753 254 q 943 289 890 278 q 858 403 904 349 q 763 501 811 458 q 781 524 760 524 q 901 443 836 492 q 1025 335 967 394 q 1118 215 1083 276 q 1138 120 1150 160 q 1101 67 1126 81 z "},"メ":{"ha":1389,"x_min":188,"x_max":993,"o":"m 211 0 q 194 12 200 3 q 190 32 188 21 q 353 163 264 83 q 530 341 442 242 q 692 550 618 440 q 594 627 644 593 q 496 681 544 661 q 506 707 486 700 q 620 668 563 693 q 731 611 678 643 q 788 715 763 663 q 833 819 814 767 q 858 911 857 882 q 828 968 858 940 q 843 992 824 989 q 916 953 883 975 q 969 914 949 931 q 989 874 993 896 q 968 839 985 853 q 945 819 954 829 q 924 778 936 808 q 807 563 875 664 q 889 496 851 531 q 949 426 926 461 q 974 336 981 379 q 947 282 967 293 q 894 304 917 265 q 756 489 844 394 q 581 288 675 381 q 391 122 486 194 q 211 0 296 49 z "},"モ":{"ha":1389,"x_min":125,"x_max":1244,"o":"m 749 75 q 620 118 661 75 q 579 240 579 161 l 579 475 q 456 460 513 468 q 361 443 400 453 q 305 425 326 436 q 249 413 283 414 q 199 433 225 411 q 153 483 174 454 q 125 532 133 513 q 151 544 132 551 q 213 515 176 518 q 314 518 250 513 q 420 527 347 521 q 579 540 493 533 l 579 706 q 576 740 579 722 q 565 765 574 757 q 559 770 563 768 q 550 774 556 772 q 536 769 544 772 q 476 749 503 761 q 424 736 449 738 q 376 753 399 735 q 335 799 353 772 q 310 844 318 825 q 335 858 314 864 q 372 832 354 839 q 414 826 389 825 q 481 832 439 828 q 488 833 485 833 q 553 840 511 836 q 641 849 594 844 q 729 858 688 853 q 794 867 771 863 q 841 876 819 871 q 878 890 863 882 q 881 892 879 890 q 899 897 890 896 q 924 894 907 899 q 974 873 954 885 q 1003 850 993 861 q 1013 817 1019 832 q 988 803 1007 803 q 927 806 954 806 q 860 803 900 806 q 785 799 835 801 q 682 790 735 796 q 666 789 674 789 q 650 788 658 789 q 665 783 658 786 q 676 778 671 781 q 701 754 699 769 q 688 724 703 739 q 672 663 678 714 q 663 546 665 613 q 799 557 733 551 q 917 568 865 563 q 996 576 969 574 q 1088 603 1050 582 q 1108 611 1101 610 q 1131 608 1115 613 q 1191 578 1167 597 q 1225 553 1215 560 q 1238 519 1244 535 q 1200 503 1231 503 q 1128 504 1169 504 q 1056 504 1088 504 q 872 499 978 504 q 661 483 767 493 q 659 350 660 415 q 658 244 658 285 q 754 171 658 171 q 854 176 801 171 q 936 188 907 181 q 940 189 938 188 q 955 192 949 192 q 971 189 961 193 q 1035 143 1021 165 q 1037 106 1049 121 q 997 86 1025 90 q 926 80 969 82 q 837 76 883 78 q 749 75 790 75 z "},"ュ":{"ha":1389,"x_min":247,"x_max":1139,"o":"m 336 118 q 299 136 318 118 q 266 177 281 154 q 247 214 251 200 q 267 224 253 231 q 312 197 288 200 q 378 197 336 194 q 389 199 385 199 q 449 201 408 200 q 540 205 489 203 q 645 210 592 207 q 744 214 699 213 q 758 219 754 215 q 764 233 763 222 q 771 281 765 246 q 784 358 776 315 q 798 438 792 401 q 807 492 804 475 q 805 515 810 507 q 779 522 800 522 q 723 518 760 522 q 649 508 686 514 q 586 497 611 503 q 540 483 561 492 q 500 475 519 475 q 465 492 482 475 q 435 530 447 508 q 421 567 424 551 q 440 576 426 582 q 483 553 460 558 q 553 551 506 549 q 626 558 585 554 q 706 565 667 561 q 769 571 744 568 q 799 577 789 574 q 821 590 810 581 q 841 599 833 600 q 860 590 849 599 q 890 565 871 581 q 918 540 908 550 q 914 499 943 517 q 894 481 901 492 q 878 449 888 469 q 865 410 874 439 q 847 347 857 382 q 830 280 838 311 q 821 236 822 249 q 838 218 817 218 q 901 221 863 219 q 953 222 939 222 q 986 227 974 224 q 1019 242 999 231 q 1072 236 1039 251 q 1103 216 1085 231 q 1128 194 1121 201 q 1135 169 1139 181 q 1107 160 1131 158 q 1047 163 1086 163 q 985 164 1008 164 q 853 165 925 167 q 708 161 782 164 q 549 152 625 158 q 422 138 472 146 q 379 126 396 133 q 336 118 363 118 z "},"ョ":{"ha":1389,"x_min":378,"x_max":1028,"o":"m 914 67 q 892 74 899 67 q 885 108 885 82 q 874 122 885 122 q 804 122 846 122 q 715 121 763 122 q 624 116 668 119 q 550 107 581 113 q 508 93 525 101 q 465 85 492 85 q 428 104 447 85 q 396 148 410 124 q 378 188 382 172 q 397 197 383 203 q 444 171 419 174 q 513 171 468 168 q 518 171 517 171 q 598 174 550 172 q 699 178 646 176 q 801 181 753 179 q 878 182 849 182 q 896 197 896 182 q 898 236 896 206 q 901 300 900 267 q 903 349 903 333 q 901 358 903 353 q 889 363 899 363 q 819 361 867 363 q 717 358 771 360 q 618 351 663 356 q 558 343 574 347 q 513 333 533 338 q 472 328 492 328 q 437 343 454 328 q 408 379 419 358 q 393 414 396 400 q 411 424 399 429 q 451 403 431 406 q 515 400 472 400 q 525 400 522 400 q 603 401 553 400 q 712 404 654 403 q 818 408 769 406 q 892 411 867 410 q 907 426 907 413 q 910 465 908 438 q 913 520 911 493 q 915 554 915 547 q 913 566 917 564 q 900 568 908 568 q 849 568 885 568 q 767 567 813 568 q 675 565 721 567 q 594 560 629 563 q 543 554 558 558 q 498 542 518 547 q 458 538 478 538 q 423 553 440 538 q 394 589 406 568 q 378 624 382 610 q 397 633 385 639 q 437 613 415 615 q 501 610 458 610 q 511 610 508 610 q 575 610 533 610 q 666 613 617 611 q 761 615 715 614 q 840 617 807 617 q 882 618 874 618 q 907 622 897 618 q 928 636 917 625 q 947 648 939 647 q 964 640 954 649 q 992 619 975 632 q 1018 597 1008 607 q 1026 576 1028 588 q 1013 558 1025 565 q 994 540 999 550 q 989 513 990 531 q 985 456 988 494 q 981 367 983 417 q 978 268 979 318 q 976 178 976 218 q 975 119 975 139 q 956 83 975 100 q 914 67 938 67 z "},"ラ":{"ha":1389,"x_min":278,"x_max":1104,"o":"m 371 -19 q 354 14 344 -10 q 590 172 479 79 q 790 375 701 264 q 932 607 878 486 q 935 635 940 626 q 904 644 929 644 q 852 642 889 644 q 766 633 815 639 q 665 621 717 628 q 570 606 614 614 q 500 589 526 597 q 441 569 467 579 q 392 558 415 558 q 343 582 367 558 q 302 636 319 606 q 278 686 285 667 q 303 700 286 707 q 362 668 329 674 q 457 668 394 663 q 540 676 486 671 q 657 688 594 681 q 776 701 719 694 q 868 711 833 707 q 902 718 890 714 q 925 732 914 722 q 956 748 943 747 q 981 739 968 749 q 1018 711 996 731 q 1061 672 1040 692 q 1090 639 1082 651 q 1100 607 1104 621 q 1074 586 1096 593 q 1040 563 1056 581 q 1014 524 1025 544 q 851 305 949 407 q 632 120 754 203 q 371 -19 510 38 m 503 853 q 455 874 478 853 q 415 922 432 894 q 390 969 399 949 q 415 983 394 989 q 467 950 439 954 q 543 947 494 946 q 554 948 549 947 q 567 949 560 949 q 649 956 596 950 q 756 971 701 961 q 844 992 810 981 q 847 993 846 992 q 866 997 857 996 q 890 993 875 999 q 963 951 946 974 q 970 913 979 928 q 936 900 961 899 q 815 900 883 904 q 685 888 747 896 q 588 874 624 881 q 540 860 554 868 q 503 853 526 853 z "},"リ":{"ha":1389,"x_min":376,"x_max":963,"o":"m 438 -50 q 421 -17 411 -40 q 581 79 507 28 q 711 206 656 131 q 798 394 767 282 q 829 672 829 507 q 828 853 829 785 q 821 958 828 921 q 805 992 817 982 q 769 1004 793 1001 q 766 1019 764 1011 q 774 1032 768 1028 q 824 1030 794 1033 q 883 1020 854 1026 q 929 1004 913 1014 q 955 978 947 994 q 949 946 963 961 q 934 913 936 932 q 932 844 932 894 l 932 672 q 894 383 932 503 q 788 183 856 264 q 631 47 721 101 q 438 -50 542 -8 m 485 353 q 449 381 449 353 q 451 465 449 399 q 453 621 453 532 l 453 846 q 451 877 453 861 q 438 903 449 893 q 389 922 425 918 q 393 950 376 940 q 444 948 414 951 q 502 938 474 944 q 547 922 531 932 q 574 896 567 913 q 567 864 581 879 q 551 833 554 850 q 546 792 547 817 q 544 733 544 771 q 545 648 544 694 q 547 556 546 601 q 550 476 549 511 q 551 436 550 453 q 551 414 551 419 q 530 373 551 393 q 485 353 508 353 z "},"ル":{"ha":1389,"x_min":86,"x_max":1303,"o":"m 786 183 q 742 216 765 199 q 704 246 719 233 q 692 267 692 257 q 697 286 692 276 q 707 310 704 297 q 710 338 710 324 l 710 742 q 708 774 710 758 q 694 800 706 789 q 646 818 683 814 q 650 847 633 838 q 702 845 671 849 q 763 835 733 842 q 808 819 792 829 q 833 793 826 810 q 828 761 840 776 q 810 733 814 747 q 803 693 806 718 q 799 601 800 671 q 799 432 799 531 q 799 390 799 413 q 799 346 799 368 q 844 325 799 303 q 951 394 892 349 q 1071 494 1010 439 q 1185 603 1132 549 q 1272 699 1239 657 q 1303 676 1300 703 q 1232 581 1279 639 q 1126 457 1185 522 q 1009 334 1068 392 q 901 240 950 276 q 856 193 871 217 q 786 183 831 156 m 111 74 q 93 83 100 75 q 88 101 86 92 q 224 256 158 163 q 338 457 289 349 q 408 668 388 565 q 410 717 417 704 q 375 739 403 729 q 382 767 365 757 q 455 749 414 763 q 521 721 496 736 q 542 695 536 713 q 538 663 547 678 q 517 638 528 647 q 497 600 506 628 q 410 404 468 503 q 274 219 351 306 q 111 74 197 133 z "},"レ":{"ha":1389,"x_min":272,"x_max":1218,"o":"m 417 143 q 375 170 399 154 q 336 197 351 186 q 328 238 308 217 q 342 283 342 256 l 342 714 q 340 746 342 731 q 328 772 339 761 q 308 783 322 778 q 278 790 294 789 q 274 806 272 797 q 283 818 276 814 q 335 816 304 819 q 394 806 365 813 q 440 790 424 800 q 467 764 460 781 q 460 732 474 747 q 443 707 447 718 q 436 664 439 696 q 433 584 435 642 q 432 453 432 526 q 432 311 432 381 q 479 285 432 274 q 607 331 532 296 q 765 413 682 365 q 931 513 849 460 q 1080 617 1013 567 q 1189 706 1147 667 q 1215 678 1218 703 q 1126 591 1183 642 q 997 484 1069 540 q 847 373 925 428 q 692 273 768 318 q 551 200 617 228 q 515 177 532 190 q 486 150 497 164 q 417 143 461 118 z "},"ロ":{"ha":1389,"x_min":260,"x_max":1097,"o":"m 411 144 q 388 151 399 144 q 376 175 376 157 q 374 256 376 204 q 369 368 372 307 q 361 490 365 429 q 353 601 357 551 q 344 678 349 651 q 329 742 339 718 q 274 775 319 767 q 275 804 260 792 q 347 801 304 807 q 419 786 389 796 q 451 769 439 781 q 464 742 464 757 q 478 736 464 733 q 575 747 519 740 q 689 758 631 753 q 798 769 747 764 q 881 776 849 774 q 905 783 896 778 q 928 803 914 789 q 949 815 939 814 q 975 806 958 815 q 1007 785 988 799 q 1047 757 1026 771 q 1078 733 1067 743 q 1096 703 1094 719 q 1082 672 1097 688 q 1056 646 1064 657 q 1039 611 1049 635 q 1019 555 1031 590 q 997 481 1008 519 q 979 413 986 443 q 972 374 972 383 q 972 367 972 371 q 973 355 972 358 q 982 346 974 351 q 1013 323 997 336 q 1038 299 1029 310 q 1051 256 1057 276 q 1017 239 1044 236 q 949 247 989 243 q 854 251 908 251 q 730 247 797 251 q 601 237 663 243 q 499 225 539 231 q 482 208 482 222 q 462 163 482 182 q 411 144 442 144 m 492 292 q 564 300 517 294 q 666 312 611 306 q 772 322 721 318 q 856 328 822 326 q 889 349 889 328 q 894 404 889 364 q 908 494 900 444 q 923 593 915 544 q 935 674 931 642 q 932 699 938 693 q 906 706 926 706 q 767 701 847 706 q 606 688 686 696 q 465 671 525 681 q 446 653 444 667 q 450 598 447 635 q 456 516 453 561 q 463 426 460 471 q 469 350 467 382 q 472 308 472 318 q 478 294 474 297 q 492 292 483 292 z "},"ワ":{"ha":1389,"x_min":263,"x_max":1147,"o":"m 425 18 q 410 33 414 22 q 411 53 406 43 q 578 167 493 99 q 740 324 663 235 q 875 526 817 414 q 964 771 933 638 q 942 814 974 811 q 831 815 899 817 q 689 807 764 813 q 545 793 614 801 q 432 776 476 785 q 419 772 424 775 q 418 757 415 768 q 427 690 424 732 q 432 601 431 647 q 432 513 433 554 q 412 469 431 492 q 363 447 393 447 q 325 482 324 447 q 326 496 325 489 q 326 510 326 503 q 333 647 331 578 q 325 771 335 717 q 304 838 318 810 q 265 879 290 867 q 267 895 263 888 q 278 904 271 903 q 372 844 338 883 q 381 837 376 839 q 400 836 386 835 q 515 851 447 844 q 653 865 582 858 q 787 875 725 871 q 886 881 849 879 q 936 886 919 882 q 964 899 953 890 q 992 913 982 913 q 1024 900 1003 913 q 1056 878 1036 893 q 1097 849 1076 864 q 1126 824 1117 833 q 1142 791 1147 806 q 1115 768 1138 776 q 1084 747 1094 761 q 1065 710 1074 733 q 936 448 1010 560 q 778 255 863 336 q 603 117 693 174 q 425 18 513 60 z "},"ン":{"ha":1389,"x_min":276,"x_max":1208,"o":"m 390 97 q 345 149 369 118 q 301 207 321 179 q 276 250 283 232 q 286 264 279 260 q 300 265 293 268 q 336 236 315 247 q 388 225 357 225 q 456 240 425 225 q 514 268 486 254 q 647 349 571 297 q 804 462 722 400 q 961 586 886 524 q 1094 703 1036 649 q 1179 790 1153 757 q 1200 785 1192 792 q 1208 767 1208 778 q 1144 681 1189 733 q 1036 564 1099 628 q 902 434 974 500 q 756 310 831 368 q 614 208 682 251 q 524 149 561 175 q 475 99 486 122 q 390 97 449 39 m 550 646 q 518 640 536 636 q 483 669 500 643 q 406 763 456 717 q 296 835 356 810 q 304 863 288 853 q 406 847 351 861 q 508 809 461 833 q 572 751 554 785 q 581 691 589 721 q 550 646 574 661 z "},"ー":{"ha":1389,"x_min":165,"x_max":1221,"o":"m 285 425 q 235 449 261 425 q 190 506 210 474 q 165 557 171 538 q 192 569 172 576 q 239 539 215 543 q 310 535 263 535 q 410 535 343 535 q 559 538 476 536 q 724 541 642 539 q 872 545 806 543 q 972 549 939 547 q 1023 553 1000 550 q 1072 560 1046 556 q 1107 562 1090 563 q 1139 554 1124 561 q 1177 531 1157 546 q 1207 504 1197 517 q 1215 471 1221 485 q 1179 458 1210 457 q 1107 461 1149 460 q 1033 464 1065 463 q 974 465 1018 465 q 867 465 929 465 q 736 464 806 465 q 600 461 667 463 q 481 456 533 460 q 399 449 428 453 q 342 434 364 443 q 285 425 319 425 z "},"一":{"ha":1389,"x_min":67,"x_max":1325,"o":"m 78 499 l 67 560 q 126 550 101 551 q 151 549 151 549 l 1101 549 q 1117 554 1111 549 q 1135 574 1121 558 q 1165 604 1150 589 q 1183 622 1181 619 q 1208 622 1193 632 q 1239 601 1215 618 q 1285 566 1263 583 q 1314 543 1308 549 q 1322 519 1325 533 q 1307 506 1319 506 l 151 506 q 128 505 151 506 q 78 499 106 504 z "},"丈":{"ha":1389,"x_min":64,"x_max":1318,"o":"m 75 -100 q 66 -87 68 -96 q 69 -72 64 -79 q 264 10 167 -40 q 443 128 361 61 q 575 278 525 194 q 457 473 508 361 q 382 731 406 585 q 410 735 394 747 q 492 509 442 607 q 607 338 543 411 q 653 483 635 399 q 671 696 671 568 l 671 808 l 174 808 q 151 808 174 808 q 100 801 128 807 l 89 861 q 149 851 124 853 q 174 850 174 850 l 671 850 l 671 864 q 664 1061 671 1000 q 647 1138 657 1122 q 647 1151 642 1146 q 661 1156 651 1157 q 706 1147 676 1153 q 766 1136 736 1142 q 811 1126 796 1131 q 822 1110 822 1124 q 807 1094 821 1097 q 780 1089 793 1093 q 767 1064 767 1085 l 767 850 l 1088 850 q 1103 856 1097 850 q 1121 876 1108 861 q 1147 908 1133 892 q 1168 932 1161 924 q 1193 933 1179 943 q 1225 909 1204 926 q 1267 874 1246 892 q 1299 844 1289 856 q 1307 822 1310 835 q 1293 808 1304 808 l 767 808 l 767 728 q 755 519 767 606 q 723 374 743 433 q 676 268 703 314 q 879 140 771 186 q 1101 75 988 94 q 1318 51 1214 56 q 1244 -5 1278 32 q 1197 -69 1210 -42 q 1080 -40 1147 -58 q 937 10 1013 -21 q 784 90 861 42 q 636 210 707 139 q 517 94 586 146 q 369 4 447 43 q 215 -60 292 -35 q 75 -100 139 -86 z "},"上":{"ha":1389,"x_min":76,"x_max":1314,"o":"m 89 -25 l 76 35 q 136 25 111 26 q 161 24 161 24 l 604 24 l 604 943 q 599 1059 604 1026 q 583 1107 594 1092 q 583 1121 579 1114 q 597 1125 589 1126 q 642 1115 613 1122 q 703 1101 672 1108 q 749 1090 733 1094 q 758 1083 756 1089 q 760 1072 761 1078 q 746 1056 760 1056 q 716 1049 731 1054 q 701 1024 701 1044 l 701 631 l 1001 631 q 1017 636 1011 631 q 1034 655 1021 640 q 1060 684 1047 669 q 1078 703 1074 699 q 1103 706 1089 715 q 1131 683 1111 700 q 1171 648 1151 665 q 1196 625 1190 631 q 1204 602 1207 615 q 1190 589 1201 589 l 701 589 l 701 24 l 1090 24 q 1106 29 1100 24 q 1124 50 1111 35 q 1150 81 1136 65 q 1171 104 1164 97 q 1197 107 1182 117 q 1228 83 1207 100 q 1272 47 1250 65 q 1303 18 1293 29 q 1311 -5 1314 8 q 1296 -18 1308 -18 l 163 -18 q 140 -19 163 -18 q 89 -25 117 -19 z "},"不":{"ha":1389,"x_min":61,"x_max":1314,"o":"m 667 -92 q 638 -69 638 -92 q 638 -31 638 -65 q 641 56 639 4 q 644 165 643 107 q 647 274 646 222 q 647 360 647 326 l 647 646 q 455 438 554 526 q 260 288 356 350 q 82 185 165 226 q 67 210 61 192 q 231 329 140 256 q 417 501 322 403 q 596 722 511 599 q 739 992 681 846 l 158 992 q 135 991 158 992 q 85 985 113 990 l 74 1044 q 133 1035 108 1036 q 158 1033 158 1033 l 1090 1033 q 1106 1039 1100 1033 q 1124 1060 1111 1044 q 1150 1091 1136 1075 q 1171 1114 1164 1107 q 1197 1117 1182 1126 q 1228 1092 1207 1110 q 1272 1057 1250 1075 q 1303 1028 1293 1039 q 1311 1005 1314 1018 q 1296 992 1308 992 l 857 992 q 717 743 793 856 q 756 735 736 739 q 786 728 775 731 q 797 711 800 724 q 783 696 797 699 q 753 690 768 694 q 739 664 739 686 l 739 360 q 740 274 739 325 q 742 169 740 224 q 744 67 743 115 q 747 -12 746 19 q 747 -50 747 -44 q 725 -79 747 -67 q 667 -92 703 -92 m 1246 282 q 1219 274 1232 272 q 1192 297 1207 276 q 1074 432 1143 369 q 932 544 1006 494 q 792 626 858 594 q 803 651 785 646 q 960 597 876 632 q 1117 519 1043 563 q 1235 428 1192 476 q 1264 373 1257 404 q 1266 317 1271 342 q 1246 282 1261 292 z "},"与":{"ha":1389,"x_min":65,"x_max":1326,"o":"m 572 -100 q 546 -31 563 -56 q 499 10 529 -6 q 415 40 468 25 q 414 57 411 49 q 425 68 417 65 q 472 57 439 65 q 548 42 504 49 q 638 35 592 35 q 757 127 707 35 q 831 399 807 219 l 150 399 q 127 398 150 399 q 76 392 104 397 l 65 453 q 125 442 100 443 q 150 440 150 440 l 836 440 q 849 624 844 526 l 446 624 q 436 578 440 597 q 429 550 432 558 q 400 528 426 536 q 347 526 374 521 q 324 557 318 533 q 343 621 331 575 q 372 728 356 667 q 405 853 389 789 q 434 975 421 918 q 453 1068 447 1032 q 456 1109 457 1093 q 454 1135 456 1125 q 456 1153 451 1149 q 468 1156 460 1157 q 509 1143 483 1151 q 560 1126 535 1135 q 597 1113 585 1118 q 606 1094 608 1108 q 589 1083 601 1081 q 557 1079 567 1085 q 540 1050 547 1074 q 526 985 535 1024 q 507 903 518 947 l 994 903 q 1010 908 1004 903 q 1036 938 1017 915 q 1063 968 1056 960 q 1088 969 1074 979 q 1129 935 1103 960 q 1168 897 1156 911 q 1177 872 1181 885 q 1158 860 1174 860 l 497 860 q 476 760 488 810 q 454 667 464 710 l 826 667 q 842 672 836 667 l 888 718 q 913 718 899 729 q 939 699 921 713 q 975 671 957 685 q 1000 649 993 657 q 999 619 1019 629 q 971 608 985 614 q 947 600 957 603 q 936 575 936 594 q 932 506 935 539 q 926 440 929 472 l 1119 440 q 1133 447 1129 440 q 1151 467 1138 453 q 1177 494 1164 481 q 1194 514 1190 508 q 1219 515 1207 526 q 1250 492 1231 508 q 1288 459 1269 475 q 1315 433 1307 443 q 1323 411 1326 424 q 1307 399 1319 399 l 922 399 q 857 108 901 214 q 742 -44 813 3 q 572 -100 672 -90 z "},"世":{"ha":1389,"x_min":65,"x_max":1325,"o":"m 306 -99 q 276 -75 276 -99 q 278 30 276 -67 q 283 290 281 126 q 286 660 286 453 l 151 660 q 128 659 151 660 q 78 653 106 658 l 65 714 q 126 704 101 706 q 151 703 151 703 l 286 703 l 286 1008 q 283 1053 286 1042 q 275 1072 281 1065 q 275 1088 271 1081 q 289 1092 279 1092 q 355 1079 314 1088 q 422 1064 396 1071 q 433 1046 433 1060 q 418 1032 432 1032 q 388 1026 403 1031 q 374 1000 374 1021 l 374 703 l 604 703 l 604 1024 q 602 1069 604 1057 q 594 1088 600 1081 q 594 1103 589 1097 q 608 1107 599 1107 q 674 1094 633 1103 q 740 1079 714 1086 q 751 1063 754 1075 q 736 1047 751 1050 q 708 1042 722 1046 q 693 1015 693 1038 l 693 703 l 911 703 l 911 1024 q 909 1069 911 1057 q 901 1088 907 1081 q 901 1103 897 1096 q 915 1107 906 1107 q 981 1094 940 1103 q 1049 1079 1022 1086 q 1060 1063 1060 1075 q 1044 1047 1058 1050 q 1015 1042 1029 1046 q 1000 1015 1000 1038 q 1001 957 1000 1003 q 1002 844 1001 911 q 1003 703 1003 778 l 1124 703 q 1135 704 1131 703 q 1144 711 1140 706 q 1170 743 1153 721 q 1194 774 1188 765 q 1221 776 1204 788 q 1250 753 1232 769 q 1287 722 1268 738 q 1314 697 1306 706 q 1322 673 1325 686 q 1307 660 1319 660 l 1003 660 q 1005 511 1004 585 q 1006 376 1006 438 q 1008 274 1007 314 q 1008 228 1008 235 q 986 205 1008 215 q 940 194 964 194 q 911 218 911 194 l 911 269 l 693 269 l 693 174 q 670 151 693 163 q 624 140 647 140 q 594 165 594 140 q 596 216 594 171 q 599 332 597 261 q 603 488 601 403 q 604 660 604 574 l 374 660 l 374 46 l 1056 46 q 1071 51 1065 46 q 1088 71 1075 57 q 1115 99 1101 85 q 1132 118 1128 114 q 1157 119 1144 131 q 1187 96 1168 113 q 1225 63 1206 79 q 1253 39 1244 47 q 1260 16 1263 29 q 1244 3 1257 3 l 374 3 l 374 -65 q 351 -87 374 -76 q 306 -99 329 -99 m 693 311 l 911 311 l 911 660 l 693 660 l 693 311 z "},"中":{"ha":1389,"x_min":150,"x_max":1286,"o":"m 667 -100 q 636 -76 636 -100 q 638 -21 636 -69 q 641 102 639 28 q 644 258 643 176 q 646 411 646 340 l 646 454 l 271 454 l 271 356 q 246 332 271 344 q 189 319 221 319 q 169 324 178 319 q 160 344 160 329 q 161 390 160 353 q 165 482 163 428 q 168 598 167 536 q 169 718 169 660 q 167 828 169 789 q 154 886 164 868 q 157 901 150 894 q 172 903 163 907 q 203 887 182 899 q 246 863 224 875 q 282 843 268 851 l 646 843 l 646 1072 q 635 1138 646 1122 q 636 1153 631 1144 q 649 1156 640 1157 q 691 1148 665 1153 q 743 1138 717 1143 q 786 1126 769 1132 q 797 1110 797 1122 q 782 1096 796 1096 q 752 1090 767 1094 q 738 1064 738 1085 l 738 843 l 1090 843 q 1104 849 1099 843 q 1132 875 1114 857 q 1157 901 1150 893 q 1183 901 1168 913 q 1212 880 1193 896 q 1250 849 1231 864 q 1278 825 1269 833 q 1285 810 1286 818 q 1272 797 1283 801 q 1251 788 1261 792 q 1231 778 1242 783 q 1219 758 1219 772 q 1221 647 1219 707 q 1225 531 1222 586 q 1229 438 1228 475 q 1231 394 1231 400 q 1205 369 1231 381 q 1146 357 1179 357 q 1119 378 1119 357 l 1119 454 l 738 454 l 738 410 q 739 262 738 340 q 742 113 740 183 q 744 -5 743 43 q 746 -61 746 -53 q 724 -86 746 -72 q 667 -100 703 -100 m 738 496 l 1119 496 l 1119 800 l 738 800 l 738 496 m 271 496 l 646 496 l 646 800 l 271 800 l 271 496 z "},"久":{"ha":1389,"x_min":61,"x_max":1329,"o":"m 81 -100 q 68 -75 61 -94 q 215 30 135 -33 q 380 178 296 93 q 540 367 464 263 q 676 597 617 472 q 764 863 735 721 l 483 863 q 313 606 413 728 q 106 399 213 483 q 90 405 96 399 q 86 419 85 411 q 252 627 179 517 q 378 849 325 738 q 461 1063 431 961 q 469 1100 468 1085 q 468 1125 469 1115 q 471 1142 468 1139 q 486 1142 478 1146 q 525 1120 499 1135 q 578 1092 551 1106 q 617 1071 604 1078 q 622 1051 628 1064 q 603 1042 617 1039 q 569 1042 579 1046 q 551 1017 560 1039 q 530 961 542 989 q 504 906 518 933 l 754 906 q 769 910 764 906 q 791 930 776 917 q 815 951 806 943 q 827 958 822 958 q 842 951 832 958 q 867 931 850 946 q 903 902 885 917 q 928 879 921 888 q 934 863 936 872 q 921 849 932 853 q 898 842 913 847 q 874 833 883 836 q 851 804 858 828 q 847 787 850 796 q 842 769 844 778 q 839 738 840 757 q 839 694 838 718 q 904 431 857 543 q 1019 237 951 318 q 1167 102 1088 156 q 1329 15 1246 49 q 1250 -26 1289 1 q 1192 -78 1211 -54 q 1011 90 1094 -15 q 873 338 928 194 q 803 657 818 481 q 661 392 746 513 q 478 176 576 271 q 277 11 379 81 q 81 -100 175 -58 z "},"乾":{"ha":1389,"x_min":64,"x_max":1329,"o":"m 368 -101 q 339 -76 339 -101 q 340 -40 339 -71 q 342 35 340 -10 q 344 126 343 79 q 346 211 346 174 l 149 211 q 126 210 149 211 q 75 203 103 210 l 64 264 q 124 254 99 256 q 149 253 149 253 l 346 253 l 346 372 l 226 372 l 226 331 q 206 313 226 321 q 163 304 186 304 q 145 310 153 304 q 138 331 138 315 q 140 395 138 343 q 144 527 142 447 q 146 697 146 607 q 142 792 146 764 q 131 833 138 819 q 132 847 125 840 q 147 849 138 853 q 191 825 161 842 q 239 797 221 808 l 346 797 l 346 924 l 160 924 q 137 923 160 924 q 86 917 114 922 l 75 976 q 135 967 110 968 q 160 965 160 965 l 346 965 l 346 1072 q 336 1138 346 1124 q 336 1153 331 1146 q 350 1156 339 1158 q 412 1143 372 1151 q 475 1128 451 1135 q 486 1111 486 1124 q 471 1097 485 1097 q 441 1091 456 1096 q 426 1065 426 1086 l 426 965 l 558 965 q 574 972 568 965 q 595 996 581 981 q 617 1018 610 1011 q 643 1019 629 1031 q 676 992 656 1010 q 708 960 696 974 q 716 935 719 947 q 701 924 713 924 l 426 924 l 426 797 l 528 797 q 543 803 538 797 q 563 822 550 810 q 583 840 575 833 q 610 842 596 853 q 645 811 622 832 q 679 779 668 790 q 672 750 696 763 q 659 744 665 747 q 644 736 653 740 q 636 730 639 733 q 633 713 633 726 q 635 552 633 629 q 638 423 636 475 q 639 360 639 371 q 617 342 639 350 q 576 335 596 335 q 550 356 550 335 l 550 372 l 426 372 l 426 253 l 571 253 q 586 258 581 253 q 608 283 593 267 q 628 306 622 299 q 654 307 640 318 q 687 278 667 297 q 721 246 707 260 q 728 223 732 235 q 714 211 725 211 l 426 211 q 429 94 428 154 q 432 -12 431 33 q 433 -68 433 -57 q 413 -90 433 -79 q 368 -101 392 -101 m 833 -39 q 740 -9 769 -33 q 710 64 710 15 q 734 154 710 99 q 797 273 758 210 q 876 396 835 336 q 953 501 918 456 q 1006 565 988 547 l 769 565 q 747 565 769 565 q 696 558 724 564 l 685 618 q 744 608 719 610 q 769 607 769 607 l 1004 607 q 1022 614 1017 607 q 1047 638 1033 624 q 1074 661 1061 651 q 1106 663 1089 675 q 1134 640 1117 656 q 1169 610 1151 625 q 1197 586 1188 594 q 1200 556 1210 575 q 1168 544 1190 539 q 1078 513 1126 551 q 1014 449 1050 490 q 940 355 978 407 q 872 251 903 303 q 822 156 842 199 q 803 93 803 114 q 819 54 803 67 q 871 39 836 42 q 933 35 896 36 q 1012 35 971 35 q 1088 40 1053 36 q 1143 49 1122 43 q 1172 65 1163 56 q 1190 93 1182 75 q 1208 140 1197 108 q 1228 208 1218 172 q 1245 274 1238 244 q 1256 314 1253 304 q 1271 318 1263 319 q 1283 310 1279 317 q 1281 267 1283 299 q 1277 197 1279 235 q 1274 130 1275 160 q 1272 93 1272 100 q 1289 67 1272 72 q 1319 52 1308 61 q 1329 25 1329 43 q 1313 -7 1329 7 q 1254 -28 1296 -21 q 1153 -39 1211 -35 q 1036 -44 1096 -43 q 923 -44 976 -46 q 833 -39 869 -43 m 683 647 q 669 651 675 646 q 663 665 663 657 q 790 859 728 753 q 892 1089 853 965 q 898 1119 897 1107 q 899 1138 899 1131 q 901 1154 897 1150 q 915 1154 907 1158 q 973 1126 936 1144 q 1033 1094 1010 1107 q 1039 1075 1044 1088 q 1021 1065 1036 1063 q 978 1044 992 1071 q 931 962 956 1003 q 879 881 907 921 l 1126 881 q 1147 890 1140 881 q 1173 922 1156 900 q 1197 953 1190 944 q 1224 956 1207 967 q 1253 932 1235 949 q 1290 899 1271 915 q 1317 875 1308 883 q 1325 852 1328 865 q 1310 839 1322 839 l 850 839 q 769 738 811 788 q 683 647 728 689 m 226 415 l 550 415 l 550 567 l 226 567 l 226 415 m 226 608 l 550 608 l 550 756 l 226 756 l 226 608 z "},"事":{"ha":1389,"x_min":56,"x_max":1340,"o":"m 601 -101 q 560 -31 583 -54 q 505 3 538 -7 q 422 18 472 13 q 419 33 417 25 q 426 46 421 42 q 498 42 447 44 q 607 39 549 39 q 639 48 631 39 q 647 76 647 57 l 647 192 l 229 192 q 206 191 229 192 q 156 185 183 190 l 144 244 q 204 235 179 236 q 229 233 229 233 l 647 233 l 647 343 l 140 343 q 117 342 140 343 q 67 336 94 342 l 56 397 q 115 388 90 389 q 140 386 140 386 l 647 386 l 647 496 l 229 496 q 206 495 229 496 q 156 489 183 494 l 144 549 q 204 539 179 540 q 229 538 229 538 l 647 538 l 647 649 l 378 649 l 378 611 q 353 589 378 599 q 310 579 328 579 q 290 584 297 579 q 282 604 282 589 q 283 644 282 613 q 286 720 285 675 q 288 810 288 765 q 286 855 288 836 q 278 886 285 874 q 279 900 272 893 q 294 901 285 906 q 325 885 306 896 q 365 862 344 874 q 397 843 385 850 l 647 843 l 647 953 l 168 953 q 145 952 168 953 q 94 946 122 951 l 83 1007 q 143 997 118 999 q 168 996 168 996 l 647 996 l 647 1072 q 638 1138 647 1124 q 638 1153 632 1146 q 651 1156 644 1157 q 691 1148 667 1153 q 740 1138 715 1143 q 781 1129 765 1133 q 792 1113 792 1128 q 776 1099 790 1099 q 747 1092 761 1097 q 732 1067 732 1088 l 732 996 l 1106 996 q 1121 1001 1115 996 l 1185 1065 q 1210 1067 1197 1078 q 1235 1045 1217 1061 q 1272 1013 1253 1029 q 1297 990 1292 996 q 1306 965 1310 978 q 1290 953 1303 953 l 732 953 l 732 843 l 976 843 q 992 849 986 843 q 1015 873 1000 858 q 1036 894 1029 888 q 1048 902 1043 901 q 1063 896 1053 903 q 1088 876 1072 890 q 1121 849 1104 863 q 1144 826 1138 835 q 1151 813 1151 821 q 1142 800 1151 804 q 1107 783 1125 793 q 1093 763 1093 776 q 1095 715 1093 743 q 1099 663 1097 686 q 1101 633 1101 640 q 1081 612 1101 621 q 1029 603 1061 603 q 1010 606 1017 603 q 1004 622 1004 610 l 1004 649 l 732 649 l 732 538 l 992 538 q 1007 544 1000 538 q 1027 565 1017 553 q 1049 586 1038 576 q 1060 593 1056 593 q 1074 586 1064 593 q 1115 555 1089 576 q 1156 521 1142 533 q 1149 492 1172 504 q 1132 485 1140 489 q 1117 478 1124 481 q 1108 471 1111 475 q 1106 453 1106 467 q 1106 421 1106 438 q 1107 386 1106 404 l 1156 386 q 1171 392 1165 386 q 1197 421 1178 399 q 1224 451 1217 443 q 1249 453 1235 463 q 1289 419 1263 443 q 1329 381 1315 394 q 1338 356 1340 368 q 1319 343 1335 343 l 1108 343 q 1113 228 1111 282 q 1114 164 1114 175 q 1090 140 1114 150 q 1046 129 1065 129 q 1026 133 1033 129 q 1019 149 1019 136 l 1019 192 l 732 192 q 734 119 733 158 q 735 65 735 81 q 710 -37 735 1 q 601 -101 685 -76 m 732 233 l 1019 233 l 1019 343 l 732 343 l 732 233 m 732 386 l 1019 386 l 1019 496 l 732 496 l 732 386 m 732 690 l 1004 690 l 1004 801 l 732 801 l 732 690 m 378 690 l 647 690 l 647 801 l 378 801 l 378 690 z "},"二":{"ha":1389,"x_min":67,"x_max":1324,"o":"m 78 71 l 67 131 q 126 121 101 122 q 151 119 151 119 l 1101 119 q 1117 125 1111 119 q 1135 144 1121 129 q 1165 174 1150 158 q 1183 193 1179 189 q 1207 194 1192 201 q 1240 172 1218 189 q 1283 139 1261 156 q 1313 114 1304 122 q 1322 91 1324 104 q 1307 78 1319 78 l 151 78 q 128 77 151 78 q 78 71 106 76 m 186 872 l 175 933 q 235 924 210 925 q 260 922 260 922 l 994 922 q 1006 924 1001 922 q 1015 931 1011 925 q 1041 963 1024 942 q 1065 993 1058 985 q 1092 996 1075 1007 q 1121 973 1103 989 q 1158 941 1139 957 q 1185 917 1176 925 q 1193 892 1196 906 q 1178 879 1190 879 l 260 879 q 237 878 260 879 q 186 872 214 878 z "}}}
